G04 (created by PCBNEW (2013-07-07 BZR 4022)-stable) date 01/03/2015 13:42:32*
%MOIN*%
G04 Gerber Fmt 3.4, Leading zero omitted, Abs format*
%FSLAX34Y34*%
G01*
G70*
G90*
G04 APERTURE LIST*
%ADD10C,0.00590551*%
%ADD11O,0.1187X0.0593*%
%ADD12R,0.06X0.06*%
%ADD13C,0.06*%
%ADD14R,0.08X0.06*%
%ADD15R,0.055X0.035*%
%ADD16R,0.035X0.055*%
%ADD17O,0.0593X0.1187*%
%ADD18C,0.15*%
%ADD19R,0.03X0.0787402*%
%ADD20C,0.0472441*%
%ADD21C,0.0393701*%
%ADD22C,0.023622*%
%ADD23C,0.015748*%
%ADD24C,0.01*%
G04 APERTURE END LIST*
G54D10*
G54D11*
X87775Y-57810D03*
X87775Y-56810D03*
X87775Y-55810D03*
X87775Y-54810D03*
X87775Y-53810D03*
G54D12*
X90838Y-34594D03*
G54D13*
X91838Y-34594D03*
X90838Y-39594D03*
X91838Y-35594D03*
X90838Y-40594D03*
X91838Y-36594D03*
X90838Y-41594D03*
X91838Y-37594D03*
X90838Y-42594D03*
X91838Y-38594D03*
X90838Y-43594D03*
X91838Y-39594D03*
X90838Y-44594D03*
X91838Y-40594D03*
X90838Y-45594D03*
X91838Y-41594D03*
X90838Y-46594D03*
X91838Y-42594D03*
X90838Y-47594D03*
X91838Y-43594D03*
X90838Y-48594D03*
X91838Y-44594D03*
X90838Y-49594D03*
X91838Y-45594D03*
X91838Y-46594D03*
X90838Y-50594D03*
X91838Y-47594D03*
X91838Y-49594D03*
X91838Y-50594D03*
X91838Y-51594D03*
X91838Y-52594D03*
X90838Y-51594D03*
X90838Y-52594D03*
X90838Y-35594D03*
X90838Y-36594D03*
X90838Y-37594D03*
X90838Y-38594D03*
X90838Y-53594D03*
X91838Y-53594D03*
X91838Y-48594D03*
X90838Y-54594D03*
X91838Y-54594D03*
X90838Y-55594D03*
X91838Y-55594D03*
X90838Y-56594D03*
X91838Y-56594D03*
X90838Y-57594D03*
X91838Y-57594D03*
X90838Y-58594D03*
X91838Y-58594D03*
G54D12*
X70838Y-34594D03*
G54D13*
X71838Y-34594D03*
X70838Y-39594D03*
X71838Y-35594D03*
X70838Y-40594D03*
X71838Y-36594D03*
X70838Y-41594D03*
X71838Y-37594D03*
X70838Y-42594D03*
X71838Y-38594D03*
X70838Y-43594D03*
X71838Y-39594D03*
X70838Y-44594D03*
X71838Y-40594D03*
X70838Y-45594D03*
X71838Y-41594D03*
X70838Y-46594D03*
X71838Y-42594D03*
X70838Y-47594D03*
X71838Y-43594D03*
X70838Y-48594D03*
X71838Y-44594D03*
X70838Y-49594D03*
X71838Y-45594D03*
X71838Y-46594D03*
X70838Y-50594D03*
X71838Y-47594D03*
X71838Y-49594D03*
X71838Y-50594D03*
X71838Y-51594D03*
X71838Y-52594D03*
X70838Y-51594D03*
X70838Y-52594D03*
X70838Y-35594D03*
X70838Y-36594D03*
X70838Y-37594D03*
X70838Y-38594D03*
X70838Y-53594D03*
X71838Y-53594D03*
X71838Y-48594D03*
X70838Y-54594D03*
X71838Y-54594D03*
X70838Y-55594D03*
X71838Y-55594D03*
X70838Y-56594D03*
X71838Y-56594D03*
X70838Y-57594D03*
X71838Y-57594D03*
X70838Y-58594D03*
X71838Y-58594D03*
G54D14*
X89380Y-44870D03*
X89380Y-46170D03*
X89340Y-53730D03*
X89340Y-55030D03*
X73208Y-57878D03*
X73208Y-56578D03*
X73228Y-48878D03*
X73228Y-47578D03*
G54D15*
X82620Y-51015D03*
X82620Y-50265D03*
X80040Y-51055D03*
X80040Y-50305D03*
G54D16*
X79385Y-55280D03*
X80135Y-55280D03*
X80985Y-50940D03*
X81735Y-50940D03*
X79015Y-51140D03*
X78265Y-51140D03*
G54D17*
X88800Y-61300D03*
X89800Y-61300D03*
X90800Y-61300D03*
G54D11*
X87795Y-36433D03*
X87795Y-35433D03*
X87795Y-34433D03*
X87795Y-41157D03*
X87795Y-40157D03*
X87795Y-39157D03*
X75590Y-36433D03*
X75590Y-35433D03*
X75590Y-34433D03*
X75590Y-41157D03*
X75590Y-40157D03*
X75590Y-39157D03*
G54D18*
X74690Y-61160D03*
X84690Y-61160D03*
G54D12*
X81890Y-60160D03*
G54D13*
X80790Y-60160D03*
X79740Y-60160D03*
X78640Y-60160D03*
X77540Y-60160D03*
X81340Y-61160D03*
X80240Y-61160D03*
X79190Y-61160D03*
X78090Y-61160D03*
G54D19*
X79690Y-52120D03*
X80190Y-52120D03*
X80690Y-52120D03*
X81190Y-52120D03*
X81690Y-52120D03*
X82190Y-52120D03*
X82690Y-52120D03*
X83190Y-52120D03*
X83190Y-54120D03*
X82690Y-54120D03*
X82190Y-54120D03*
X81690Y-54120D03*
X81190Y-54120D03*
X80690Y-54120D03*
X80190Y-54120D03*
X79690Y-54120D03*
G54D11*
X87795Y-48850D03*
X87795Y-47850D03*
X87795Y-46850D03*
X87795Y-45850D03*
X87795Y-44850D03*
X74803Y-53810D03*
X74803Y-54810D03*
X74803Y-55810D03*
X74803Y-56810D03*
X74803Y-57810D03*
X74803Y-44850D03*
X74803Y-45850D03*
X74803Y-46850D03*
X74803Y-47850D03*
X74803Y-48850D03*
G54D14*
X86220Y-58130D03*
X86220Y-56830D03*
X86220Y-44790D03*
X86220Y-46090D03*
X76377Y-53430D03*
X76377Y-54730D03*
X76320Y-57690D03*
X76320Y-56390D03*
X86220Y-49350D03*
X86220Y-48050D03*
X76377Y-44610D03*
X76377Y-45910D03*
X76377Y-48790D03*
X76377Y-47490D03*
X86220Y-53810D03*
X86220Y-55110D03*
G54D20*
X84500Y-59260D03*
X76280Y-59700D03*
X78520Y-48820D03*
X83500Y-48840D03*
X78600Y-57380D03*
X83740Y-57660D03*
X83880Y-54940D03*
X83760Y-46380D03*
X78530Y-55050D03*
X78793Y-46653D03*
X86300Y-60260D03*
X73360Y-59480D03*
X72820Y-54280D03*
X72820Y-50540D03*
X73520Y-50080D03*
X74080Y-42680D03*
X72820Y-42680D03*
X72820Y-45960D03*
X78120Y-42040D03*
X89340Y-55960D03*
X80660Y-43720D03*
X82680Y-38540D03*
X80600Y-43020D03*
X82800Y-36520D03*
X80320Y-42400D03*
X81940Y-36940D03*
X84000Y-49700D03*
X85060Y-44560D03*
X76700Y-49680D03*
X82160Y-53080D03*
X79320Y-50420D03*
X76720Y-58440D03*
X82700Y-44240D03*
X78960Y-45600D03*
X78980Y-42180D03*
X78320Y-40760D03*
X85340Y-34840D03*
X85340Y-40240D03*
X89700Y-47440D03*
X83580Y-58660D03*
G54D21*
X78600Y-57380D02*
X78600Y-58700D01*
X78600Y-58700D02*
X78380Y-58920D01*
X79385Y-55280D02*
X79385Y-57915D01*
X79385Y-57915D02*
X78380Y-58920D01*
X78160Y-45700D02*
X78160Y-47540D01*
X78160Y-47540D02*
X78520Y-47900D01*
X78160Y-45520D02*
X78160Y-45700D01*
X74980Y-43640D02*
X77380Y-43640D01*
X78160Y-45860D02*
X78480Y-46180D01*
X78160Y-44420D02*
X78160Y-45520D01*
X78160Y-45520D02*
X78160Y-45860D01*
X77380Y-43640D02*
X78160Y-44420D01*
X82720Y-49580D02*
X83140Y-49580D01*
X84460Y-52140D02*
X84460Y-54440D01*
X83480Y-51160D02*
X84460Y-52140D01*
X83480Y-49920D02*
X83480Y-51160D01*
X83140Y-49580D02*
X83480Y-49920D01*
X84460Y-59220D02*
X84460Y-55620D01*
X84500Y-59260D02*
X84460Y-59220D01*
X77060Y-58920D02*
X76280Y-59700D01*
X78380Y-58920D02*
X77060Y-58920D01*
X80440Y-46180D02*
X80580Y-46180D01*
X80580Y-46180D02*
X81620Y-47220D01*
X81620Y-47220D02*
X81620Y-48880D01*
X81620Y-48880D02*
X82320Y-49580D01*
X82320Y-49580D02*
X82720Y-49580D01*
X84460Y-54440D02*
X84460Y-55620D01*
X84460Y-55620D02*
X83740Y-56340D01*
X78520Y-48820D02*
X78520Y-47900D01*
X83500Y-48840D02*
X83500Y-47460D01*
X83500Y-47460D02*
X82420Y-46380D01*
X78600Y-57380D02*
X78600Y-56400D01*
X78600Y-56400D02*
X78600Y-55740D01*
X78600Y-55740D02*
X78600Y-55120D01*
X78600Y-55120D02*
X78530Y-55050D01*
X83740Y-57660D02*
X83740Y-56340D01*
X83740Y-56340D02*
X83740Y-55080D01*
X83740Y-55080D02*
X83880Y-54940D01*
X83760Y-46380D02*
X82420Y-46380D01*
X82420Y-46380D02*
X80760Y-46380D01*
X80560Y-46180D02*
X80440Y-46180D01*
X80440Y-46180D02*
X78480Y-46180D01*
X80760Y-46380D02*
X80560Y-46180D01*
X73480Y-41440D02*
X73480Y-43080D01*
X74040Y-43640D02*
X74980Y-43640D01*
X73480Y-43080D02*
X74040Y-43640D01*
X73480Y-41160D02*
X73480Y-41440D01*
X71838Y-36594D02*
X72274Y-36594D01*
X73480Y-37800D02*
X73480Y-41160D01*
X72274Y-36594D02*
X73480Y-37800D01*
G54D22*
X79690Y-54120D02*
X79690Y-54490D01*
X79385Y-54795D02*
X79385Y-55280D01*
X79690Y-54490D02*
X79385Y-54795D01*
G54D21*
X78530Y-55050D02*
X78540Y-55060D01*
G54D23*
X78793Y-46653D02*
X78800Y-46660D01*
G54D21*
X70838Y-36594D02*
X71838Y-36594D01*
X72820Y-52480D02*
X72840Y-52480D01*
X75767Y-52820D02*
X76377Y-53430D01*
X73180Y-52820D02*
X75767Y-52820D01*
X72840Y-52480D02*
X73180Y-52820D01*
X74803Y-57810D02*
X76199Y-57810D01*
X76199Y-57810D02*
X76320Y-57690D01*
X86220Y-58130D02*
X86220Y-60180D01*
X86220Y-60180D02*
X86300Y-60260D01*
X87775Y-53810D02*
X86280Y-53810D01*
X86280Y-53810D02*
X86280Y-53810D01*
X86220Y-49350D02*
X85010Y-49350D01*
X85010Y-49350D02*
X84690Y-49030D01*
X87795Y-44850D02*
X86280Y-44850D01*
X86280Y-44850D02*
X86220Y-44790D01*
G54D22*
X72820Y-45960D02*
X72820Y-45100D01*
X75890Y-44160D02*
X76340Y-44610D01*
X73760Y-44160D02*
X75890Y-44160D01*
X72820Y-45100D02*
X73760Y-44160D01*
G54D21*
X76560Y-42760D02*
X78500Y-42760D01*
X78500Y-42760D02*
X80240Y-44500D01*
X74803Y-48850D02*
X76239Y-48850D01*
X76239Y-48850D02*
X76300Y-48790D01*
X84380Y-45960D02*
X84380Y-43680D01*
X84380Y-43680D02*
X83640Y-42940D01*
X84380Y-48720D02*
X84380Y-45960D01*
X84690Y-49030D02*
X84380Y-48720D01*
X80240Y-44500D02*
X80820Y-44500D01*
X88840Y-42940D02*
X89380Y-43480D01*
X89380Y-44870D02*
X89380Y-43480D01*
X83640Y-42940D02*
X88840Y-42940D01*
X82380Y-42940D02*
X83640Y-42940D01*
X81770Y-43550D02*
X82380Y-42940D01*
X80820Y-44500D02*
X81770Y-43550D01*
X89340Y-53730D02*
X89340Y-52000D01*
X85920Y-50260D02*
X84690Y-49030D01*
X87600Y-50260D02*
X85920Y-50260D01*
X89340Y-52000D02*
X87600Y-50260D01*
X73208Y-59328D02*
X73208Y-57878D01*
X73360Y-59480D02*
X73208Y-59328D01*
X72820Y-50540D02*
X72820Y-52480D01*
X72820Y-52480D02*
X72820Y-54280D01*
X73228Y-48878D02*
X73228Y-49788D01*
X73228Y-49788D02*
X73520Y-50080D01*
X74380Y-41680D02*
X74380Y-42380D01*
X74380Y-42380D02*
X74080Y-42680D01*
X72820Y-42680D02*
X72820Y-45960D01*
X74803Y-48850D02*
X73256Y-48850D01*
X73256Y-48850D02*
X73228Y-48878D01*
X87795Y-44850D02*
X89360Y-44850D01*
X89360Y-44850D02*
X89380Y-44870D01*
X87775Y-53810D02*
X89259Y-53810D01*
X89259Y-53810D02*
X89340Y-53730D01*
X74380Y-41200D02*
X74380Y-41680D01*
X74380Y-41680D02*
X74380Y-41560D01*
X74860Y-42040D02*
X78120Y-42040D01*
X74380Y-41560D02*
X74860Y-42040D01*
X76260Y-42760D02*
X76560Y-42760D01*
X75020Y-42760D02*
X76260Y-42760D01*
X74380Y-42120D02*
X75020Y-42760D01*
X74380Y-41200D02*
X74380Y-42120D01*
X74380Y-41060D02*
X74380Y-41200D01*
X73194Y-35594D02*
X74380Y-36780D01*
X74380Y-36780D02*
X74380Y-41060D01*
X71838Y-35594D02*
X73194Y-35594D01*
X89360Y-44850D02*
X89380Y-44870D01*
X73208Y-57910D02*
X74683Y-57910D01*
X74683Y-57910D02*
X74783Y-57810D01*
X70838Y-35594D02*
X71838Y-35594D01*
G54D22*
X79015Y-51140D02*
X79015Y-51475D01*
X79660Y-52120D02*
X79690Y-52120D01*
X79015Y-51475D02*
X79660Y-52120D01*
X80690Y-52120D02*
X80690Y-52630D01*
X78265Y-51725D02*
X78265Y-51140D01*
X79500Y-52960D02*
X78265Y-51725D01*
X80360Y-52960D02*
X79500Y-52960D01*
X80690Y-52630D02*
X80360Y-52960D01*
X81190Y-52120D02*
X81190Y-51610D01*
X80985Y-51405D02*
X80985Y-50940D01*
X81190Y-51610D02*
X80985Y-51405D01*
X81690Y-52120D02*
X81690Y-50985D01*
X81690Y-50985D02*
X81735Y-50940D01*
G54D23*
X90260Y-56100D02*
X89480Y-56100D01*
X89480Y-56100D02*
X89340Y-55960D01*
X90838Y-44521D02*
X91260Y-44100D01*
X91260Y-44100D02*
X92300Y-44100D01*
X92300Y-44100D02*
X92460Y-44260D01*
X92460Y-44260D02*
X92460Y-54320D01*
X90838Y-44521D02*
X90838Y-44594D01*
X92460Y-55780D02*
X92140Y-56100D01*
X92460Y-54320D02*
X92460Y-55780D01*
X90040Y-56100D02*
X90260Y-56100D01*
X90260Y-56100D02*
X92140Y-56100D01*
G54D21*
X74803Y-46850D02*
X76110Y-46850D01*
X76300Y-47040D02*
X76300Y-47490D01*
X76110Y-46850D02*
X76300Y-47040D01*
X74803Y-55810D02*
X76070Y-55810D01*
X76320Y-56060D02*
X76320Y-56390D01*
X76070Y-55810D02*
X76320Y-56060D01*
X86280Y-55110D02*
X86280Y-55360D01*
X86730Y-55810D02*
X87775Y-55810D01*
X86280Y-55360D02*
X86730Y-55810D01*
X87795Y-46850D02*
X86530Y-46850D01*
X86220Y-46540D02*
X86220Y-46090D01*
X86530Y-46850D02*
X86220Y-46540D01*
X74803Y-45850D02*
X76280Y-45850D01*
X76280Y-45850D02*
X76340Y-45910D01*
X74803Y-54810D02*
X76297Y-54810D01*
X76297Y-54810D02*
X76377Y-54730D01*
X87775Y-56810D02*
X86239Y-56810D01*
X86239Y-56810D02*
X86220Y-56830D01*
X87795Y-47850D02*
X86420Y-47850D01*
X86420Y-47850D02*
X86220Y-48050D01*
G54D23*
X82680Y-38540D02*
X82680Y-41700D01*
X82680Y-41700D02*
X80660Y-43720D01*
X81770Y-38150D02*
X81770Y-41850D01*
X81770Y-41850D02*
X80600Y-43020D01*
X82800Y-36520D02*
X82800Y-37120D01*
X82800Y-37120D02*
X81770Y-38150D01*
X81940Y-36940D02*
X81620Y-36940D01*
X80680Y-42040D02*
X80320Y-42400D01*
X80680Y-37880D02*
X80680Y-42040D01*
X81620Y-36940D02*
X80680Y-37880D01*
X71340Y-59400D02*
X71340Y-59420D01*
X83040Y-61120D02*
X83040Y-59240D01*
X81900Y-62260D02*
X83040Y-61120D01*
X74180Y-62260D02*
X81900Y-62260D01*
X71340Y-59420D02*
X74180Y-62260D01*
X81690Y-54120D02*
X81690Y-57890D01*
X81690Y-57890D02*
X83040Y-59240D01*
X71340Y-58093D02*
X71838Y-57594D01*
X71340Y-59400D02*
X71340Y-58093D01*
G54D22*
X81190Y-54120D02*
X81190Y-58150D01*
X79740Y-59600D02*
X79740Y-60160D01*
X81190Y-58150D02*
X79740Y-59600D01*
G54D23*
X70040Y-58680D02*
X70040Y-59020D01*
X83460Y-61220D02*
X83460Y-59240D01*
X82060Y-62620D02*
X83460Y-61220D01*
X73640Y-62620D02*
X82060Y-62620D01*
X70040Y-59020D02*
X73640Y-62620D01*
X82190Y-54120D02*
X82190Y-57970D01*
X82190Y-57970D02*
X83460Y-59240D01*
X70040Y-58393D02*
X70838Y-57594D01*
X70040Y-58680D02*
X70040Y-58393D01*
G54D22*
X77420Y-59460D02*
X77280Y-59460D01*
X82640Y-60880D02*
X82640Y-59700D01*
X81680Y-61840D02*
X82640Y-60880D01*
X77820Y-61840D02*
X81680Y-61840D01*
X76880Y-60900D02*
X77820Y-61840D01*
X76880Y-59860D02*
X76880Y-60900D01*
X77280Y-59460D02*
X76880Y-59860D01*
X82640Y-59700D02*
X82180Y-59240D01*
X80690Y-54120D02*
X80690Y-57630D01*
X80790Y-59790D02*
X80790Y-60160D01*
X81340Y-59240D02*
X80790Y-59790D01*
X82180Y-59240D02*
X81340Y-59240D01*
X78860Y-59460D02*
X77420Y-59460D01*
X80690Y-57630D02*
X78860Y-59460D01*
X80190Y-52120D02*
X80190Y-51530D01*
X80040Y-51380D02*
X80040Y-51055D01*
X80190Y-51530D02*
X80040Y-51380D01*
X82190Y-52120D02*
X82190Y-51670D01*
X82620Y-51240D02*
X82620Y-51015D01*
X82190Y-51670D02*
X82620Y-51240D01*
X74803Y-56810D02*
X75370Y-56810D01*
X77240Y-58440D02*
X76720Y-58440D01*
X77560Y-58120D02*
X77240Y-58440D01*
X77560Y-57480D02*
X77560Y-58120D01*
X77120Y-57040D02*
X77560Y-57480D01*
X75600Y-57040D02*
X77120Y-57040D01*
X75370Y-56810D02*
X75600Y-57040D01*
G54D21*
X85240Y-50940D02*
X85240Y-59960D01*
X87700Y-60980D02*
X88800Y-59880D01*
X86260Y-60980D02*
X87700Y-60980D01*
X85240Y-59960D02*
X86260Y-60980D01*
X84000Y-49700D02*
X85240Y-50940D01*
G54D23*
X87795Y-45850D02*
X87270Y-45850D01*
X85060Y-45240D02*
X85060Y-44560D01*
X85260Y-45440D02*
X85060Y-45240D01*
X86860Y-45440D02*
X85260Y-45440D01*
X87270Y-45850D02*
X86860Y-45440D01*
G54D21*
X76700Y-49680D02*
X78580Y-49680D01*
X78580Y-49680D02*
X79320Y-50420D01*
G54D22*
X80190Y-54120D02*
X80190Y-53590D01*
X81880Y-53360D02*
X82160Y-53080D01*
X80420Y-53360D02*
X81880Y-53360D01*
X80190Y-53590D02*
X80420Y-53360D01*
G54D21*
X76720Y-58440D02*
X75620Y-58440D01*
X71838Y-58958D02*
X71838Y-58594D01*
X72980Y-60100D02*
X71838Y-58958D01*
X73960Y-60100D02*
X72980Y-60100D01*
X75620Y-58440D02*
X73960Y-60100D01*
X74783Y-56810D02*
X74150Y-56810D01*
X74150Y-56810D02*
X73918Y-56578D01*
X73918Y-56578D02*
X73208Y-56578D01*
X90838Y-58594D02*
X90085Y-58594D01*
X90085Y-58594D02*
X88800Y-59880D01*
X88800Y-59880D02*
X88800Y-61300D01*
X91838Y-58594D02*
X90838Y-58594D01*
X87775Y-54810D02*
X88430Y-54810D01*
X88430Y-54810D02*
X88650Y-55030D01*
X88650Y-55030D02*
X89340Y-55030D01*
X89380Y-46170D02*
X89710Y-46170D01*
X89710Y-46170D02*
X90285Y-45594D01*
X90285Y-45594D02*
X90838Y-45594D01*
X87795Y-45850D02*
X88410Y-45850D01*
X88730Y-46170D02*
X89380Y-46170D01*
X88410Y-45850D02*
X88730Y-46170D01*
X78980Y-42180D02*
X78980Y-40920D01*
X78980Y-40920D02*
X78570Y-40510D01*
X78570Y-38690D02*
X78570Y-40510D01*
X78570Y-40510D02*
X78320Y-40760D01*
X75590Y-40157D02*
X77102Y-40157D01*
X81826Y-35433D02*
X87795Y-35433D01*
X77102Y-40157D02*
X78570Y-38690D01*
X78570Y-38690D02*
X81826Y-35433D01*
X85340Y-34840D02*
X85340Y-39880D01*
X85340Y-39880D02*
X85340Y-40240D01*
X87795Y-40157D02*
X85422Y-40157D01*
X85422Y-40157D02*
X85340Y-40240D01*
X89560Y-37780D02*
X89560Y-34940D01*
X89560Y-34940D02*
X89905Y-34594D01*
X90838Y-36594D02*
X89765Y-36594D01*
X89560Y-36800D02*
X89560Y-37780D01*
X89560Y-37780D02*
X89560Y-39540D01*
X89765Y-36594D02*
X89560Y-36800D01*
X89560Y-39540D02*
X88942Y-40157D01*
X88942Y-40157D02*
X87795Y-40157D01*
X90838Y-34594D02*
X89905Y-34594D01*
X89066Y-35433D02*
X87795Y-35433D01*
X89905Y-34594D02*
X89066Y-35433D01*
X91838Y-34594D02*
X90838Y-34594D01*
X75590Y-35433D02*
X87795Y-35433D01*
X78960Y-45600D02*
X81500Y-45600D01*
X81500Y-45600D02*
X82700Y-44400D01*
X82700Y-44400D02*
X82700Y-44240D01*
G54D22*
X75590Y-35433D02*
X77080Y-35433D01*
X77080Y-35433D02*
X84746Y-35433D01*
X84746Y-35433D02*
X85340Y-34840D01*
X87795Y-35433D02*
X85933Y-35433D01*
X85933Y-35433D02*
X85340Y-34840D01*
X90838Y-34594D02*
X90125Y-34594D01*
X90125Y-34594D02*
X89560Y-35160D01*
X89560Y-35160D02*
X89560Y-39540D01*
X89560Y-39540D02*
X88942Y-40157D01*
X88942Y-40157D02*
X87795Y-40157D01*
X85422Y-40157D02*
X85340Y-40240D01*
X89700Y-47440D02*
X89700Y-51480D01*
X89700Y-51480D02*
X90140Y-51920D01*
X90140Y-51920D02*
X90140Y-54780D01*
X90140Y-54780D02*
X89890Y-55030D01*
X89890Y-55030D02*
X89340Y-55030D01*
X89380Y-46170D02*
X89380Y-47140D01*
X89680Y-47440D02*
X89700Y-47440D01*
X89380Y-47140D02*
X89680Y-47440D01*
X82690Y-53610D02*
X82160Y-53080D01*
X82690Y-54120D02*
X82690Y-53610D01*
X79435Y-50305D02*
X80040Y-50305D01*
X79320Y-50420D02*
X79435Y-50305D01*
X89340Y-55030D02*
X89290Y-55030D01*
X90654Y-58594D02*
X90838Y-58594D01*
X88780Y-56720D02*
X90654Y-58594D01*
X88780Y-55540D02*
X88780Y-56720D01*
X89290Y-55030D02*
X88780Y-55540D01*
X88800Y-59880D02*
X88800Y-61300D01*
X90085Y-58594D02*
X88800Y-59880D01*
G54D21*
X74803Y-47850D02*
X74190Y-47850D01*
X74190Y-47850D02*
X73918Y-47578D01*
X73918Y-47578D02*
X73228Y-47578D01*
G54D22*
X80040Y-50305D02*
X82580Y-50305D01*
X82580Y-50305D02*
X82620Y-50265D01*
X80190Y-54120D02*
X80190Y-55225D01*
X80190Y-55225D02*
X80135Y-55280D01*
X90285Y-45594D02*
X90838Y-45594D01*
X89710Y-46170D02*
X90285Y-45594D01*
X73918Y-56578D02*
X73208Y-56578D01*
X74150Y-56810D02*
X73918Y-56578D01*
G54D23*
X88430Y-54810D02*
X88650Y-55030D01*
X88650Y-55030D02*
X89340Y-55030D01*
G54D10*
G36*
X71042Y-59557D02*
X70368Y-58883D01*
X70368Y-58680D01*
X70368Y-58529D01*
X70758Y-58139D01*
X70773Y-58143D01*
X70880Y-58145D01*
X70987Y-58126D01*
X71011Y-58117D01*
X71011Y-59400D01*
X71011Y-59420D01*
X71014Y-59450D01*
X71016Y-59480D01*
X71017Y-59482D01*
X71017Y-59483D01*
X71026Y-59512D01*
X71034Y-59542D01*
X71035Y-59543D01*
X71036Y-59545D01*
X71042Y-59557D01*
X71042Y-59557D01*
G37*
G54D24*
X71042Y-59557D02*
X70368Y-58883D01*
X70368Y-58680D01*
X70368Y-58529D01*
X70758Y-58139D01*
X70773Y-58143D01*
X70880Y-58145D01*
X70987Y-58126D01*
X71011Y-58117D01*
X71011Y-59400D01*
X71011Y-59420D01*
X71014Y-59450D01*
X71016Y-59480D01*
X71017Y-59482D01*
X71017Y-59483D01*
X71026Y-59512D01*
X71034Y-59542D01*
X71035Y-59543D01*
X71036Y-59545D01*
X71042Y-59557D01*
G54D10*
G36*
X81389Y-60610D02*
X81289Y-60609D01*
X81183Y-60629D01*
X81083Y-60670D01*
X80993Y-60729D01*
X80916Y-60804D01*
X80855Y-60893D01*
X80813Y-60992D01*
X80790Y-61098D01*
X80789Y-61206D01*
X80808Y-61312D01*
X80848Y-61412D01*
X80886Y-61471D01*
X80693Y-61471D01*
X80720Y-61432D01*
X80764Y-61334D01*
X80788Y-61229D01*
X80790Y-61106D01*
X80769Y-61000D01*
X80727Y-60900D01*
X80668Y-60810D01*
X80592Y-60734D01*
X80502Y-60673D01*
X80403Y-60632D01*
X80297Y-60610D01*
X80189Y-60609D01*
X80083Y-60629D01*
X79983Y-60670D01*
X79893Y-60729D01*
X79816Y-60804D01*
X79755Y-60893D01*
X79714Y-60989D01*
X79677Y-60900D01*
X79618Y-60810D01*
X79542Y-60734D01*
X79452Y-60673D01*
X79353Y-60632D01*
X79247Y-60610D01*
X79139Y-60609D01*
X79033Y-60629D01*
X78933Y-60670D01*
X78843Y-60729D01*
X78766Y-60804D01*
X78705Y-60893D01*
X78663Y-60992D01*
X78640Y-61098D01*
X78639Y-61206D01*
X78658Y-61312D01*
X78698Y-61412D01*
X78736Y-61471D01*
X78543Y-61471D01*
X78570Y-61432D01*
X78614Y-61334D01*
X78638Y-61229D01*
X78640Y-61106D01*
X78619Y-61000D01*
X78577Y-60900D01*
X78518Y-60810D01*
X78442Y-60734D01*
X78352Y-60673D01*
X78253Y-60632D01*
X78147Y-60610D01*
X78039Y-60609D01*
X77933Y-60629D01*
X77833Y-60670D01*
X77743Y-60729D01*
X77666Y-60804D01*
X77605Y-60893D01*
X77563Y-60992D01*
X77550Y-61050D01*
X77248Y-60747D01*
X77248Y-60012D01*
X77432Y-59828D01*
X78200Y-59828D01*
X78155Y-59893D01*
X78113Y-59992D01*
X78090Y-60098D01*
X78089Y-60206D01*
X78108Y-60312D01*
X78148Y-60412D01*
X78206Y-60503D01*
X78281Y-60580D01*
X78370Y-60642D01*
X78469Y-60685D01*
X78574Y-60708D01*
X78682Y-60711D01*
X78788Y-60692D01*
X78889Y-60653D01*
X78980Y-60595D01*
X79058Y-60521D01*
X79120Y-60432D01*
X79164Y-60334D01*
X79188Y-60229D01*
X79190Y-60106D01*
X79169Y-60000D01*
X79127Y-59900D01*
X79068Y-59810D01*
X79038Y-59780D01*
X79060Y-59768D01*
X79062Y-59767D01*
X79063Y-59766D01*
X79090Y-59745D01*
X79116Y-59723D01*
X79119Y-59721D01*
X79119Y-59721D01*
X79119Y-59721D01*
X79120Y-59720D01*
X79421Y-59419D01*
X79418Y-59425D01*
X79401Y-59454D01*
X79401Y-59456D01*
X79400Y-59458D01*
X79390Y-59491D01*
X79379Y-59523D01*
X79379Y-59525D01*
X79379Y-59527D01*
X79375Y-59561D01*
X79371Y-59594D01*
X79371Y-59598D01*
X79371Y-59598D01*
X79371Y-59598D01*
X79371Y-59600D01*
X79371Y-59750D01*
X79316Y-59804D01*
X79255Y-59893D01*
X79213Y-59992D01*
X79190Y-60098D01*
X79189Y-60206D01*
X79208Y-60312D01*
X79248Y-60412D01*
X79306Y-60503D01*
X79381Y-60580D01*
X79470Y-60642D01*
X79569Y-60685D01*
X79674Y-60708D01*
X79782Y-60711D01*
X79888Y-60692D01*
X79989Y-60653D01*
X80080Y-60595D01*
X80158Y-60521D01*
X80220Y-60432D01*
X80264Y-60334D01*
X80265Y-60329D01*
X80298Y-60412D01*
X80356Y-60503D01*
X80431Y-60580D01*
X80520Y-60642D01*
X80619Y-60685D01*
X80724Y-60708D01*
X80832Y-60711D01*
X80938Y-60692D01*
X81039Y-60653D01*
X81130Y-60595D01*
X81208Y-60521D01*
X81270Y-60432D01*
X81314Y-60334D01*
X81338Y-60229D01*
X81339Y-60115D01*
X81339Y-60484D01*
X81349Y-60532D01*
X81368Y-60577D01*
X81389Y-60610D01*
X81389Y-60610D01*
G37*
G54D24*
X81389Y-60610D02*
X81289Y-60609D01*
X81183Y-60629D01*
X81083Y-60670D01*
X80993Y-60729D01*
X80916Y-60804D01*
X80855Y-60893D01*
X80813Y-60992D01*
X80790Y-61098D01*
X80789Y-61206D01*
X80808Y-61312D01*
X80848Y-61412D01*
X80886Y-61471D01*
X80693Y-61471D01*
X80720Y-61432D01*
X80764Y-61334D01*
X80788Y-61229D01*
X80790Y-61106D01*
X80769Y-61000D01*
X80727Y-60900D01*
X80668Y-60810D01*
X80592Y-60734D01*
X80502Y-60673D01*
X80403Y-60632D01*
X80297Y-60610D01*
X80189Y-60609D01*
X80083Y-60629D01*
X79983Y-60670D01*
X79893Y-60729D01*
X79816Y-60804D01*
X79755Y-60893D01*
X79714Y-60989D01*
X79677Y-60900D01*
X79618Y-60810D01*
X79542Y-60734D01*
X79452Y-60673D01*
X79353Y-60632D01*
X79247Y-60610D01*
X79139Y-60609D01*
X79033Y-60629D01*
X78933Y-60670D01*
X78843Y-60729D01*
X78766Y-60804D01*
X78705Y-60893D01*
X78663Y-60992D01*
X78640Y-61098D01*
X78639Y-61206D01*
X78658Y-61312D01*
X78698Y-61412D01*
X78736Y-61471D01*
X78543Y-61471D01*
X78570Y-61432D01*
X78614Y-61334D01*
X78638Y-61229D01*
X78640Y-61106D01*
X78619Y-61000D01*
X78577Y-60900D01*
X78518Y-60810D01*
X78442Y-60734D01*
X78352Y-60673D01*
X78253Y-60632D01*
X78147Y-60610D01*
X78039Y-60609D01*
X77933Y-60629D01*
X77833Y-60670D01*
X77743Y-60729D01*
X77666Y-60804D01*
X77605Y-60893D01*
X77563Y-60992D01*
X77550Y-61050D01*
X77248Y-60747D01*
X77248Y-60012D01*
X77432Y-59828D01*
X78200Y-59828D01*
X78155Y-59893D01*
X78113Y-59992D01*
X78090Y-60098D01*
X78089Y-60206D01*
X78108Y-60312D01*
X78148Y-60412D01*
X78206Y-60503D01*
X78281Y-60580D01*
X78370Y-60642D01*
X78469Y-60685D01*
X78574Y-60708D01*
X78682Y-60711D01*
X78788Y-60692D01*
X78889Y-60653D01*
X78980Y-60595D01*
X79058Y-60521D01*
X79120Y-60432D01*
X79164Y-60334D01*
X79188Y-60229D01*
X79190Y-60106D01*
X79169Y-60000D01*
X79127Y-59900D01*
X79068Y-59810D01*
X79038Y-59780D01*
X79060Y-59768D01*
X79062Y-59767D01*
X79063Y-59766D01*
X79090Y-59745D01*
X79116Y-59723D01*
X79119Y-59721D01*
X79119Y-59721D01*
X79119Y-59721D01*
X79120Y-59720D01*
X79421Y-59419D01*
X79418Y-59425D01*
X79401Y-59454D01*
X79401Y-59456D01*
X79400Y-59458D01*
X79390Y-59491D01*
X79379Y-59523D01*
X79379Y-59525D01*
X79379Y-59527D01*
X79375Y-59561D01*
X79371Y-59594D01*
X79371Y-59598D01*
X79371Y-59598D01*
X79371Y-59598D01*
X79371Y-59600D01*
X79371Y-59750D01*
X79316Y-59804D01*
X79255Y-59893D01*
X79213Y-59992D01*
X79190Y-60098D01*
X79189Y-60206D01*
X79208Y-60312D01*
X79248Y-60412D01*
X79306Y-60503D01*
X79381Y-60580D01*
X79470Y-60642D01*
X79569Y-60685D01*
X79674Y-60708D01*
X79782Y-60711D01*
X79888Y-60692D01*
X79989Y-60653D01*
X80080Y-60595D01*
X80158Y-60521D01*
X80220Y-60432D01*
X80264Y-60334D01*
X80265Y-60329D01*
X80298Y-60412D01*
X80356Y-60503D01*
X80431Y-60580D01*
X80520Y-60642D01*
X80619Y-60685D01*
X80724Y-60708D01*
X80832Y-60711D01*
X80938Y-60692D01*
X81039Y-60653D01*
X81130Y-60595D01*
X81208Y-60521D01*
X81270Y-60432D01*
X81314Y-60334D01*
X81338Y-60229D01*
X81339Y-60115D01*
X81339Y-60484D01*
X81349Y-60532D01*
X81368Y-60577D01*
X81389Y-60610D01*
G54D10*
G36*
X83933Y-45925D02*
X83904Y-45913D01*
X83811Y-45894D01*
X83715Y-45893D01*
X83622Y-45911D01*
X83567Y-45933D01*
X82420Y-45933D01*
X80965Y-45933D01*
X80895Y-45864D01*
X80864Y-45837D01*
X80832Y-45811D01*
X80830Y-45810D01*
X80828Y-45808D01*
X80792Y-45789D01*
X80756Y-45769D01*
X80753Y-45768D01*
X80751Y-45767D01*
X80712Y-45755D01*
X80672Y-45742D01*
X80670Y-45742D01*
X80668Y-45741D01*
X80627Y-45737D01*
X80586Y-45733D01*
X80581Y-45733D01*
X80581Y-45733D01*
X80581Y-45733D01*
X80580Y-45733D01*
X80560Y-45733D01*
X80440Y-45733D01*
X78665Y-45733D01*
X78606Y-45674D01*
X78606Y-45520D01*
X78606Y-44420D01*
X78602Y-44378D01*
X78599Y-44337D01*
X78598Y-44335D01*
X78598Y-44333D01*
X78586Y-44293D01*
X78574Y-44254D01*
X78573Y-44251D01*
X78573Y-44249D01*
X78553Y-44213D01*
X78534Y-44176D01*
X78533Y-44174D01*
X78532Y-44172D01*
X78506Y-44140D01*
X78480Y-44108D01*
X78477Y-44105D01*
X78477Y-44105D01*
X78477Y-44105D01*
X78475Y-44104D01*
X77695Y-43324D01*
X77664Y-43297D01*
X77632Y-43271D01*
X77630Y-43270D01*
X77628Y-43268D01*
X77592Y-43249D01*
X77556Y-43229D01*
X77553Y-43228D01*
X77551Y-43227D01*
X77512Y-43215D01*
X77485Y-43206D01*
X78314Y-43206D01*
X79924Y-44815D01*
X79955Y-44842D01*
X79987Y-44868D01*
X79989Y-44869D01*
X79991Y-44871D01*
X80027Y-44890D01*
X80063Y-44910D01*
X80066Y-44911D01*
X80068Y-44912D01*
X80107Y-44924D01*
X80147Y-44937D01*
X80149Y-44937D01*
X80151Y-44938D01*
X80192Y-44942D01*
X80233Y-44946D01*
X80238Y-44946D01*
X80238Y-44946D01*
X80238Y-44946D01*
X80240Y-44946D01*
X80820Y-44946D01*
X80861Y-44942D01*
X80902Y-44939D01*
X80904Y-44938D01*
X80906Y-44938D01*
X80946Y-44926D01*
X80985Y-44914D01*
X80988Y-44913D01*
X80990Y-44913D01*
X81026Y-44893D01*
X81063Y-44874D01*
X81065Y-44873D01*
X81067Y-44872D01*
X81099Y-44846D01*
X81131Y-44820D01*
X81134Y-44817D01*
X81134Y-44817D01*
X81134Y-44817D01*
X81135Y-44815D01*
X82085Y-43865D01*
X82565Y-43386D01*
X83454Y-43386D01*
X83933Y-43865D01*
X83933Y-45925D01*
X83933Y-45925D01*
G37*
G54D24*
X83933Y-45925D02*
X83904Y-45913D01*
X83811Y-45894D01*
X83715Y-45893D01*
X83622Y-45911D01*
X83567Y-45933D01*
X82420Y-45933D01*
X80965Y-45933D01*
X80895Y-45864D01*
X80864Y-45837D01*
X80832Y-45811D01*
X80830Y-45810D01*
X80828Y-45808D01*
X80792Y-45789D01*
X80756Y-45769D01*
X80753Y-45768D01*
X80751Y-45767D01*
X80712Y-45755D01*
X80672Y-45742D01*
X80670Y-45742D01*
X80668Y-45741D01*
X80627Y-45737D01*
X80586Y-45733D01*
X80581Y-45733D01*
X80581Y-45733D01*
X80581Y-45733D01*
X80580Y-45733D01*
X80560Y-45733D01*
X80440Y-45733D01*
X78665Y-45733D01*
X78606Y-45674D01*
X78606Y-45520D01*
X78606Y-44420D01*
X78602Y-44378D01*
X78599Y-44337D01*
X78598Y-44335D01*
X78598Y-44333D01*
X78586Y-44293D01*
X78574Y-44254D01*
X78573Y-44251D01*
X78573Y-44249D01*
X78553Y-44213D01*
X78534Y-44176D01*
X78533Y-44174D01*
X78532Y-44172D01*
X78506Y-44140D01*
X78480Y-44108D01*
X78477Y-44105D01*
X78477Y-44105D01*
X78477Y-44105D01*
X78475Y-44104D01*
X77695Y-43324D01*
X77664Y-43297D01*
X77632Y-43271D01*
X77630Y-43270D01*
X77628Y-43268D01*
X77592Y-43249D01*
X77556Y-43229D01*
X77553Y-43228D01*
X77551Y-43227D01*
X77512Y-43215D01*
X77485Y-43206D01*
X78314Y-43206D01*
X79924Y-44815D01*
X79955Y-44842D01*
X79987Y-44868D01*
X79989Y-44869D01*
X79991Y-44871D01*
X80027Y-44890D01*
X80063Y-44910D01*
X80066Y-44911D01*
X80068Y-44912D01*
X80107Y-44924D01*
X80147Y-44937D01*
X80149Y-44937D01*
X80151Y-44938D01*
X80192Y-44942D01*
X80233Y-44946D01*
X80238Y-44946D01*
X80238Y-44946D01*
X80238Y-44946D01*
X80240Y-44946D01*
X80820Y-44946D01*
X80861Y-44942D01*
X80902Y-44939D01*
X80904Y-44938D01*
X80906Y-44938D01*
X80946Y-44926D01*
X80985Y-44914D01*
X80988Y-44913D01*
X80990Y-44913D01*
X81026Y-44893D01*
X81063Y-44874D01*
X81065Y-44873D01*
X81067Y-44872D01*
X81099Y-44846D01*
X81131Y-44820D01*
X81134Y-44817D01*
X81134Y-44817D01*
X81134Y-44817D01*
X81135Y-44815D01*
X82085Y-43865D01*
X82565Y-43386D01*
X83454Y-43386D01*
X83933Y-43865D01*
X83933Y-45925D01*
G54D10*
G36*
X94061Y-63509D02*
X92788Y-63509D01*
X92788Y-55780D01*
X92788Y-54320D01*
X92788Y-44260D01*
X92785Y-44229D01*
X92783Y-44199D01*
X92782Y-44197D01*
X92782Y-44196D01*
X92773Y-44167D01*
X92765Y-44137D01*
X92764Y-44136D01*
X92763Y-44134D01*
X92749Y-44107D01*
X92735Y-44080D01*
X92734Y-44079D01*
X92733Y-44078D01*
X92714Y-44054D01*
X92695Y-44030D01*
X92693Y-44028D01*
X92693Y-44028D01*
X92693Y-44028D01*
X92692Y-44027D01*
X92532Y-43867D01*
X92508Y-43848D01*
X92485Y-43828D01*
X92484Y-43827D01*
X92482Y-43826D01*
X92456Y-43812D01*
X92429Y-43797D01*
X92427Y-43797D01*
X92426Y-43796D01*
X92397Y-43787D01*
X92368Y-43778D01*
X92366Y-43778D01*
X92364Y-43777D01*
X92359Y-43777D01*
X92362Y-43768D01*
X92386Y-43663D01*
X92388Y-43540D01*
X92367Y-43434D01*
X92326Y-43335D01*
X92266Y-43245D01*
X92190Y-43168D01*
X92101Y-43108D01*
X92069Y-43094D01*
X92087Y-43087D01*
X92178Y-43029D01*
X92256Y-42955D01*
X92319Y-42867D01*
X92362Y-42768D01*
X92386Y-42663D01*
X92388Y-42540D01*
X92367Y-42434D01*
X92326Y-42335D01*
X92266Y-42245D01*
X92190Y-42168D01*
X92101Y-42108D01*
X92069Y-42094D01*
X92087Y-42087D01*
X92178Y-42029D01*
X92256Y-41955D01*
X92319Y-41867D01*
X92362Y-41768D01*
X92386Y-41663D01*
X92388Y-41540D01*
X92367Y-41434D01*
X92326Y-41335D01*
X92266Y-41245D01*
X92190Y-41168D01*
X92101Y-41108D01*
X92069Y-41094D01*
X92087Y-41087D01*
X92178Y-41029D01*
X92256Y-40955D01*
X92319Y-40867D01*
X92362Y-40768D01*
X92386Y-40663D01*
X92388Y-40540D01*
X92367Y-40434D01*
X92326Y-40335D01*
X92266Y-40245D01*
X92190Y-40168D01*
X92101Y-40108D01*
X92069Y-40094D01*
X92087Y-40087D01*
X92178Y-40029D01*
X92256Y-39955D01*
X92319Y-39867D01*
X92362Y-39768D01*
X92386Y-39663D01*
X92388Y-39540D01*
X92367Y-39434D01*
X92326Y-39335D01*
X92266Y-39245D01*
X92190Y-39168D01*
X92101Y-39108D01*
X92069Y-39094D01*
X92087Y-39087D01*
X92178Y-39029D01*
X92256Y-38955D01*
X92319Y-38867D01*
X92362Y-38768D01*
X92386Y-38663D01*
X92388Y-38540D01*
X92367Y-38434D01*
X92326Y-38335D01*
X92266Y-38245D01*
X92190Y-38168D01*
X92101Y-38108D01*
X92069Y-38094D01*
X92087Y-38087D01*
X92178Y-38029D01*
X92256Y-37955D01*
X92319Y-37867D01*
X92362Y-37768D01*
X92386Y-37663D01*
X92388Y-37540D01*
X92367Y-37434D01*
X92326Y-37335D01*
X92266Y-37245D01*
X92190Y-37168D01*
X92101Y-37108D01*
X92069Y-37094D01*
X92087Y-37087D01*
X92178Y-37029D01*
X92256Y-36955D01*
X92319Y-36867D01*
X92362Y-36768D01*
X92386Y-36663D01*
X92388Y-36540D01*
X92367Y-36434D01*
X92326Y-36335D01*
X92266Y-36245D01*
X92190Y-36168D01*
X92101Y-36108D01*
X92069Y-36094D01*
X92087Y-36087D01*
X92178Y-36029D01*
X92256Y-35955D01*
X92319Y-35867D01*
X92362Y-35768D01*
X92386Y-35663D01*
X92388Y-35540D01*
X92367Y-35434D01*
X92326Y-35335D01*
X92266Y-35245D01*
X92190Y-35168D01*
X92101Y-35108D01*
X92002Y-35066D01*
X91896Y-35044D01*
X91788Y-35044D01*
X91682Y-35064D01*
X91582Y-35104D01*
X91492Y-35163D01*
X91415Y-35239D01*
X91354Y-35328D01*
X91338Y-35364D01*
X91326Y-35335D01*
X91266Y-35245D01*
X91190Y-35168D01*
X91101Y-35108D01*
X91002Y-35066D01*
X90896Y-35044D01*
X90788Y-35044D01*
X90682Y-35064D01*
X90582Y-35104D01*
X90492Y-35163D01*
X90415Y-35239D01*
X90354Y-35328D01*
X90311Y-35427D01*
X90289Y-35532D01*
X90287Y-35640D01*
X90307Y-35746D01*
X90347Y-35847D01*
X90405Y-35937D01*
X90480Y-36015D01*
X90568Y-36076D01*
X90667Y-36120D01*
X90773Y-36143D01*
X90880Y-36145D01*
X90987Y-36126D01*
X91087Y-36087D01*
X91178Y-36029D01*
X91256Y-35955D01*
X91319Y-35867D01*
X91338Y-35824D01*
X91347Y-35847D01*
X91405Y-35937D01*
X91480Y-36015D01*
X91568Y-36076D01*
X91608Y-36094D01*
X91582Y-36104D01*
X91492Y-36163D01*
X91415Y-36239D01*
X91354Y-36328D01*
X91311Y-36427D01*
X91289Y-36532D01*
X91287Y-36640D01*
X91307Y-36746D01*
X91347Y-36847D01*
X91405Y-36937D01*
X91480Y-37015D01*
X91568Y-37076D01*
X91608Y-37094D01*
X91582Y-37104D01*
X91492Y-37163D01*
X91415Y-37239D01*
X91354Y-37328D01*
X91338Y-37364D01*
X91326Y-37335D01*
X91266Y-37245D01*
X91190Y-37168D01*
X91101Y-37108D01*
X91002Y-37066D01*
X90896Y-37044D01*
X90788Y-37044D01*
X90682Y-37064D01*
X90582Y-37104D01*
X90492Y-37163D01*
X90415Y-37239D01*
X90354Y-37328D01*
X90311Y-37427D01*
X90289Y-37532D01*
X90287Y-37640D01*
X90307Y-37746D01*
X90347Y-37847D01*
X90405Y-37937D01*
X90480Y-38015D01*
X90568Y-38076D01*
X90608Y-38094D01*
X90582Y-38104D01*
X90492Y-38163D01*
X90415Y-38239D01*
X90354Y-38328D01*
X90311Y-38427D01*
X90289Y-38532D01*
X90287Y-38640D01*
X90307Y-38746D01*
X90347Y-38847D01*
X90405Y-38937D01*
X90480Y-39015D01*
X90568Y-39076D01*
X90608Y-39094D01*
X90582Y-39104D01*
X90492Y-39163D01*
X90415Y-39239D01*
X90354Y-39328D01*
X90311Y-39427D01*
X90289Y-39532D01*
X90287Y-39640D01*
X90307Y-39746D01*
X90347Y-39847D01*
X90405Y-39937D01*
X90480Y-40015D01*
X90568Y-40076D01*
X90608Y-40094D01*
X90582Y-40104D01*
X90492Y-40163D01*
X90415Y-40239D01*
X90354Y-40328D01*
X90311Y-40427D01*
X90289Y-40532D01*
X90287Y-40640D01*
X90307Y-40746D01*
X90347Y-40847D01*
X90405Y-40937D01*
X90480Y-41015D01*
X90568Y-41076D01*
X90608Y-41094D01*
X90582Y-41104D01*
X90492Y-41163D01*
X90415Y-41239D01*
X90354Y-41328D01*
X90311Y-41427D01*
X90289Y-41532D01*
X90287Y-41640D01*
X90307Y-41746D01*
X90347Y-41847D01*
X90405Y-41937D01*
X90480Y-42015D01*
X90568Y-42076D01*
X90608Y-42094D01*
X90582Y-42104D01*
X90492Y-42163D01*
X90415Y-42239D01*
X90354Y-42328D01*
X90311Y-42427D01*
X90289Y-42532D01*
X90287Y-42640D01*
X90307Y-42746D01*
X90347Y-42847D01*
X90405Y-42937D01*
X90480Y-43015D01*
X90568Y-43076D01*
X90608Y-43094D01*
X90582Y-43104D01*
X90492Y-43163D01*
X90415Y-43239D01*
X90354Y-43328D01*
X90311Y-43427D01*
X90289Y-43532D01*
X90287Y-43640D01*
X90307Y-43746D01*
X90347Y-43847D01*
X90405Y-43937D01*
X90480Y-44015D01*
X90568Y-44076D01*
X90608Y-44094D01*
X90582Y-44104D01*
X90492Y-44163D01*
X90415Y-44239D01*
X90354Y-44328D01*
X90311Y-44427D01*
X90289Y-44532D01*
X90287Y-44640D01*
X90307Y-44746D01*
X90347Y-44847D01*
X90405Y-44937D01*
X90480Y-45015D01*
X90568Y-45076D01*
X90667Y-45120D01*
X90773Y-45143D01*
X90880Y-45145D01*
X90987Y-45126D01*
X91087Y-45087D01*
X91178Y-45029D01*
X91256Y-44955D01*
X91319Y-44867D01*
X91338Y-44824D01*
X91347Y-44847D01*
X91405Y-44937D01*
X91480Y-45015D01*
X91568Y-45076D01*
X91608Y-45094D01*
X91582Y-45104D01*
X91492Y-45163D01*
X91415Y-45239D01*
X91354Y-45328D01*
X91311Y-45427D01*
X91289Y-45532D01*
X91287Y-45640D01*
X91307Y-45746D01*
X91347Y-45847D01*
X91405Y-45937D01*
X91480Y-46015D01*
X91568Y-46076D01*
X91608Y-46094D01*
X91582Y-46104D01*
X91492Y-46163D01*
X91415Y-46239D01*
X91354Y-46328D01*
X91338Y-46364D01*
X91326Y-46335D01*
X91266Y-46245D01*
X91190Y-46168D01*
X91101Y-46108D01*
X91002Y-46066D01*
X90896Y-46044D01*
X90788Y-46044D01*
X90682Y-46064D01*
X90582Y-46104D01*
X90492Y-46163D01*
X90415Y-46239D01*
X90354Y-46328D01*
X90311Y-46427D01*
X90289Y-46532D01*
X90287Y-46640D01*
X90307Y-46746D01*
X90347Y-46847D01*
X90405Y-46937D01*
X90480Y-47015D01*
X90568Y-47076D01*
X90608Y-47094D01*
X90582Y-47104D01*
X90492Y-47163D01*
X90415Y-47239D01*
X90354Y-47328D01*
X90311Y-47427D01*
X90289Y-47532D01*
X90287Y-47640D01*
X90307Y-47746D01*
X90347Y-47847D01*
X90405Y-47937D01*
X90480Y-48015D01*
X90568Y-48076D01*
X90608Y-48094D01*
X90582Y-48104D01*
X90492Y-48163D01*
X90415Y-48239D01*
X90354Y-48328D01*
X90311Y-48427D01*
X90289Y-48532D01*
X90287Y-48640D01*
X90307Y-48746D01*
X90347Y-48847D01*
X90405Y-48937D01*
X90480Y-49015D01*
X90568Y-49076D01*
X90608Y-49094D01*
X90582Y-49104D01*
X90492Y-49163D01*
X90415Y-49239D01*
X90354Y-49328D01*
X90311Y-49427D01*
X90289Y-49532D01*
X90287Y-49640D01*
X90307Y-49746D01*
X90347Y-49847D01*
X90405Y-49937D01*
X90480Y-50015D01*
X90568Y-50076D01*
X90608Y-50094D01*
X90582Y-50104D01*
X90492Y-50163D01*
X90415Y-50239D01*
X90354Y-50328D01*
X90311Y-50427D01*
X90289Y-50532D01*
X90287Y-50640D01*
X90307Y-50746D01*
X90347Y-50847D01*
X90405Y-50937D01*
X90480Y-51015D01*
X90568Y-51076D01*
X90608Y-51094D01*
X90582Y-51104D01*
X90492Y-51163D01*
X90415Y-51239D01*
X90354Y-51328D01*
X90311Y-51427D01*
X90289Y-51532D01*
X90287Y-51640D01*
X90307Y-51746D01*
X90347Y-51847D01*
X90405Y-51937D01*
X90480Y-52015D01*
X90568Y-52076D01*
X90608Y-52094D01*
X90582Y-52104D01*
X90492Y-52163D01*
X90415Y-52239D01*
X90354Y-52328D01*
X90311Y-52427D01*
X90289Y-52532D01*
X90287Y-52640D01*
X90307Y-52746D01*
X90347Y-52847D01*
X90405Y-52937D01*
X90480Y-53015D01*
X90568Y-53076D01*
X90608Y-53094D01*
X90582Y-53104D01*
X90492Y-53163D01*
X90415Y-53239D01*
X90354Y-53328D01*
X90311Y-53427D01*
X90289Y-53532D01*
X90287Y-53640D01*
X90307Y-53746D01*
X90347Y-53847D01*
X90405Y-53937D01*
X90480Y-54015D01*
X90568Y-54076D01*
X90608Y-54094D01*
X90582Y-54104D01*
X90492Y-54163D01*
X90415Y-54239D01*
X90354Y-54328D01*
X90311Y-54427D01*
X90289Y-54532D01*
X90287Y-54640D01*
X90307Y-54746D01*
X90347Y-54847D01*
X90405Y-54937D01*
X90480Y-55015D01*
X90568Y-55076D01*
X90608Y-55094D01*
X90582Y-55104D01*
X90492Y-55163D01*
X90415Y-55239D01*
X90354Y-55328D01*
X90311Y-55427D01*
X90289Y-55532D01*
X90287Y-55640D01*
X90307Y-55746D01*
X90317Y-55771D01*
X90260Y-55771D01*
X90040Y-55771D01*
X90030Y-55771D01*
X90030Y-45147D01*
X90030Y-44545D01*
X90020Y-44497D01*
X90001Y-44452D01*
X89974Y-44411D01*
X89940Y-44376D01*
X89899Y-44349D01*
X89854Y-44330D01*
X89826Y-44324D01*
X89826Y-43480D01*
X89822Y-43438D01*
X89819Y-43397D01*
X89818Y-43395D01*
X89818Y-43393D01*
X89806Y-43353D01*
X89794Y-43314D01*
X89793Y-43311D01*
X89793Y-43309D01*
X89773Y-43273D01*
X89754Y-43236D01*
X89753Y-43234D01*
X89752Y-43232D01*
X89726Y-43200D01*
X89700Y-43168D01*
X89697Y-43165D01*
X89697Y-43165D01*
X89697Y-43165D01*
X89695Y-43164D01*
X89155Y-42624D01*
X89124Y-42597D01*
X89092Y-42571D01*
X89090Y-42570D01*
X89088Y-42568D01*
X89052Y-42549D01*
X89016Y-42529D01*
X89013Y-42528D01*
X89011Y-42527D01*
X88972Y-42515D01*
X88932Y-42502D01*
X88930Y-42502D01*
X88928Y-42501D01*
X88887Y-42497D01*
X88846Y-42493D01*
X88841Y-42493D01*
X88841Y-42493D01*
X88841Y-42493D01*
X88840Y-42493D01*
X88642Y-42493D01*
X88642Y-41161D01*
X88642Y-39161D01*
X88642Y-36436D01*
X88642Y-34436D01*
X88633Y-34330D01*
X88603Y-34228D01*
X88553Y-34133D01*
X88486Y-34050D01*
X88405Y-33982D01*
X88311Y-33930D01*
X88209Y-33898D01*
X88103Y-33886D01*
X88096Y-33886D01*
X87494Y-33886D01*
X87388Y-33896D01*
X87285Y-33927D01*
X87191Y-33977D01*
X87109Y-34045D01*
X87041Y-34127D01*
X86990Y-34221D01*
X86958Y-34323D01*
X86947Y-34429D01*
X86957Y-34535D01*
X86987Y-34637D01*
X87036Y-34732D01*
X87103Y-34815D01*
X87185Y-34883D01*
X87278Y-34935D01*
X87380Y-34967D01*
X87486Y-34979D01*
X87494Y-34979D01*
X88096Y-34979D01*
X88202Y-34969D01*
X88304Y-34938D01*
X88398Y-34888D01*
X88481Y-34820D01*
X88549Y-34738D01*
X88600Y-34644D01*
X88631Y-34542D01*
X88642Y-34436D01*
X88642Y-36436D01*
X88633Y-36330D01*
X88603Y-36228D01*
X88553Y-36133D01*
X88486Y-36050D01*
X88405Y-35982D01*
X88311Y-35930D01*
X88209Y-35898D01*
X88103Y-35886D01*
X88096Y-35886D01*
X87494Y-35886D01*
X87388Y-35896D01*
X87285Y-35927D01*
X87191Y-35977D01*
X87109Y-36045D01*
X87041Y-36127D01*
X86990Y-36221D01*
X86958Y-36323D01*
X86947Y-36429D01*
X86957Y-36535D01*
X86987Y-36637D01*
X87036Y-36732D01*
X87103Y-36815D01*
X87185Y-36883D01*
X87278Y-36935D01*
X87380Y-36967D01*
X87486Y-36979D01*
X87494Y-36979D01*
X88096Y-36979D01*
X88202Y-36969D01*
X88304Y-36938D01*
X88398Y-36888D01*
X88481Y-36820D01*
X88549Y-36738D01*
X88600Y-36644D01*
X88631Y-36542D01*
X88642Y-36436D01*
X88642Y-39161D01*
X88633Y-39055D01*
X88603Y-38952D01*
X88553Y-38858D01*
X88486Y-38775D01*
X88405Y-38706D01*
X88311Y-38655D01*
X88209Y-38622D01*
X88103Y-38611D01*
X88096Y-38610D01*
X87494Y-38610D01*
X87388Y-38621D01*
X87285Y-38652D01*
X87191Y-38702D01*
X87109Y-38769D01*
X87041Y-38851D01*
X86990Y-38945D01*
X86958Y-39047D01*
X86947Y-39153D01*
X86957Y-39259D01*
X86987Y-39362D01*
X87036Y-39456D01*
X87103Y-39539D01*
X87185Y-39608D01*
X87278Y-39659D01*
X87380Y-39692D01*
X87486Y-39703D01*
X87494Y-39703D01*
X88096Y-39703D01*
X88202Y-39693D01*
X88304Y-39662D01*
X88398Y-39612D01*
X88481Y-39545D01*
X88549Y-39463D01*
X88600Y-39369D01*
X88631Y-39267D01*
X88642Y-39161D01*
X88642Y-41161D01*
X88633Y-41055D01*
X88603Y-40952D01*
X88553Y-40858D01*
X88486Y-40775D01*
X88405Y-40706D01*
X88311Y-40655D01*
X88209Y-40622D01*
X88103Y-40611D01*
X88096Y-40610D01*
X87494Y-40610D01*
X87388Y-40621D01*
X87285Y-40652D01*
X87191Y-40702D01*
X87109Y-40769D01*
X87041Y-40851D01*
X86990Y-40945D01*
X86958Y-41047D01*
X86947Y-41153D01*
X86957Y-41259D01*
X86987Y-41362D01*
X87036Y-41456D01*
X87103Y-41539D01*
X87185Y-41608D01*
X87278Y-41659D01*
X87380Y-41692D01*
X87486Y-41703D01*
X87494Y-41703D01*
X88096Y-41703D01*
X88202Y-41693D01*
X88304Y-41662D01*
X88398Y-41612D01*
X88481Y-41545D01*
X88549Y-41463D01*
X88600Y-41369D01*
X88631Y-41267D01*
X88642Y-41161D01*
X88642Y-42493D01*
X83640Y-42493D01*
X82380Y-42493D01*
X82348Y-42496D01*
X82912Y-41932D01*
X82931Y-41908D01*
X82951Y-41885D01*
X82952Y-41884D01*
X82953Y-41882D01*
X82967Y-41856D01*
X82982Y-41829D01*
X82982Y-41827D01*
X82983Y-41826D01*
X82992Y-41797D01*
X83001Y-41768D01*
X83001Y-41766D01*
X83002Y-41764D01*
X83005Y-41734D01*
X83008Y-41704D01*
X83008Y-41701D01*
X83008Y-41701D01*
X83008Y-41701D01*
X83008Y-41700D01*
X83008Y-38898D01*
X83049Y-38859D01*
X83104Y-38781D01*
X83143Y-38694D01*
X83164Y-38601D01*
X83166Y-38492D01*
X83147Y-38398D01*
X83111Y-38310D01*
X83058Y-38231D01*
X82991Y-38163D01*
X82912Y-38110D01*
X82824Y-38073D01*
X82731Y-38054D01*
X82635Y-38053D01*
X82542Y-38071D01*
X82453Y-38107D01*
X82373Y-38159D01*
X82305Y-38225D01*
X82251Y-38304D01*
X82214Y-38392D01*
X82194Y-38485D01*
X82193Y-38580D01*
X82210Y-38674D01*
X82245Y-38763D01*
X82297Y-38843D01*
X82351Y-38899D01*
X82351Y-41563D01*
X82098Y-41816D01*
X82098Y-38286D01*
X83032Y-37352D01*
X83051Y-37328D01*
X83071Y-37305D01*
X83072Y-37304D01*
X83073Y-37302D01*
X83087Y-37276D01*
X83102Y-37249D01*
X83102Y-37247D01*
X83103Y-37246D01*
X83112Y-37217D01*
X83121Y-37188D01*
X83121Y-37186D01*
X83122Y-37184D01*
X83125Y-37154D01*
X83128Y-37124D01*
X83128Y-37121D01*
X83128Y-37121D01*
X83128Y-37121D01*
X83128Y-37120D01*
X83128Y-36878D01*
X83169Y-36839D01*
X83224Y-36761D01*
X83263Y-36674D01*
X83284Y-36581D01*
X83286Y-36472D01*
X83267Y-36378D01*
X83231Y-36290D01*
X83178Y-36211D01*
X83111Y-36143D01*
X83032Y-36090D01*
X82944Y-36053D01*
X82851Y-36034D01*
X82755Y-36033D01*
X82662Y-36051D01*
X82573Y-36087D01*
X82493Y-36139D01*
X82425Y-36205D01*
X82371Y-36284D01*
X82334Y-36372D01*
X82314Y-36465D01*
X82313Y-36560D01*
X82328Y-36646D01*
X82318Y-36631D01*
X82251Y-36563D01*
X82172Y-36510D01*
X82084Y-36473D01*
X81991Y-36454D01*
X81895Y-36453D01*
X81802Y-36471D01*
X81713Y-36507D01*
X81633Y-36559D01*
X81576Y-36615D01*
X81559Y-36616D01*
X81557Y-36617D01*
X81556Y-36617D01*
X81527Y-36626D01*
X81497Y-36634D01*
X81496Y-36635D01*
X81494Y-36636D01*
X81467Y-36650D01*
X81440Y-36664D01*
X81439Y-36665D01*
X81438Y-36666D01*
X81414Y-36685D01*
X81390Y-36704D01*
X81388Y-36706D01*
X81388Y-36706D01*
X81388Y-36706D01*
X81387Y-36707D01*
X80447Y-37647D01*
X80428Y-37671D01*
X80408Y-37694D01*
X80407Y-37695D01*
X80406Y-37697D01*
X80392Y-37723D01*
X80377Y-37750D01*
X80377Y-37752D01*
X80376Y-37753D01*
X80367Y-37782D01*
X80358Y-37811D01*
X80358Y-37813D01*
X80357Y-37815D01*
X80354Y-37845D01*
X80351Y-37875D01*
X80351Y-37878D01*
X80351Y-37878D01*
X80351Y-37878D01*
X80351Y-37880D01*
X80351Y-41903D01*
X80341Y-41913D01*
X80275Y-41913D01*
X80182Y-41931D01*
X80093Y-41967D01*
X80013Y-42019D01*
X79945Y-42085D01*
X79891Y-42164D01*
X79854Y-42252D01*
X79834Y-42345D01*
X79833Y-42440D01*
X79850Y-42534D01*
X79885Y-42623D01*
X79937Y-42703D01*
X80003Y-42772D01*
X80081Y-42826D01*
X80142Y-42853D01*
X80134Y-42872D01*
X80114Y-42965D01*
X80113Y-43060D01*
X80130Y-43154D01*
X80165Y-43243D01*
X80217Y-43323D01*
X80283Y-43392D01*
X80293Y-43398D01*
X80285Y-43405D01*
X80231Y-43484D01*
X80194Y-43572D01*
X80174Y-43665D01*
X80173Y-43760D01*
X80182Y-43810D01*
X78815Y-42444D01*
X78784Y-42417D01*
X78752Y-42391D01*
X78750Y-42390D01*
X78748Y-42388D01*
X78712Y-42369D01*
X78676Y-42349D01*
X78673Y-42348D01*
X78671Y-42347D01*
X78632Y-42335D01*
X78592Y-42322D01*
X78590Y-42322D01*
X78588Y-42321D01*
X78547Y-42317D01*
X78521Y-42314D01*
X78544Y-42281D01*
X78583Y-42194D01*
X78604Y-42101D01*
X78606Y-41992D01*
X78587Y-41898D01*
X78551Y-41810D01*
X78498Y-41731D01*
X78431Y-41663D01*
X78352Y-41610D01*
X78264Y-41573D01*
X78171Y-41554D01*
X78075Y-41553D01*
X77982Y-41571D01*
X77927Y-41593D01*
X76217Y-41593D01*
X76276Y-41545D01*
X76344Y-41463D01*
X76395Y-41369D01*
X76426Y-41267D01*
X76438Y-41161D01*
X76428Y-41055D01*
X76398Y-40952D01*
X76348Y-40858D01*
X76282Y-40775D01*
X76200Y-40706D01*
X76106Y-40655D01*
X76005Y-40622D01*
X75899Y-40611D01*
X75891Y-40610D01*
X75289Y-40610D01*
X75183Y-40621D01*
X75081Y-40652D01*
X74987Y-40702D01*
X74904Y-40769D01*
X74836Y-40851D01*
X74826Y-40869D01*
X74826Y-39446D01*
X74832Y-39456D01*
X74899Y-39539D01*
X74980Y-39608D01*
X75074Y-39659D01*
X75175Y-39692D01*
X75281Y-39703D01*
X75289Y-39703D01*
X75891Y-39703D01*
X75997Y-39693D01*
X76099Y-39662D01*
X76194Y-39612D01*
X76276Y-39545D01*
X76344Y-39463D01*
X76395Y-39369D01*
X76426Y-39267D01*
X76438Y-39161D01*
X76428Y-39055D01*
X76398Y-38952D01*
X76348Y-38858D01*
X76282Y-38775D01*
X76200Y-38706D01*
X76106Y-38655D01*
X76005Y-38622D01*
X75899Y-38611D01*
X75891Y-38610D01*
X75289Y-38610D01*
X75183Y-38621D01*
X75081Y-38652D01*
X74987Y-38702D01*
X74904Y-38769D01*
X74836Y-38851D01*
X74826Y-38869D01*
X74826Y-36780D01*
X74822Y-36738D01*
X74820Y-36709D01*
X74832Y-36732D01*
X74899Y-36815D01*
X74980Y-36883D01*
X75074Y-36935D01*
X75175Y-36967D01*
X75281Y-36979D01*
X75289Y-36979D01*
X75891Y-36979D01*
X75997Y-36969D01*
X76099Y-36938D01*
X76194Y-36888D01*
X76276Y-36820D01*
X76344Y-36738D01*
X76395Y-36644D01*
X76426Y-36542D01*
X76438Y-36436D01*
X76438Y-34436D01*
X76428Y-34330D01*
X76398Y-34228D01*
X76348Y-34133D01*
X76282Y-34050D01*
X76200Y-33982D01*
X76106Y-33930D01*
X76005Y-33898D01*
X75899Y-33886D01*
X75891Y-33886D01*
X75289Y-33886D01*
X75183Y-33896D01*
X75081Y-33927D01*
X74987Y-33977D01*
X74904Y-34045D01*
X74836Y-34127D01*
X74785Y-34221D01*
X74754Y-34323D01*
X74742Y-34429D01*
X74752Y-34535D01*
X74782Y-34637D01*
X74832Y-34732D01*
X74899Y-34815D01*
X74980Y-34883D01*
X75074Y-34935D01*
X75175Y-34967D01*
X75281Y-34979D01*
X75289Y-34979D01*
X75891Y-34979D01*
X75997Y-34969D01*
X76099Y-34938D01*
X76194Y-34888D01*
X76276Y-34820D01*
X76344Y-34738D01*
X76395Y-34644D01*
X76426Y-34542D01*
X76438Y-34436D01*
X76438Y-36436D01*
X76428Y-36330D01*
X76398Y-36228D01*
X76348Y-36133D01*
X76282Y-36050D01*
X76200Y-35982D01*
X76106Y-35930D01*
X76005Y-35898D01*
X75899Y-35886D01*
X75891Y-35886D01*
X75289Y-35886D01*
X75183Y-35896D01*
X75081Y-35927D01*
X74987Y-35977D01*
X74904Y-36045D01*
X74836Y-36127D01*
X74785Y-36221D01*
X74754Y-36323D01*
X74742Y-36429D01*
X74752Y-36533D01*
X74752Y-36532D01*
X74726Y-36500D01*
X74700Y-36468D01*
X74697Y-36465D01*
X74697Y-36465D01*
X74697Y-36465D01*
X74695Y-36464D01*
X73510Y-35278D01*
X73478Y-35252D01*
X73446Y-35225D01*
X73444Y-35224D01*
X73443Y-35223D01*
X73406Y-35203D01*
X73370Y-35183D01*
X73368Y-35183D01*
X73366Y-35181D01*
X73326Y-35169D01*
X73287Y-35157D01*
X73285Y-35157D01*
X73282Y-35156D01*
X73241Y-35152D01*
X73200Y-35147D01*
X73196Y-35147D01*
X73196Y-35147D01*
X73195Y-35147D01*
X73194Y-35147D01*
X72159Y-35147D01*
X72101Y-35108D01*
X72002Y-35066D01*
X71896Y-35044D01*
X71788Y-35044D01*
X71682Y-35064D01*
X71582Y-35104D01*
X71516Y-35147D01*
X71159Y-35147D01*
X71101Y-35108D01*
X71002Y-35066D01*
X70896Y-35044D01*
X70788Y-35044D01*
X70682Y-35064D01*
X70582Y-35104D01*
X70492Y-35163D01*
X70415Y-35239D01*
X70354Y-35328D01*
X70311Y-35427D01*
X70289Y-35532D01*
X70287Y-35640D01*
X70307Y-35746D01*
X70347Y-35847D01*
X70405Y-35937D01*
X70480Y-36015D01*
X70568Y-36076D01*
X70608Y-36094D01*
X70582Y-36104D01*
X70492Y-36163D01*
X70415Y-36239D01*
X70354Y-36328D01*
X70311Y-36427D01*
X70289Y-36532D01*
X70287Y-36640D01*
X70307Y-36746D01*
X70347Y-36847D01*
X70405Y-36937D01*
X70480Y-37015D01*
X70568Y-37076D01*
X70608Y-37094D01*
X70582Y-37104D01*
X70492Y-37163D01*
X70415Y-37239D01*
X70354Y-37328D01*
X70311Y-37427D01*
X70289Y-37532D01*
X70287Y-37640D01*
X70307Y-37746D01*
X70347Y-37847D01*
X70405Y-37937D01*
X70480Y-38015D01*
X70568Y-38076D01*
X70608Y-38094D01*
X70582Y-38104D01*
X70492Y-38163D01*
X70415Y-38239D01*
X70354Y-38328D01*
X70311Y-38427D01*
X70289Y-38532D01*
X70287Y-38640D01*
X70307Y-38746D01*
X70347Y-38847D01*
X70405Y-38937D01*
X70480Y-39015D01*
X70568Y-39076D01*
X70608Y-39094D01*
X70582Y-39104D01*
X70492Y-39163D01*
X70415Y-39239D01*
X70354Y-39328D01*
X70311Y-39427D01*
X70289Y-39532D01*
X70287Y-39640D01*
X70307Y-39746D01*
X70347Y-39847D01*
X70405Y-39937D01*
X70480Y-40015D01*
X70568Y-40076D01*
X70608Y-40094D01*
X70582Y-40104D01*
X70492Y-40163D01*
X70415Y-40239D01*
X70354Y-40328D01*
X70311Y-40427D01*
X70289Y-40532D01*
X70287Y-40640D01*
X70307Y-40746D01*
X70347Y-40847D01*
X70405Y-40937D01*
X70480Y-41015D01*
X70568Y-41076D01*
X70608Y-41094D01*
X70582Y-41104D01*
X70492Y-41163D01*
X70415Y-41239D01*
X70354Y-41328D01*
X70311Y-41427D01*
X70289Y-41532D01*
X70287Y-41640D01*
X70307Y-41746D01*
X70347Y-41847D01*
X70405Y-41937D01*
X70480Y-42015D01*
X70568Y-42076D01*
X70608Y-42094D01*
X70582Y-42104D01*
X70492Y-42163D01*
X70415Y-42239D01*
X70354Y-42328D01*
X70311Y-42427D01*
X70289Y-42532D01*
X70287Y-42640D01*
X70307Y-42746D01*
X70347Y-42847D01*
X70405Y-42937D01*
X70480Y-43015D01*
X70568Y-43076D01*
X70608Y-43094D01*
X70582Y-43104D01*
X70492Y-43163D01*
X70415Y-43239D01*
X70354Y-43328D01*
X70311Y-43427D01*
X70289Y-43532D01*
X70287Y-43640D01*
X70307Y-43746D01*
X70347Y-43847D01*
X70405Y-43937D01*
X70480Y-44015D01*
X70568Y-44076D01*
X70608Y-44094D01*
X70582Y-44104D01*
X70492Y-44163D01*
X70415Y-44239D01*
X70354Y-44328D01*
X70311Y-44427D01*
X70289Y-44532D01*
X70287Y-44640D01*
X70307Y-44746D01*
X70347Y-44847D01*
X70405Y-44937D01*
X70480Y-45015D01*
X70568Y-45076D01*
X70608Y-45094D01*
X70582Y-45104D01*
X70492Y-45163D01*
X70415Y-45239D01*
X70354Y-45328D01*
X70311Y-45427D01*
X70289Y-45532D01*
X70287Y-45640D01*
X70307Y-45746D01*
X70347Y-45847D01*
X70405Y-45937D01*
X70480Y-46015D01*
X70568Y-46076D01*
X70608Y-46094D01*
X70582Y-46104D01*
X70492Y-46163D01*
X70415Y-46239D01*
X70354Y-46328D01*
X70311Y-46427D01*
X70289Y-46532D01*
X70287Y-46640D01*
X70307Y-46746D01*
X70347Y-46847D01*
X70405Y-46937D01*
X70480Y-47015D01*
X70568Y-47076D01*
X70608Y-47094D01*
X70582Y-47104D01*
X70492Y-47163D01*
X70415Y-47239D01*
X70354Y-47328D01*
X70311Y-47427D01*
X70289Y-47532D01*
X70287Y-47640D01*
X70307Y-47746D01*
X70347Y-47847D01*
X70405Y-47937D01*
X70480Y-48015D01*
X70568Y-48076D01*
X70608Y-48094D01*
X70582Y-48104D01*
X70492Y-48163D01*
X70415Y-48239D01*
X70354Y-48328D01*
X70311Y-48427D01*
X70289Y-48532D01*
X70287Y-48640D01*
X70307Y-48746D01*
X70347Y-48847D01*
X70405Y-48937D01*
X70480Y-49015D01*
X70568Y-49076D01*
X70608Y-49094D01*
X70582Y-49104D01*
X70492Y-49163D01*
X70415Y-49239D01*
X70354Y-49328D01*
X70311Y-49427D01*
X70289Y-49532D01*
X70287Y-49640D01*
X70307Y-49746D01*
X70347Y-49847D01*
X70405Y-49937D01*
X70480Y-50015D01*
X70568Y-50076D01*
X70608Y-50094D01*
X70582Y-50104D01*
X70492Y-50163D01*
X70415Y-50239D01*
X70354Y-50328D01*
X70311Y-50427D01*
X70289Y-50532D01*
X70287Y-50640D01*
X70307Y-50746D01*
X70347Y-50847D01*
X70405Y-50937D01*
X70480Y-51015D01*
X70568Y-51076D01*
X70608Y-51094D01*
X70582Y-51104D01*
X70492Y-51163D01*
X70415Y-51239D01*
X70354Y-51328D01*
X70311Y-51427D01*
X70289Y-51532D01*
X70287Y-51640D01*
X70307Y-51746D01*
X70347Y-51847D01*
X70405Y-51937D01*
X70480Y-52015D01*
X70568Y-52076D01*
X70608Y-52094D01*
X70582Y-52104D01*
X70492Y-52163D01*
X70415Y-52239D01*
X70354Y-52328D01*
X70311Y-52427D01*
X70289Y-52532D01*
X70287Y-52640D01*
X70307Y-52746D01*
X70347Y-52847D01*
X70405Y-52937D01*
X70480Y-53015D01*
X70568Y-53076D01*
X70608Y-53094D01*
X70582Y-53104D01*
X70492Y-53163D01*
X70415Y-53239D01*
X70354Y-53328D01*
X70311Y-53427D01*
X70289Y-53532D01*
X70287Y-53640D01*
X70307Y-53746D01*
X70347Y-53847D01*
X70405Y-53937D01*
X70480Y-54015D01*
X70568Y-54076D01*
X70608Y-54094D01*
X70582Y-54104D01*
X70492Y-54163D01*
X70415Y-54239D01*
X70354Y-54328D01*
X70311Y-54427D01*
X70289Y-54532D01*
X70287Y-54640D01*
X70307Y-54746D01*
X70347Y-54847D01*
X70405Y-54937D01*
X70480Y-55015D01*
X70568Y-55076D01*
X70608Y-55094D01*
X70582Y-55104D01*
X70492Y-55163D01*
X70415Y-55239D01*
X70354Y-55328D01*
X70311Y-55427D01*
X70289Y-55532D01*
X70287Y-55640D01*
X70307Y-55746D01*
X70347Y-55847D01*
X70405Y-55937D01*
X70480Y-56015D01*
X70568Y-56076D01*
X70608Y-56094D01*
X70582Y-56104D01*
X70492Y-56163D01*
X70415Y-56239D01*
X70354Y-56328D01*
X70311Y-56427D01*
X70289Y-56532D01*
X70287Y-56640D01*
X70307Y-56746D01*
X70347Y-56847D01*
X70405Y-56937D01*
X70480Y-57015D01*
X70568Y-57076D01*
X70608Y-57094D01*
X70582Y-57104D01*
X70492Y-57163D01*
X70415Y-57239D01*
X70354Y-57328D01*
X70311Y-57427D01*
X70289Y-57532D01*
X70287Y-57640D01*
X70293Y-57674D01*
X69807Y-58160D01*
X69788Y-58184D01*
X69768Y-58207D01*
X69767Y-58208D01*
X69766Y-58210D01*
X69752Y-58236D01*
X69737Y-58263D01*
X69737Y-58265D01*
X69736Y-58266D01*
X69727Y-58295D01*
X69718Y-58324D01*
X69718Y-58326D01*
X69717Y-58328D01*
X69714Y-58358D01*
X69711Y-58388D01*
X69711Y-58391D01*
X69711Y-58391D01*
X69711Y-58391D01*
X69711Y-58393D01*
X69711Y-58680D01*
X69711Y-59020D01*
X69714Y-59050D01*
X69716Y-59080D01*
X69717Y-59082D01*
X69717Y-59083D01*
X69726Y-59112D01*
X69734Y-59142D01*
X69735Y-59143D01*
X69736Y-59145D01*
X69750Y-59172D01*
X69764Y-59199D01*
X69765Y-59200D01*
X69766Y-59201D01*
X69785Y-59225D01*
X69804Y-59249D01*
X69806Y-59251D01*
X69806Y-59251D01*
X69806Y-59251D01*
X69807Y-59252D01*
X73407Y-62852D01*
X73431Y-62871D01*
X73454Y-62891D01*
X73455Y-62892D01*
X73457Y-62893D01*
X73483Y-62907D01*
X73510Y-62922D01*
X73512Y-62922D01*
X73513Y-62923D01*
X73542Y-62932D01*
X73571Y-62941D01*
X73573Y-62941D01*
X73575Y-62942D01*
X73605Y-62945D01*
X73635Y-62948D01*
X73638Y-62948D01*
X73638Y-62948D01*
X73638Y-62948D01*
X73640Y-62948D01*
X82060Y-62948D01*
X82090Y-62945D01*
X82120Y-62943D01*
X82122Y-62942D01*
X82123Y-62942D01*
X82152Y-62933D01*
X82182Y-62925D01*
X82183Y-62924D01*
X82185Y-62923D01*
X82212Y-62909D01*
X82239Y-62895D01*
X82240Y-62894D01*
X82241Y-62893D01*
X82265Y-62874D01*
X82289Y-62855D01*
X82291Y-62853D01*
X82291Y-62853D01*
X82291Y-62853D01*
X82292Y-62852D01*
X83692Y-61452D01*
X83711Y-61428D01*
X83720Y-61418D01*
X83724Y-61436D01*
X83796Y-61619D01*
X83902Y-61784D01*
X84038Y-61925D01*
X84199Y-62037D01*
X84379Y-62115D01*
X84571Y-62157D01*
X84767Y-62161D01*
X84960Y-62127D01*
X85143Y-62056D01*
X85308Y-61951D01*
X85450Y-61816D01*
X85563Y-61656D01*
X85643Y-61477D01*
X85686Y-61285D01*
X85690Y-61061D01*
X85651Y-60869D01*
X85577Y-60688D01*
X85468Y-60524D01*
X85330Y-60385D01*
X85167Y-60276D01*
X84987Y-60200D01*
X84795Y-60160D01*
X84598Y-60159D01*
X84406Y-60196D01*
X84224Y-60269D01*
X84060Y-60376D01*
X83920Y-60514D01*
X83809Y-60675D01*
X83788Y-60724D01*
X83788Y-59240D01*
X83785Y-59209D01*
X83783Y-59179D01*
X83782Y-59177D01*
X83782Y-59176D01*
X83773Y-59147D01*
X83765Y-59117D01*
X83764Y-59116D01*
X83763Y-59114D01*
X83749Y-59087D01*
X83735Y-59060D01*
X83734Y-59059D01*
X83733Y-59058D01*
X83714Y-59034D01*
X83695Y-59010D01*
X83693Y-59008D01*
X83693Y-59008D01*
X83693Y-59008D01*
X83692Y-59007D01*
X82518Y-57833D01*
X82518Y-54688D01*
X82533Y-54673D01*
X82560Y-54633D01*
X82579Y-54587D01*
X82589Y-54539D01*
X82590Y-54490D01*
X82590Y-53701D01*
X82580Y-53653D01*
X82561Y-53608D01*
X82534Y-53567D01*
X82500Y-53532D01*
X82459Y-53505D01*
X82414Y-53486D01*
X82366Y-53476D01*
X82317Y-53476D01*
X82015Y-53476D01*
X81967Y-53485D01*
X81939Y-53497D01*
X81914Y-53486D01*
X81866Y-53476D01*
X81817Y-53476D01*
X81515Y-53476D01*
X81467Y-53485D01*
X81439Y-53497D01*
X81414Y-53486D01*
X81366Y-53476D01*
X81317Y-53476D01*
X81015Y-53476D01*
X80967Y-53485D01*
X80939Y-53497D01*
X80914Y-53486D01*
X80866Y-53476D01*
X80817Y-53476D01*
X80515Y-53476D01*
X80467Y-53485D01*
X80422Y-53504D01*
X80381Y-53531D01*
X80346Y-53566D01*
X80319Y-53606D01*
X80300Y-53652D01*
X80290Y-53700D01*
X80289Y-53749D01*
X80289Y-54538D01*
X80299Y-54586D01*
X80318Y-54631D01*
X80321Y-54637D01*
X80321Y-57477D01*
X79826Y-57973D01*
X79827Y-57962D01*
X79831Y-57921D01*
X79831Y-57916D01*
X79831Y-57916D01*
X79831Y-57916D01*
X79831Y-57915D01*
X79831Y-55280D01*
X79823Y-55193D01*
X79810Y-55149D01*
X79810Y-54980D01*
X79800Y-54932D01*
X79791Y-54909D01*
X79950Y-54750D01*
X79967Y-54728D01*
X79998Y-54708D01*
X80033Y-54673D01*
X80060Y-54633D01*
X80079Y-54587D01*
X80089Y-54539D01*
X80090Y-54490D01*
X80090Y-53701D01*
X80080Y-53653D01*
X80061Y-53608D01*
X80034Y-53567D01*
X80000Y-53532D01*
X79959Y-53505D01*
X79914Y-53486D01*
X79866Y-53476D01*
X79817Y-53476D01*
X79515Y-53476D01*
X79467Y-53485D01*
X79422Y-53504D01*
X79381Y-53531D01*
X79346Y-53566D01*
X79319Y-53606D01*
X79300Y-53652D01*
X79290Y-53700D01*
X79289Y-53749D01*
X79289Y-54369D01*
X79124Y-54534D01*
X79103Y-54560D01*
X79081Y-54587D01*
X79080Y-54588D01*
X79079Y-54590D01*
X79063Y-54620D01*
X79046Y-54649D01*
X79046Y-54651D01*
X79045Y-54653D01*
X79035Y-54686D01*
X79024Y-54718D01*
X79024Y-54720D01*
X79024Y-54722D01*
X79020Y-54756D01*
X79016Y-54789D01*
X79016Y-54793D01*
X79016Y-54793D01*
X79016Y-54793D01*
X79016Y-54795D01*
X79016Y-54844D01*
X79016Y-54844D01*
X78989Y-54885D01*
X78988Y-54886D01*
X78961Y-54820D01*
X78908Y-54741D01*
X78841Y-54673D01*
X78762Y-54620D01*
X78674Y-54583D01*
X78581Y-54564D01*
X78485Y-54563D01*
X78392Y-54581D01*
X78303Y-54617D01*
X78223Y-54669D01*
X78155Y-54735D01*
X78101Y-54814D01*
X78064Y-54902D01*
X78044Y-54995D01*
X78043Y-55090D01*
X78060Y-55184D01*
X78095Y-55273D01*
X78147Y-55353D01*
X78153Y-55359D01*
X78153Y-55740D01*
X78153Y-56400D01*
X78153Y-57188D01*
X78134Y-57232D01*
X78114Y-57325D01*
X78113Y-57420D01*
X78130Y-57514D01*
X78153Y-57572D01*
X78153Y-58473D01*
X77060Y-58473D01*
X77018Y-58477D01*
X76977Y-58480D01*
X76975Y-58481D01*
X76973Y-58481D01*
X76970Y-58482D01*
X76970Y-57967D01*
X76970Y-57365D01*
X76960Y-57317D01*
X76941Y-57272D01*
X76914Y-57231D01*
X76880Y-57196D01*
X76839Y-57169D01*
X76794Y-57150D01*
X76746Y-57140D01*
X76697Y-57139D01*
X75895Y-57139D01*
X75847Y-57149D01*
X75802Y-57168D01*
X75761Y-57195D01*
X75726Y-57229D01*
X75699Y-57270D01*
X75680Y-57315D01*
X75670Y-57363D01*
X75670Y-57363D01*
X75417Y-57363D01*
X75412Y-57359D01*
X75319Y-57308D01*
X75217Y-57276D01*
X75111Y-57264D01*
X75104Y-57264D01*
X74502Y-57264D01*
X74395Y-57274D01*
X74293Y-57305D01*
X74199Y-57355D01*
X74116Y-57422D01*
X74083Y-57463D01*
X73831Y-57463D01*
X73830Y-57460D01*
X73803Y-57419D01*
X73768Y-57384D01*
X73727Y-57357D01*
X73682Y-57338D01*
X73634Y-57328D01*
X73585Y-57327D01*
X72783Y-57328D01*
X72735Y-57337D01*
X72690Y-57356D01*
X72649Y-57383D01*
X72614Y-57417D01*
X72587Y-57458D01*
X72568Y-57503D01*
X72558Y-57551D01*
X72558Y-57600D01*
X72558Y-58202D01*
X72567Y-58250D01*
X72586Y-58295D01*
X72613Y-58336D01*
X72648Y-58371D01*
X72688Y-58399D01*
X72734Y-58418D01*
X72761Y-58423D01*
X72761Y-59328D01*
X72765Y-59369D01*
X72769Y-59410D01*
X72769Y-59412D01*
X72770Y-59415D01*
X72781Y-59454D01*
X72793Y-59494D01*
X72794Y-59496D01*
X72795Y-59498D01*
X72814Y-59535D01*
X72833Y-59571D01*
X72835Y-59573D01*
X72836Y-59575D01*
X72862Y-59607D01*
X72887Y-59639D01*
X72891Y-59643D01*
X72891Y-59643D01*
X72891Y-59643D01*
X72892Y-59644D01*
X72908Y-59660D01*
X72925Y-59703D01*
X72977Y-59783D01*
X73043Y-59852D01*
X73121Y-59906D01*
X73209Y-59944D01*
X73302Y-59965D01*
X73397Y-59967D01*
X73491Y-59950D01*
X73580Y-59916D01*
X73660Y-59865D01*
X73729Y-59799D01*
X73784Y-59721D01*
X73823Y-59634D01*
X73844Y-59541D01*
X73846Y-59432D01*
X73827Y-59338D01*
X73791Y-59250D01*
X73738Y-59171D01*
X73671Y-59103D01*
X73655Y-59092D01*
X73655Y-58423D01*
X73680Y-58418D01*
X73726Y-58399D01*
X73767Y-58372D01*
X73783Y-58356D01*
X74491Y-58356D01*
X74494Y-58357D01*
X74502Y-58357D01*
X75104Y-58357D01*
X75210Y-58346D01*
X75312Y-58315D01*
X75406Y-58265D01*
X75416Y-58257D01*
X76199Y-58257D01*
X76240Y-58253D01*
X76281Y-58249D01*
X76283Y-58249D01*
X76286Y-58249D01*
X76315Y-58240D01*
X76744Y-58240D01*
X76792Y-58230D01*
X76837Y-58211D01*
X76878Y-58184D01*
X76913Y-58150D01*
X76940Y-58109D01*
X76959Y-58064D01*
X76969Y-58016D01*
X76970Y-57967D01*
X76970Y-58482D01*
X76933Y-58493D01*
X76894Y-58505D01*
X76891Y-58506D01*
X76889Y-58506D01*
X76853Y-58526D01*
X76816Y-58545D01*
X76814Y-58546D01*
X76812Y-58547D01*
X76780Y-58573D01*
X76748Y-58599D01*
X76745Y-58602D01*
X76745Y-58602D01*
X76745Y-58602D01*
X76744Y-58604D01*
X76099Y-59248D01*
X76053Y-59267D01*
X75973Y-59319D01*
X75905Y-59385D01*
X75851Y-59464D01*
X75814Y-59552D01*
X75794Y-59645D01*
X75793Y-59740D01*
X75810Y-59834D01*
X75845Y-59923D01*
X75897Y-60003D01*
X75963Y-60072D01*
X76041Y-60126D01*
X76129Y-60164D01*
X76222Y-60185D01*
X76317Y-60187D01*
X76411Y-60170D01*
X76500Y-60136D01*
X76511Y-60128D01*
X76511Y-60900D01*
X76515Y-60933D01*
X76518Y-60967D01*
X76518Y-60969D01*
X76518Y-60971D01*
X76528Y-61004D01*
X76538Y-61036D01*
X76539Y-61038D01*
X76539Y-61040D01*
X76555Y-61070D01*
X76571Y-61100D01*
X76572Y-61102D01*
X76573Y-61103D01*
X76594Y-61130D01*
X76616Y-61156D01*
X76618Y-61159D01*
X76618Y-61159D01*
X76618Y-61159D01*
X76619Y-61160D01*
X77390Y-61931D01*
X75330Y-61931D01*
X75450Y-61816D01*
X75563Y-61656D01*
X75643Y-61477D01*
X75686Y-61285D01*
X75690Y-61061D01*
X75651Y-60869D01*
X75577Y-60688D01*
X75468Y-60524D01*
X75330Y-60385D01*
X75167Y-60276D01*
X74987Y-60200D01*
X74795Y-60160D01*
X74598Y-60159D01*
X74406Y-60196D01*
X74224Y-60269D01*
X74060Y-60376D01*
X73920Y-60514D01*
X73809Y-60675D01*
X73732Y-60856D01*
X73691Y-61047D01*
X73688Y-61244D01*
X73702Y-61317D01*
X71668Y-59283D01*
X71668Y-58229D01*
X71758Y-58139D01*
X71773Y-58143D01*
X71880Y-58145D01*
X71987Y-58126D01*
X72087Y-58087D01*
X72178Y-58029D01*
X72256Y-57955D01*
X72319Y-57867D01*
X72362Y-57768D01*
X72386Y-57663D01*
X72388Y-57540D01*
X72367Y-57434D01*
X72326Y-57335D01*
X72266Y-57245D01*
X72190Y-57168D01*
X72101Y-57108D01*
X72069Y-57094D01*
X72087Y-57087D01*
X72178Y-57029D01*
X72256Y-56955D01*
X72319Y-56867D01*
X72362Y-56768D01*
X72386Y-56663D01*
X72388Y-56540D01*
X72367Y-56434D01*
X72326Y-56335D01*
X72266Y-56245D01*
X72190Y-56168D01*
X72101Y-56108D01*
X72069Y-56094D01*
X72087Y-56087D01*
X72178Y-56029D01*
X72256Y-55955D01*
X72319Y-55867D01*
X72362Y-55768D01*
X72386Y-55663D01*
X72388Y-55540D01*
X72367Y-55434D01*
X72326Y-55335D01*
X72266Y-55245D01*
X72190Y-55168D01*
X72101Y-55108D01*
X72069Y-55094D01*
X72087Y-55087D01*
X72178Y-55029D01*
X72256Y-54955D01*
X72319Y-54867D01*
X72362Y-54768D01*
X72386Y-54663D01*
X72388Y-54540D01*
X72377Y-54481D01*
X72385Y-54503D01*
X72437Y-54583D01*
X72503Y-54652D01*
X72581Y-54706D01*
X72669Y-54744D01*
X72762Y-54765D01*
X72857Y-54767D01*
X72951Y-54750D01*
X73040Y-54716D01*
X73120Y-54665D01*
X73189Y-54599D01*
X73244Y-54521D01*
X73283Y-54434D01*
X73304Y-54341D01*
X73306Y-54232D01*
X73287Y-54138D01*
X73266Y-54088D01*
X73266Y-53266D01*
X74475Y-53266D01*
X74395Y-53274D01*
X74293Y-53305D01*
X74199Y-53355D01*
X74116Y-53422D01*
X74048Y-53505D01*
X73998Y-53598D01*
X73966Y-53700D01*
X73955Y-53806D01*
X73965Y-53913D01*
X73995Y-54015D01*
X74044Y-54109D01*
X74111Y-54193D01*
X74193Y-54261D01*
X74283Y-54311D01*
X74199Y-54355D01*
X74116Y-54422D01*
X74048Y-54505D01*
X73998Y-54598D01*
X73966Y-54700D01*
X73955Y-54806D01*
X73965Y-54913D01*
X73995Y-55015D01*
X74044Y-55109D01*
X74111Y-55193D01*
X74193Y-55261D01*
X74283Y-55311D01*
X74199Y-55355D01*
X74116Y-55422D01*
X74048Y-55505D01*
X73998Y-55598D01*
X73966Y-55700D01*
X73955Y-55806D01*
X73965Y-55913D01*
X73995Y-56015D01*
X74044Y-56109D01*
X74111Y-56193D01*
X74193Y-56261D01*
X74286Y-56313D01*
X74388Y-56345D01*
X74494Y-56357D01*
X74502Y-56357D01*
X75104Y-56357D01*
X75210Y-56346D01*
X75312Y-56315D01*
X75406Y-56265D01*
X75416Y-56257D01*
X75669Y-56257D01*
X75669Y-56714D01*
X75679Y-56762D01*
X75698Y-56807D01*
X75725Y-56848D01*
X75759Y-56883D01*
X75800Y-56910D01*
X75845Y-56929D01*
X75893Y-56939D01*
X75942Y-56940D01*
X76744Y-56940D01*
X76792Y-56930D01*
X76837Y-56911D01*
X76878Y-56884D01*
X76913Y-56850D01*
X76940Y-56809D01*
X76959Y-56764D01*
X76969Y-56716D01*
X76970Y-56667D01*
X76970Y-56065D01*
X76960Y-56017D01*
X76941Y-55972D01*
X76914Y-55931D01*
X76880Y-55896D01*
X76839Y-55869D01*
X76794Y-55850D01*
X76746Y-55840D01*
X76706Y-55839D01*
X76694Y-55816D01*
X76693Y-55814D01*
X76692Y-55812D01*
X76666Y-55780D01*
X76640Y-55748D01*
X76637Y-55745D01*
X76637Y-55745D01*
X76637Y-55745D01*
X76635Y-55744D01*
X76386Y-55494D01*
X76354Y-55468D01*
X76323Y-55442D01*
X76321Y-55440D01*
X76319Y-55439D01*
X76282Y-55419D01*
X76246Y-55399D01*
X76244Y-55399D01*
X76242Y-55398D01*
X76202Y-55386D01*
X76163Y-55373D01*
X76161Y-55373D01*
X76159Y-55372D01*
X76117Y-55368D01*
X76076Y-55363D01*
X76072Y-55363D01*
X76072Y-55363D01*
X76072Y-55363D01*
X76070Y-55363D01*
X75417Y-55363D01*
X75412Y-55359D01*
X75323Y-55310D01*
X75406Y-55265D01*
X75416Y-55257D01*
X75874Y-55257D01*
X75903Y-55269D01*
X75951Y-55279D01*
X76000Y-55280D01*
X76802Y-55280D01*
X76850Y-55270D01*
X76895Y-55251D01*
X76936Y-55224D01*
X76971Y-55190D01*
X76998Y-55149D01*
X77017Y-55104D01*
X77027Y-55056D01*
X77028Y-55007D01*
X77027Y-54405D01*
X77018Y-54357D01*
X76999Y-54312D01*
X76972Y-54271D01*
X76938Y-54236D01*
X76897Y-54209D01*
X76852Y-54190D01*
X76804Y-54180D01*
X76755Y-54179D01*
X75953Y-54179D01*
X75905Y-54189D01*
X75860Y-54208D01*
X75819Y-54235D01*
X75784Y-54269D01*
X75756Y-54310D01*
X75737Y-54355D01*
X75736Y-54363D01*
X75417Y-54363D01*
X75412Y-54359D01*
X75323Y-54310D01*
X75406Y-54265D01*
X75489Y-54198D01*
X75557Y-54116D01*
X75608Y-54022D01*
X75639Y-53920D01*
X75650Y-53814D01*
X75641Y-53708D01*
X75610Y-53605D01*
X75561Y-53511D01*
X75494Y-53428D01*
X75412Y-53359D01*
X75319Y-53308D01*
X75217Y-53276D01*
X75134Y-53266D01*
X75582Y-53266D01*
X75727Y-53411D01*
X75727Y-53754D01*
X75737Y-53802D01*
X75756Y-53847D01*
X75783Y-53888D01*
X75817Y-53923D01*
X75858Y-53950D01*
X75903Y-53969D01*
X75951Y-53979D01*
X76000Y-53980D01*
X76802Y-53980D01*
X76850Y-53970D01*
X76895Y-53951D01*
X76936Y-53924D01*
X76971Y-53890D01*
X76998Y-53849D01*
X77017Y-53804D01*
X77027Y-53756D01*
X77028Y-53707D01*
X77027Y-53105D01*
X77018Y-53057D01*
X76999Y-53012D01*
X76972Y-52971D01*
X76938Y-52936D01*
X76897Y-52909D01*
X76852Y-52890D01*
X76804Y-52880D01*
X76755Y-52879D01*
X76459Y-52879D01*
X76083Y-52504D01*
X76052Y-52477D01*
X76020Y-52451D01*
X76018Y-52450D01*
X76016Y-52448D01*
X75980Y-52429D01*
X75943Y-52409D01*
X75941Y-52408D01*
X75939Y-52407D01*
X75900Y-52395D01*
X75860Y-52382D01*
X75858Y-52382D01*
X75856Y-52381D01*
X75815Y-52377D01*
X75774Y-52373D01*
X75769Y-52373D01*
X75769Y-52373D01*
X75769Y-52373D01*
X75767Y-52373D01*
X73365Y-52373D01*
X73266Y-52274D01*
X73266Y-50731D01*
X73283Y-50694D01*
X73304Y-50601D01*
X73305Y-50517D01*
X73369Y-50544D01*
X73462Y-50565D01*
X73557Y-50567D01*
X73651Y-50550D01*
X73740Y-50516D01*
X73820Y-50465D01*
X73889Y-50399D01*
X73944Y-50321D01*
X73983Y-50234D01*
X74004Y-50141D01*
X74006Y-50032D01*
X73987Y-49938D01*
X73951Y-49850D01*
X73898Y-49771D01*
X73831Y-49703D01*
X73752Y-49650D01*
X73700Y-49628D01*
X73675Y-49603D01*
X73675Y-49423D01*
X73700Y-49418D01*
X73746Y-49400D01*
X73787Y-49373D01*
X73821Y-49338D01*
X73849Y-49297D01*
X73849Y-49297D01*
X74188Y-49297D01*
X74193Y-49301D01*
X74286Y-49352D01*
X74388Y-49384D01*
X74494Y-49396D01*
X74502Y-49396D01*
X75104Y-49396D01*
X75210Y-49386D01*
X75312Y-49355D01*
X75406Y-49305D01*
X75416Y-49297D01*
X75838Y-49297D01*
X75858Y-49310D01*
X75903Y-49329D01*
X75951Y-49339D01*
X76000Y-49340D01*
X76802Y-49340D01*
X76850Y-49330D01*
X76895Y-49311D01*
X76936Y-49284D01*
X76971Y-49250D01*
X76998Y-49209D01*
X77017Y-49164D01*
X77027Y-49116D01*
X77028Y-49067D01*
X77027Y-48465D01*
X77018Y-48417D01*
X76999Y-48372D01*
X76972Y-48331D01*
X76938Y-48296D01*
X76897Y-48269D01*
X76852Y-48250D01*
X76804Y-48240D01*
X76755Y-48239D01*
X75953Y-48239D01*
X75905Y-48249D01*
X75860Y-48268D01*
X75819Y-48295D01*
X75784Y-48329D01*
X75756Y-48370D01*
X75743Y-48403D01*
X75417Y-48403D01*
X75412Y-48399D01*
X75319Y-48348D01*
X75217Y-48315D01*
X75111Y-48303D01*
X75104Y-48303D01*
X74502Y-48303D01*
X74395Y-48314D01*
X74293Y-48345D01*
X74199Y-48395D01*
X74189Y-48403D01*
X73807Y-48403D01*
X73788Y-48384D01*
X73747Y-48357D01*
X73702Y-48338D01*
X73654Y-48328D01*
X73605Y-48328D01*
X72803Y-48328D01*
X72755Y-48337D01*
X72710Y-48356D01*
X72669Y-48383D01*
X72634Y-48418D01*
X72607Y-48458D01*
X72588Y-48504D01*
X72578Y-48552D01*
X72578Y-48601D01*
X72578Y-49202D01*
X72587Y-49250D01*
X72606Y-49296D01*
X72633Y-49337D01*
X72668Y-49371D01*
X72708Y-49399D01*
X72754Y-49418D01*
X72781Y-49423D01*
X72781Y-49788D01*
X72785Y-49829D01*
X72789Y-49870D01*
X72789Y-49872D01*
X72790Y-49875D01*
X72801Y-49914D01*
X72813Y-49954D01*
X72814Y-49956D01*
X72815Y-49958D01*
X72834Y-49995D01*
X72853Y-50031D01*
X72855Y-50033D01*
X72856Y-50035D01*
X72871Y-50054D01*
X72871Y-50054D01*
X72775Y-50053D01*
X72682Y-50071D01*
X72593Y-50107D01*
X72513Y-50159D01*
X72445Y-50225D01*
X72391Y-50304D01*
X72354Y-50392D01*
X72352Y-50398D01*
X72326Y-50335D01*
X72266Y-50245D01*
X72190Y-50168D01*
X72101Y-50108D01*
X72069Y-50094D01*
X72087Y-50087D01*
X72178Y-50029D01*
X72256Y-49955D01*
X72319Y-49867D01*
X72362Y-49768D01*
X72386Y-49663D01*
X72388Y-49540D01*
X72367Y-49434D01*
X72326Y-49335D01*
X72266Y-49245D01*
X72190Y-49168D01*
X72101Y-49108D01*
X72069Y-49094D01*
X72087Y-49087D01*
X72178Y-49029D01*
X72256Y-48955D01*
X72319Y-48867D01*
X72362Y-48768D01*
X72386Y-48663D01*
X72388Y-48540D01*
X72367Y-48434D01*
X72326Y-48335D01*
X72266Y-48245D01*
X72190Y-48168D01*
X72101Y-48108D01*
X72069Y-48094D01*
X72087Y-48087D01*
X72178Y-48029D01*
X72256Y-47955D01*
X72319Y-47867D01*
X72362Y-47768D01*
X72386Y-47663D01*
X72388Y-47540D01*
X72367Y-47434D01*
X72326Y-47335D01*
X72266Y-47245D01*
X72190Y-47168D01*
X72101Y-47108D01*
X72069Y-47094D01*
X72087Y-47087D01*
X72178Y-47029D01*
X72256Y-46955D01*
X72319Y-46867D01*
X72362Y-46768D01*
X72386Y-46663D01*
X72388Y-46540D01*
X72367Y-46434D01*
X72326Y-46335D01*
X72266Y-46245D01*
X72190Y-46168D01*
X72101Y-46108D01*
X72069Y-46094D01*
X72087Y-46087D01*
X72178Y-46029D01*
X72256Y-45955D01*
X72319Y-45867D01*
X72362Y-45768D01*
X72373Y-45724D01*
X72373Y-45768D01*
X72354Y-45812D01*
X72334Y-45905D01*
X72333Y-46000D01*
X72350Y-46094D01*
X72385Y-46183D01*
X72437Y-46263D01*
X72503Y-46332D01*
X72581Y-46386D01*
X72669Y-46424D01*
X72762Y-46445D01*
X72857Y-46447D01*
X72951Y-46430D01*
X73040Y-46396D01*
X73120Y-46345D01*
X73189Y-46279D01*
X73244Y-46201D01*
X73283Y-46114D01*
X73304Y-46021D01*
X73306Y-45912D01*
X73287Y-45818D01*
X73266Y-45768D01*
X73266Y-45173D01*
X73912Y-44528D01*
X74062Y-44528D01*
X74048Y-44544D01*
X73998Y-44638D01*
X73966Y-44740D01*
X73955Y-44846D01*
X73965Y-44952D01*
X73995Y-45055D01*
X74044Y-45149D01*
X74111Y-45232D01*
X74193Y-45301D01*
X74283Y-45350D01*
X74199Y-45395D01*
X74116Y-45462D01*
X74048Y-45544D01*
X73998Y-45638D01*
X73966Y-45740D01*
X73955Y-45846D01*
X73965Y-45952D01*
X73995Y-46055D01*
X74044Y-46149D01*
X74111Y-46232D01*
X74193Y-46301D01*
X74283Y-46350D01*
X74199Y-46395D01*
X74116Y-46462D01*
X74048Y-46544D01*
X73998Y-46638D01*
X73966Y-46740D01*
X73955Y-46846D01*
X73965Y-46952D01*
X73995Y-47055D01*
X74044Y-47149D01*
X74111Y-47232D01*
X74193Y-47301D01*
X74286Y-47352D01*
X74388Y-47384D01*
X74494Y-47396D01*
X74502Y-47396D01*
X75104Y-47396D01*
X75210Y-47386D01*
X75312Y-47355D01*
X75406Y-47305D01*
X75416Y-47297D01*
X75727Y-47297D01*
X75727Y-47814D01*
X75737Y-47862D01*
X75756Y-47907D01*
X75783Y-47948D01*
X75817Y-47983D01*
X75858Y-48010D01*
X75903Y-48029D01*
X75951Y-48039D01*
X76000Y-48040D01*
X76802Y-48040D01*
X76850Y-48030D01*
X76895Y-48011D01*
X76936Y-47984D01*
X76971Y-47950D01*
X76998Y-47909D01*
X77017Y-47864D01*
X77027Y-47816D01*
X77028Y-47767D01*
X77027Y-47165D01*
X77018Y-47117D01*
X76999Y-47072D01*
X76972Y-47031D01*
X76938Y-46996D01*
X76897Y-46969D01*
X76852Y-46950D01*
X76804Y-46940D01*
X76755Y-46939D01*
X76734Y-46939D01*
X76726Y-46913D01*
X76714Y-46874D01*
X76713Y-46871D01*
X76713Y-46869D01*
X76693Y-46833D01*
X76674Y-46796D01*
X76673Y-46794D01*
X76672Y-46792D01*
X76646Y-46760D01*
X76620Y-46728D01*
X76617Y-46725D01*
X76617Y-46725D01*
X76617Y-46725D01*
X76615Y-46724D01*
X76426Y-46534D01*
X76394Y-46508D01*
X76362Y-46481D01*
X76360Y-46480D01*
X76358Y-46479D01*
X76323Y-46460D01*
X76802Y-46460D01*
X76850Y-46450D01*
X76895Y-46431D01*
X76936Y-46404D01*
X76971Y-46370D01*
X76998Y-46329D01*
X77017Y-46284D01*
X77027Y-46236D01*
X77028Y-46187D01*
X77027Y-45585D01*
X77018Y-45537D01*
X76999Y-45492D01*
X76972Y-45451D01*
X76938Y-45416D01*
X76897Y-45389D01*
X76852Y-45370D01*
X76804Y-45360D01*
X76755Y-45359D01*
X75953Y-45359D01*
X75905Y-45369D01*
X75860Y-45388D01*
X75836Y-45403D01*
X75417Y-45403D01*
X75412Y-45399D01*
X75323Y-45350D01*
X75406Y-45305D01*
X75489Y-45238D01*
X75557Y-45155D01*
X75608Y-45062D01*
X75639Y-44960D01*
X75650Y-44854D01*
X75641Y-44747D01*
X75610Y-44645D01*
X75561Y-44551D01*
X75542Y-44528D01*
X75727Y-44528D01*
X75727Y-44934D01*
X75737Y-44982D01*
X75756Y-45027D01*
X75783Y-45068D01*
X75817Y-45103D01*
X75858Y-45130D01*
X75903Y-45149D01*
X75951Y-45159D01*
X76000Y-45160D01*
X76802Y-45160D01*
X76850Y-45150D01*
X76895Y-45131D01*
X76936Y-45104D01*
X76971Y-45070D01*
X76998Y-45029D01*
X77017Y-44984D01*
X77027Y-44936D01*
X77028Y-44887D01*
X77027Y-44285D01*
X77018Y-44237D01*
X76999Y-44192D01*
X76972Y-44151D01*
X76938Y-44116D01*
X76897Y-44089D01*
X76892Y-44086D01*
X77194Y-44086D01*
X77713Y-44605D01*
X77713Y-45520D01*
X77713Y-45700D01*
X77713Y-45860D01*
X77713Y-47540D01*
X77717Y-47581D01*
X77720Y-47622D01*
X77721Y-47624D01*
X77721Y-47626D01*
X77733Y-47666D01*
X77745Y-47705D01*
X77746Y-47708D01*
X77746Y-47710D01*
X77766Y-47746D01*
X77785Y-47783D01*
X77786Y-47785D01*
X77787Y-47787D01*
X77813Y-47819D01*
X77839Y-47851D01*
X77842Y-47854D01*
X77842Y-47854D01*
X77842Y-47854D01*
X77844Y-47855D01*
X78073Y-48085D01*
X78073Y-48628D01*
X78054Y-48672D01*
X78034Y-48765D01*
X78033Y-48860D01*
X78050Y-48954D01*
X78085Y-49043D01*
X78137Y-49123D01*
X78203Y-49192D01*
X78281Y-49246D01*
X78369Y-49284D01*
X78462Y-49305D01*
X78557Y-49307D01*
X78651Y-49290D01*
X78740Y-49256D01*
X78820Y-49205D01*
X78889Y-49139D01*
X78944Y-49061D01*
X78983Y-48974D01*
X79004Y-48881D01*
X79006Y-48772D01*
X78987Y-48678D01*
X78966Y-48628D01*
X78966Y-47900D01*
X78962Y-47858D01*
X78959Y-47817D01*
X78958Y-47815D01*
X78958Y-47813D01*
X78946Y-47773D01*
X78934Y-47734D01*
X78933Y-47731D01*
X78933Y-47729D01*
X78913Y-47693D01*
X78894Y-47656D01*
X78893Y-47654D01*
X78892Y-47652D01*
X78866Y-47620D01*
X78840Y-47588D01*
X78837Y-47585D01*
X78837Y-47585D01*
X78837Y-47585D01*
X78835Y-47584D01*
X78606Y-47354D01*
X78606Y-47102D01*
X78642Y-47118D01*
X78735Y-47138D01*
X78831Y-47140D01*
X78924Y-47124D01*
X79013Y-47089D01*
X79094Y-47038D01*
X79163Y-46972D01*
X79218Y-46894D01*
X79257Y-46807D01*
X79278Y-46714D01*
X79279Y-46626D01*
X80374Y-46626D01*
X80444Y-46695D01*
X80475Y-46722D01*
X80507Y-46748D01*
X80509Y-46749D01*
X80511Y-46751D01*
X80528Y-46760D01*
X81173Y-47405D01*
X81173Y-48880D01*
X81177Y-48921D01*
X81180Y-48962D01*
X81181Y-48964D01*
X81181Y-48966D01*
X81193Y-49006D01*
X81205Y-49045D01*
X81206Y-49048D01*
X81206Y-49050D01*
X81226Y-49086D01*
X81245Y-49123D01*
X81246Y-49125D01*
X81247Y-49127D01*
X81273Y-49159D01*
X81299Y-49191D01*
X81302Y-49194D01*
X81302Y-49194D01*
X81302Y-49194D01*
X81304Y-49195D01*
X82004Y-49895D01*
X82035Y-49922D01*
X82067Y-49948D01*
X82069Y-49949D01*
X82071Y-49951D01*
X82107Y-49970D01*
X82143Y-49990D01*
X82146Y-49991D01*
X82148Y-49992D01*
X82187Y-50004D01*
X82227Y-50017D01*
X82229Y-50017D01*
X82231Y-50018D01*
X82272Y-50022D01*
X82313Y-50026D01*
X82318Y-50026D01*
X82318Y-50026D01*
X82318Y-50026D01*
X82320Y-50026D01*
X82720Y-50026D01*
X82954Y-50026D01*
X83033Y-50105D01*
X83033Y-50631D01*
X83014Y-50619D01*
X82969Y-50600D01*
X82921Y-50590D01*
X82872Y-50589D01*
X82320Y-50589D01*
X82272Y-50599D01*
X82227Y-50618D01*
X82186Y-50645D01*
X82160Y-50671D01*
X82160Y-50640D01*
X82150Y-50592D01*
X82131Y-50547D01*
X82104Y-50506D01*
X82070Y-50471D01*
X82029Y-50444D01*
X81984Y-50425D01*
X81936Y-50415D01*
X81887Y-50414D01*
X81535Y-50414D01*
X81487Y-50424D01*
X81442Y-50443D01*
X81401Y-50470D01*
X81366Y-50504D01*
X81360Y-50514D01*
X81354Y-50506D01*
X81320Y-50471D01*
X81279Y-50444D01*
X81234Y-50425D01*
X81186Y-50415D01*
X81137Y-50414D01*
X80785Y-50414D01*
X80737Y-50424D01*
X80692Y-50443D01*
X80651Y-50470D01*
X80616Y-50504D01*
X80589Y-50545D01*
X80570Y-50590D01*
X80560Y-50638D01*
X80559Y-50687D01*
X80559Y-50829D01*
X80555Y-50807D01*
X80536Y-50762D01*
X80509Y-50721D01*
X80475Y-50686D01*
X80434Y-50659D01*
X80389Y-50640D01*
X80341Y-50630D01*
X80292Y-50629D01*
X79740Y-50629D01*
X79692Y-50639D01*
X79647Y-50658D01*
X79606Y-50685D01*
X79571Y-50719D01*
X79544Y-50760D01*
X79525Y-50805D01*
X79515Y-50853D01*
X79514Y-50902D01*
X79514Y-51254D01*
X79524Y-51302D01*
X79543Y-51347D01*
X79570Y-51388D01*
X79604Y-51423D01*
X79645Y-51450D01*
X79683Y-51466D01*
X79686Y-51476D01*
X79536Y-51476D01*
X79440Y-51379D01*
X79440Y-50840D01*
X79430Y-50792D01*
X79411Y-50747D01*
X79384Y-50706D01*
X79350Y-50671D01*
X79309Y-50644D01*
X79264Y-50625D01*
X79216Y-50615D01*
X79167Y-50614D01*
X78815Y-50614D01*
X78767Y-50624D01*
X78722Y-50643D01*
X78681Y-50670D01*
X78646Y-50704D01*
X78640Y-50714D01*
X78634Y-50706D01*
X78600Y-50671D01*
X78559Y-50644D01*
X78514Y-50625D01*
X78466Y-50615D01*
X78417Y-50614D01*
X78065Y-50614D01*
X78017Y-50624D01*
X77972Y-50643D01*
X77931Y-50670D01*
X77896Y-50704D01*
X77869Y-50745D01*
X77850Y-50790D01*
X77840Y-50838D01*
X77839Y-50887D01*
X77839Y-51439D01*
X77849Y-51487D01*
X77868Y-51532D01*
X77895Y-51573D01*
X77896Y-51575D01*
X77896Y-51725D01*
X77900Y-51758D01*
X77903Y-51792D01*
X77903Y-51794D01*
X77903Y-51796D01*
X77913Y-51829D01*
X77923Y-51861D01*
X77924Y-51863D01*
X77924Y-51865D01*
X77940Y-51895D01*
X77956Y-51925D01*
X77957Y-51927D01*
X77958Y-51928D01*
X77979Y-51955D01*
X78001Y-51981D01*
X78003Y-51984D01*
X78003Y-51984D01*
X78003Y-51984D01*
X78004Y-51985D01*
X79239Y-53220D01*
X79265Y-53241D01*
X79292Y-53263D01*
X79293Y-53264D01*
X79295Y-53265D01*
X79325Y-53281D01*
X79354Y-53298D01*
X79356Y-53298D01*
X79358Y-53299D01*
X79391Y-53309D01*
X79423Y-53320D01*
X79425Y-53320D01*
X79427Y-53320D01*
X79461Y-53324D01*
X79494Y-53328D01*
X79498Y-53328D01*
X79498Y-53328D01*
X79498Y-53328D01*
X79500Y-53328D01*
X80360Y-53328D01*
X80393Y-53324D01*
X80427Y-53321D01*
X80429Y-53321D01*
X80431Y-53321D01*
X80464Y-53311D01*
X80496Y-53301D01*
X80498Y-53300D01*
X80500Y-53300D01*
X80530Y-53284D01*
X80560Y-53268D01*
X80562Y-53267D01*
X80563Y-53266D01*
X80590Y-53245D01*
X80616Y-53223D01*
X80619Y-53221D01*
X80619Y-53221D01*
X80619Y-53221D01*
X80620Y-53220D01*
X80950Y-52890D01*
X80971Y-52864D01*
X80993Y-52837D01*
X80994Y-52836D01*
X80995Y-52834D01*
X81011Y-52804D01*
X81028Y-52775D01*
X81028Y-52773D01*
X81029Y-52771D01*
X81032Y-52763D01*
X81062Y-52763D01*
X81364Y-52763D01*
X81412Y-52754D01*
X81440Y-52742D01*
X81465Y-52753D01*
X81513Y-52763D01*
X81562Y-52763D01*
X81864Y-52763D01*
X81912Y-52754D01*
X81940Y-52742D01*
X81965Y-52753D01*
X82013Y-52763D01*
X82062Y-52763D01*
X82364Y-52763D01*
X82412Y-52754D01*
X82440Y-52742D01*
X82465Y-52753D01*
X82513Y-52763D01*
X82562Y-52763D01*
X82864Y-52763D01*
X82912Y-52754D01*
X82940Y-52742D01*
X82965Y-52753D01*
X83013Y-52763D01*
X83062Y-52763D01*
X83364Y-52763D01*
X83412Y-52754D01*
X83457Y-52735D01*
X83498Y-52708D01*
X83533Y-52673D01*
X83560Y-52633D01*
X83579Y-52587D01*
X83589Y-52539D01*
X83590Y-52490D01*
X83590Y-51901D01*
X84013Y-52325D01*
X84013Y-54440D01*
X84013Y-54470D01*
X83931Y-54454D01*
X83835Y-54453D01*
X83742Y-54471D01*
X83653Y-54507D01*
X83587Y-54550D01*
X83589Y-54539D01*
X83590Y-54490D01*
X83590Y-53701D01*
X83580Y-53653D01*
X83561Y-53608D01*
X83534Y-53567D01*
X83500Y-53532D01*
X83459Y-53505D01*
X83414Y-53486D01*
X83366Y-53476D01*
X83317Y-53476D01*
X83015Y-53476D01*
X82967Y-53485D01*
X82922Y-53504D01*
X82881Y-53531D01*
X82846Y-53566D01*
X82819Y-53606D01*
X82800Y-53652D01*
X82790Y-53700D01*
X82789Y-53749D01*
X82789Y-54538D01*
X82799Y-54586D01*
X82818Y-54631D01*
X82845Y-54672D01*
X82879Y-54707D01*
X82920Y-54734D01*
X82965Y-54753D01*
X83013Y-54763D01*
X83062Y-54763D01*
X83364Y-54763D01*
X83412Y-54754D01*
X83434Y-54745D01*
X83428Y-54759D01*
X83424Y-54764D01*
X83397Y-54795D01*
X83371Y-54827D01*
X83370Y-54829D01*
X83368Y-54831D01*
X83349Y-54867D01*
X83329Y-54903D01*
X83328Y-54906D01*
X83327Y-54908D01*
X83315Y-54947D01*
X83302Y-54987D01*
X83302Y-54989D01*
X83301Y-54991D01*
X83297Y-55032D01*
X83293Y-55073D01*
X83293Y-55078D01*
X83293Y-55078D01*
X83293Y-55078D01*
X83293Y-55080D01*
X83293Y-56340D01*
X83293Y-57468D01*
X83274Y-57512D01*
X83254Y-57605D01*
X83253Y-57700D01*
X83270Y-57794D01*
X83305Y-57883D01*
X83357Y-57963D01*
X83423Y-58032D01*
X83501Y-58086D01*
X83589Y-58124D01*
X83682Y-58145D01*
X83777Y-58147D01*
X83871Y-58130D01*
X83960Y-58096D01*
X84013Y-58062D01*
X84013Y-59220D01*
X84014Y-59229D01*
X84013Y-59300D01*
X84030Y-59394D01*
X84065Y-59483D01*
X84117Y-59563D01*
X84183Y-59632D01*
X84261Y-59686D01*
X84349Y-59724D01*
X84442Y-59745D01*
X84537Y-59747D01*
X84631Y-59730D01*
X84720Y-59696D01*
X84800Y-59645D01*
X84869Y-59579D01*
X84924Y-59501D01*
X84963Y-59414D01*
X84984Y-59321D01*
X84986Y-59212D01*
X84967Y-59118D01*
X84931Y-59030D01*
X84906Y-58993D01*
X84906Y-55620D01*
X84906Y-54440D01*
X84906Y-52140D01*
X84902Y-52098D01*
X84899Y-52057D01*
X84898Y-52055D01*
X84898Y-52053D01*
X84886Y-52013D01*
X84874Y-51974D01*
X84873Y-51971D01*
X84873Y-51969D01*
X84853Y-51933D01*
X84834Y-51896D01*
X84833Y-51894D01*
X84832Y-51892D01*
X84806Y-51860D01*
X84780Y-51828D01*
X84777Y-51825D01*
X84777Y-51825D01*
X84777Y-51825D01*
X84775Y-51824D01*
X83926Y-50974D01*
X83926Y-49920D01*
X83922Y-49878D01*
X83919Y-49837D01*
X83918Y-49835D01*
X83918Y-49833D01*
X83906Y-49793D01*
X83894Y-49754D01*
X83893Y-49751D01*
X83893Y-49749D01*
X83873Y-49713D01*
X83854Y-49676D01*
X83853Y-49674D01*
X83852Y-49672D01*
X83826Y-49640D01*
X83800Y-49608D01*
X83797Y-49605D01*
X83797Y-49605D01*
X83797Y-49605D01*
X83795Y-49604D01*
X83518Y-49326D01*
X83537Y-49327D01*
X83631Y-49310D01*
X83720Y-49276D01*
X83800Y-49225D01*
X83869Y-49159D01*
X83924Y-49081D01*
X83963Y-48994D01*
X83981Y-48917D01*
X83986Y-48926D01*
X84005Y-48963D01*
X84006Y-48965D01*
X84007Y-48967D01*
X84033Y-48999D01*
X84059Y-49031D01*
X84062Y-49034D01*
X84062Y-49034D01*
X84062Y-49034D01*
X84064Y-49035D01*
X84374Y-49345D01*
X84374Y-49345D01*
X84374Y-49345D01*
X84694Y-49665D01*
X84694Y-49665D01*
X85604Y-50575D01*
X85635Y-50602D01*
X85667Y-50628D01*
X85669Y-50629D01*
X85671Y-50631D01*
X85707Y-50650D01*
X85743Y-50670D01*
X85746Y-50671D01*
X85748Y-50672D01*
X85787Y-50684D01*
X85827Y-50697D01*
X85829Y-50697D01*
X85831Y-50698D01*
X85872Y-50702D01*
X85913Y-50706D01*
X85918Y-50706D01*
X85918Y-50706D01*
X85918Y-50706D01*
X85920Y-50706D01*
X87414Y-50706D01*
X88893Y-52185D01*
X88893Y-53184D01*
X88867Y-53189D01*
X88822Y-53208D01*
X88781Y-53235D01*
X88746Y-53269D01*
X88719Y-53310D01*
X88700Y-53355D01*
X88698Y-53363D01*
X88389Y-53363D01*
X88385Y-53359D01*
X88291Y-53308D01*
X88189Y-53276D01*
X88083Y-53264D01*
X88076Y-53264D01*
X87474Y-53264D01*
X87368Y-53274D01*
X87265Y-53305D01*
X87171Y-53355D01*
X87161Y-53363D01*
X86823Y-53363D01*
X86815Y-53351D01*
X86780Y-53316D01*
X86739Y-53289D01*
X86694Y-53270D01*
X86646Y-53260D01*
X86597Y-53259D01*
X85795Y-53259D01*
X85747Y-53269D01*
X85702Y-53288D01*
X85661Y-53315D01*
X85626Y-53349D01*
X85599Y-53390D01*
X85580Y-53435D01*
X85570Y-53483D01*
X85570Y-53532D01*
X85570Y-54134D01*
X85579Y-54182D01*
X85598Y-54227D01*
X85625Y-54268D01*
X85660Y-54303D01*
X85700Y-54330D01*
X85746Y-54349D01*
X85794Y-54359D01*
X85843Y-54360D01*
X86644Y-54360D01*
X86693Y-54350D01*
X86738Y-54331D01*
X86779Y-54304D01*
X86814Y-54270D01*
X86822Y-54257D01*
X87160Y-54257D01*
X87165Y-54261D01*
X87258Y-54313D01*
X87360Y-54345D01*
X87466Y-54357D01*
X87474Y-54357D01*
X88076Y-54357D01*
X88182Y-54346D01*
X88284Y-54315D01*
X88378Y-54265D01*
X88389Y-54257D01*
X88836Y-54257D01*
X88865Y-54269D01*
X88913Y-54279D01*
X88962Y-54280D01*
X89764Y-54280D01*
X89812Y-54270D01*
X89857Y-54251D01*
X89898Y-54224D01*
X89933Y-54190D01*
X89960Y-54149D01*
X89979Y-54104D01*
X89989Y-54056D01*
X89990Y-54007D01*
X89990Y-53405D01*
X89980Y-53357D01*
X89961Y-53312D01*
X89934Y-53271D01*
X89900Y-53236D01*
X89859Y-53209D01*
X89814Y-53190D01*
X89786Y-53184D01*
X89786Y-52000D01*
X89782Y-51958D01*
X89779Y-51917D01*
X89778Y-51915D01*
X89778Y-51913D01*
X89766Y-51873D01*
X89754Y-51834D01*
X89753Y-51831D01*
X89753Y-51829D01*
X89733Y-51793D01*
X89714Y-51756D01*
X89713Y-51754D01*
X89712Y-51752D01*
X89686Y-51720D01*
X89660Y-51688D01*
X89657Y-51685D01*
X89657Y-51685D01*
X89657Y-51685D01*
X89655Y-51684D01*
X88642Y-50670D01*
X88642Y-48854D01*
X88633Y-48747D01*
X88603Y-48645D01*
X88553Y-48551D01*
X88486Y-48468D01*
X88405Y-48399D01*
X88315Y-48350D01*
X88398Y-48305D01*
X88481Y-48238D01*
X88549Y-48155D01*
X88600Y-48062D01*
X88631Y-47960D01*
X88642Y-47854D01*
X88633Y-47747D01*
X88603Y-47645D01*
X88553Y-47551D01*
X88486Y-47468D01*
X88405Y-47399D01*
X88315Y-47350D01*
X88398Y-47305D01*
X88481Y-47238D01*
X88549Y-47155D01*
X88600Y-47062D01*
X88631Y-46960D01*
X88642Y-46854D01*
X88633Y-46747D01*
X88603Y-46645D01*
X88553Y-46551D01*
X88486Y-46468D01*
X88405Y-46399D01*
X88311Y-46348D01*
X88209Y-46315D01*
X88103Y-46303D01*
X88096Y-46303D01*
X87494Y-46303D01*
X87388Y-46314D01*
X87285Y-46345D01*
X87191Y-46395D01*
X87181Y-46403D01*
X86870Y-46403D01*
X86870Y-46367D01*
X86870Y-45765D01*
X86860Y-45717D01*
X86842Y-45672D01*
X86815Y-45631D01*
X86780Y-45596D01*
X86739Y-45569D01*
X86694Y-45550D01*
X86646Y-45540D01*
X86597Y-45539D01*
X85795Y-45539D01*
X85747Y-45549D01*
X85702Y-45568D01*
X85661Y-45595D01*
X85626Y-45629D01*
X85599Y-45670D01*
X85580Y-45715D01*
X85570Y-45763D01*
X85570Y-45812D01*
X85570Y-46414D01*
X85579Y-46462D01*
X85598Y-46507D01*
X85625Y-46548D01*
X85660Y-46583D01*
X85700Y-46610D01*
X85746Y-46629D01*
X85785Y-46637D01*
X85793Y-46666D01*
X85805Y-46705D01*
X85806Y-46708D01*
X85806Y-46710D01*
X85826Y-46746D01*
X85845Y-46783D01*
X85846Y-46785D01*
X85847Y-46787D01*
X85873Y-46819D01*
X85899Y-46851D01*
X85902Y-46854D01*
X85902Y-46854D01*
X85902Y-46854D01*
X85904Y-46855D01*
X86214Y-47166D01*
X86246Y-47192D01*
X86277Y-47219D01*
X86279Y-47220D01*
X86281Y-47221D01*
X86318Y-47241D01*
X86354Y-47261D01*
X86356Y-47261D01*
X86358Y-47262D01*
X86398Y-47274D01*
X86437Y-47287D01*
X86439Y-47287D01*
X86442Y-47288D01*
X86483Y-47292D01*
X86524Y-47297D01*
X86528Y-47297D01*
X86528Y-47297D01*
X86528Y-47297D01*
X86530Y-47297D01*
X87180Y-47297D01*
X87185Y-47301D01*
X87275Y-47350D01*
X87191Y-47395D01*
X87181Y-47403D01*
X86420Y-47403D01*
X86378Y-47407D01*
X86337Y-47411D01*
X86335Y-47411D01*
X86333Y-47412D01*
X86293Y-47423D01*
X86254Y-47435D01*
X86252Y-47436D01*
X86249Y-47437D01*
X86213Y-47456D01*
X86176Y-47475D01*
X86174Y-47477D01*
X86172Y-47478D01*
X86146Y-47499D01*
X85795Y-47499D01*
X85747Y-47509D01*
X85702Y-47528D01*
X85661Y-47555D01*
X85626Y-47589D01*
X85599Y-47630D01*
X85580Y-47675D01*
X85570Y-47723D01*
X85570Y-47772D01*
X85570Y-48374D01*
X85579Y-48422D01*
X85598Y-48467D01*
X85625Y-48508D01*
X85660Y-48543D01*
X85700Y-48570D01*
X85746Y-48589D01*
X85794Y-48599D01*
X85843Y-48600D01*
X86644Y-48600D01*
X86693Y-48590D01*
X86738Y-48571D01*
X86779Y-48544D01*
X86814Y-48510D01*
X86841Y-48469D01*
X86860Y-48424D01*
X86870Y-48376D01*
X86870Y-48327D01*
X86870Y-48297D01*
X87180Y-48297D01*
X87185Y-48301D01*
X87275Y-48350D01*
X87191Y-48395D01*
X87109Y-48462D01*
X87041Y-48544D01*
X86990Y-48638D01*
X86958Y-48740D01*
X86947Y-48846D01*
X86957Y-48952D01*
X86987Y-49055D01*
X87036Y-49149D01*
X87103Y-49232D01*
X87185Y-49301D01*
X87278Y-49352D01*
X87380Y-49384D01*
X87486Y-49396D01*
X87494Y-49396D01*
X88096Y-49396D01*
X88202Y-49386D01*
X88304Y-49355D01*
X88398Y-49305D01*
X88481Y-49238D01*
X88549Y-49155D01*
X88600Y-49062D01*
X88631Y-48960D01*
X88642Y-48854D01*
X88642Y-50670D01*
X87915Y-49944D01*
X87884Y-49917D01*
X87852Y-49891D01*
X87850Y-49890D01*
X87848Y-49888D01*
X87812Y-49869D01*
X87776Y-49849D01*
X87773Y-49848D01*
X87771Y-49847D01*
X87732Y-49835D01*
X87692Y-49822D01*
X87690Y-49822D01*
X87688Y-49821D01*
X87647Y-49817D01*
X87606Y-49813D01*
X87601Y-49813D01*
X87601Y-49813D01*
X87601Y-49813D01*
X87600Y-49813D01*
X86810Y-49813D01*
X86814Y-49810D01*
X86841Y-49769D01*
X86860Y-49724D01*
X86870Y-49676D01*
X86870Y-49627D01*
X86870Y-49025D01*
X86860Y-48977D01*
X86842Y-48932D01*
X86815Y-48891D01*
X86780Y-48856D01*
X86739Y-48829D01*
X86694Y-48810D01*
X86646Y-48800D01*
X86597Y-48799D01*
X85795Y-48799D01*
X85747Y-48809D01*
X85702Y-48828D01*
X85661Y-48855D01*
X85626Y-48889D01*
X85617Y-48903D01*
X85195Y-48903D01*
X85005Y-48714D01*
X85005Y-48714D01*
X85005Y-48714D01*
X84826Y-48534D01*
X84826Y-45960D01*
X84826Y-43680D01*
X84822Y-43638D01*
X84819Y-43597D01*
X84818Y-43595D01*
X84818Y-43593D01*
X84806Y-43553D01*
X84794Y-43514D01*
X84793Y-43511D01*
X84793Y-43509D01*
X84773Y-43473D01*
X84754Y-43436D01*
X84753Y-43434D01*
X84752Y-43432D01*
X84726Y-43400D01*
X84715Y-43386D01*
X88654Y-43386D01*
X88933Y-43665D01*
X88933Y-44324D01*
X88907Y-44329D01*
X88862Y-44348D01*
X88821Y-44375D01*
X88792Y-44403D01*
X88409Y-44403D01*
X88405Y-44399D01*
X88311Y-44348D01*
X88209Y-44315D01*
X88103Y-44303D01*
X88096Y-44303D01*
X87494Y-44303D01*
X87388Y-44314D01*
X87285Y-44345D01*
X87191Y-44395D01*
X87181Y-44403D01*
X86855Y-44403D01*
X86842Y-44372D01*
X86815Y-44331D01*
X86780Y-44296D01*
X86739Y-44269D01*
X86694Y-44250D01*
X86646Y-44240D01*
X86597Y-44239D01*
X85795Y-44239D01*
X85747Y-44249D01*
X85702Y-44268D01*
X85661Y-44295D01*
X85626Y-44329D01*
X85599Y-44370D01*
X85580Y-44415D01*
X85570Y-44463D01*
X85570Y-44512D01*
X85570Y-45114D01*
X85579Y-45162D01*
X85598Y-45207D01*
X85625Y-45248D01*
X85660Y-45283D01*
X85700Y-45310D01*
X85746Y-45329D01*
X85794Y-45339D01*
X85843Y-45340D01*
X86644Y-45340D01*
X86693Y-45330D01*
X86738Y-45311D01*
X86760Y-45297D01*
X87180Y-45297D01*
X87185Y-45301D01*
X87278Y-45352D01*
X87380Y-45384D01*
X87486Y-45396D01*
X87494Y-45396D01*
X88096Y-45396D01*
X88202Y-45386D01*
X88304Y-45355D01*
X88398Y-45305D01*
X88409Y-45297D01*
X88764Y-45297D01*
X88785Y-45328D01*
X88819Y-45363D01*
X88860Y-45390D01*
X88905Y-45409D01*
X88953Y-45419D01*
X89002Y-45420D01*
X89804Y-45420D01*
X89852Y-45410D01*
X89897Y-45391D01*
X89938Y-45364D01*
X89973Y-45330D01*
X90000Y-45289D01*
X90019Y-45244D01*
X90029Y-45196D01*
X90030Y-45147D01*
X90030Y-55771D01*
X89788Y-55771D01*
X89771Y-55730D01*
X89718Y-55651D01*
X89651Y-55583D01*
X89572Y-55530D01*
X89484Y-55493D01*
X89391Y-55474D01*
X89295Y-55473D01*
X89202Y-55491D01*
X89113Y-55527D01*
X89033Y-55579D01*
X88965Y-55645D01*
X88911Y-55724D01*
X88874Y-55812D01*
X88854Y-55905D01*
X88853Y-56000D01*
X88870Y-56094D01*
X88905Y-56183D01*
X88957Y-56263D01*
X89023Y-56332D01*
X89101Y-56386D01*
X89189Y-56424D01*
X89282Y-56445D01*
X89377Y-56447D01*
X89471Y-56430D01*
X89476Y-56428D01*
X89478Y-56428D01*
X89478Y-56428D01*
X89478Y-56428D01*
X89480Y-56428D01*
X90040Y-56428D01*
X90260Y-56428D01*
X90311Y-56428D01*
X90289Y-56532D01*
X90287Y-56640D01*
X90307Y-56746D01*
X90347Y-56847D01*
X90405Y-56937D01*
X90480Y-57015D01*
X90568Y-57076D01*
X90608Y-57094D01*
X90582Y-57104D01*
X90492Y-57163D01*
X90415Y-57239D01*
X90354Y-57328D01*
X90311Y-57427D01*
X90289Y-57532D01*
X90287Y-57640D01*
X90307Y-57746D01*
X90347Y-57847D01*
X90405Y-57937D01*
X90480Y-58015D01*
X90568Y-58076D01*
X90667Y-58120D01*
X90773Y-58143D01*
X90880Y-58145D01*
X90987Y-58126D01*
X91087Y-58087D01*
X91178Y-58029D01*
X91256Y-57955D01*
X91319Y-57867D01*
X91338Y-57824D01*
X91347Y-57847D01*
X91405Y-57937D01*
X91480Y-58015D01*
X91568Y-58076D01*
X91667Y-58120D01*
X91773Y-58143D01*
X91880Y-58145D01*
X91987Y-58126D01*
X92087Y-58087D01*
X92178Y-58029D01*
X92256Y-57955D01*
X92319Y-57867D01*
X92362Y-57768D01*
X92386Y-57663D01*
X92388Y-57540D01*
X92367Y-57434D01*
X92326Y-57335D01*
X92266Y-57245D01*
X92190Y-57168D01*
X92101Y-57108D01*
X92069Y-57094D01*
X92087Y-57087D01*
X92178Y-57029D01*
X92256Y-56955D01*
X92319Y-56867D01*
X92362Y-56768D01*
X92386Y-56663D01*
X92388Y-56540D01*
X92367Y-56434D01*
X92337Y-56361D01*
X92345Y-56354D01*
X92369Y-56335D01*
X92371Y-56333D01*
X92371Y-56333D01*
X92371Y-56333D01*
X92372Y-56332D01*
X92692Y-56012D01*
X92711Y-55988D01*
X92731Y-55965D01*
X92732Y-55964D01*
X92733Y-55962D01*
X92747Y-55936D01*
X92762Y-55909D01*
X92762Y-55907D01*
X92763Y-55906D01*
X92772Y-55877D01*
X92781Y-55848D01*
X92781Y-55846D01*
X92782Y-55844D01*
X92785Y-55814D01*
X92788Y-55784D01*
X92788Y-55781D01*
X92788Y-55781D01*
X92788Y-55781D01*
X92788Y-55780D01*
X92788Y-63509D01*
X91346Y-63509D01*
X91346Y-61601D01*
X91346Y-60998D01*
X91336Y-60892D01*
X91305Y-60790D01*
X91255Y-60696D01*
X91187Y-60613D01*
X91105Y-60545D01*
X91011Y-60495D01*
X90909Y-60463D01*
X90803Y-60452D01*
X90697Y-60462D01*
X90595Y-60492D01*
X90500Y-60541D01*
X90417Y-60608D01*
X90349Y-60690D01*
X90299Y-60780D01*
X90255Y-60696D01*
X90187Y-60613D01*
X90105Y-60545D01*
X90011Y-60495D01*
X89909Y-60463D01*
X89803Y-60452D01*
X89697Y-60462D01*
X89595Y-60492D01*
X89500Y-60541D01*
X89417Y-60608D01*
X89349Y-60690D01*
X89297Y-60783D01*
X89265Y-60885D01*
X89253Y-60991D01*
X89253Y-60998D01*
X89253Y-61601D01*
X89263Y-61707D01*
X89294Y-61809D01*
X89344Y-61903D01*
X89412Y-61986D01*
X89494Y-62054D01*
X89588Y-62104D01*
X89690Y-62136D01*
X89796Y-62147D01*
X89902Y-62137D01*
X90004Y-62107D01*
X90099Y-62058D01*
X90182Y-61991D01*
X90250Y-61909D01*
X90300Y-61819D01*
X90344Y-61903D01*
X90412Y-61986D01*
X90494Y-62054D01*
X90588Y-62104D01*
X90690Y-62136D01*
X90796Y-62147D01*
X90902Y-62137D01*
X91004Y-62107D01*
X91099Y-62058D01*
X91182Y-61991D01*
X91250Y-61909D01*
X91302Y-61816D01*
X91334Y-61714D01*
X91346Y-61608D01*
X91346Y-61601D01*
X91346Y-63509D01*
X88622Y-63509D01*
X88622Y-57814D01*
X88613Y-57708D01*
X88583Y-57605D01*
X88533Y-57511D01*
X88466Y-57428D01*
X88385Y-57359D01*
X88295Y-57310D01*
X88378Y-57265D01*
X88461Y-57198D01*
X88529Y-57116D01*
X88580Y-57022D01*
X88611Y-56920D01*
X88622Y-56814D01*
X88613Y-56708D01*
X88583Y-56605D01*
X88533Y-56511D01*
X88466Y-56428D01*
X88385Y-56359D01*
X88295Y-56310D01*
X88378Y-56265D01*
X88461Y-56198D01*
X88529Y-56116D01*
X88580Y-56022D01*
X88611Y-55920D01*
X88622Y-55814D01*
X88613Y-55708D01*
X88583Y-55605D01*
X88533Y-55511D01*
X88466Y-55428D01*
X88385Y-55359D01*
X88291Y-55308D01*
X88189Y-55276D01*
X88083Y-55264D01*
X88076Y-55264D01*
X87474Y-55264D01*
X87368Y-55274D01*
X87265Y-55305D01*
X87171Y-55355D01*
X87161Y-55363D01*
X86915Y-55363D01*
X86870Y-55318D01*
X86870Y-54785D01*
X86860Y-54737D01*
X86842Y-54692D01*
X86815Y-54651D01*
X86780Y-54616D01*
X86739Y-54589D01*
X86694Y-54570D01*
X86646Y-54560D01*
X86597Y-54559D01*
X85795Y-54559D01*
X85747Y-54569D01*
X85702Y-54588D01*
X85661Y-54615D01*
X85626Y-54649D01*
X85599Y-54690D01*
X85580Y-54735D01*
X85570Y-54783D01*
X85570Y-54832D01*
X85570Y-55434D01*
X85579Y-55482D01*
X85598Y-55527D01*
X85625Y-55568D01*
X85660Y-55603D01*
X85700Y-55630D01*
X85746Y-55649D01*
X85794Y-55659D01*
X85843Y-55660D01*
X85950Y-55660D01*
X85959Y-55671D01*
X85962Y-55674D01*
X85962Y-55674D01*
X85962Y-55674D01*
X85964Y-55675D01*
X86414Y-56126D01*
X86446Y-56152D01*
X86478Y-56179D01*
X86480Y-56180D01*
X86482Y-56182D01*
X86518Y-56201D01*
X86554Y-56221D01*
X86556Y-56222D01*
X86558Y-56223D01*
X86598Y-56235D01*
X86637Y-56247D01*
X86640Y-56248D01*
X86642Y-56248D01*
X86683Y-56252D01*
X86724Y-56257D01*
X86729Y-56257D01*
X86729Y-56257D01*
X86729Y-56257D01*
X86730Y-56257D01*
X87160Y-56257D01*
X87165Y-56261D01*
X87255Y-56311D01*
X87171Y-56355D01*
X87161Y-56363D01*
X86807Y-56363D01*
X86780Y-56336D01*
X86739Y-56309D01*
X86694Y-56290D01*
X86646Y-56280D01*
X86597Y-56279D01*
X85795Y-56279D01*
X85747Y-56289D01*
X85702Y-56308D01*
X85661Y-56335D01*
X85626Y-56369D01*
X85599Y-56410D01*
X85580Y-56455D01*
X85570Y-56503D01*
X85570Y-56552D01*
X85570Y-57154D01*
X85579Y-57202D01*
X85598Y-57247D01*
X85625Y-57288D01*
X85660Y-57323D01*
X85700Y-57350D01*
X85746Y-57369D01*
X85794Y-57379D01*
X85843Y-57380D01*
X86644Y-57380D01*
X86693Y-57370D01*
X86738Y-57351D01*
X86779Y-57324D01*
X86814Y-57290D01*
X86836Y-57257D01*
X87160Y-57257D01*
X87165Y-57261D01*
X87255Y-57311D01*
X87171Y-57355D01*
X87089Y-57422D01*
X87021Y-57505D01*
X86970Y-57598D01*
X86938Y-57700D01*
X86927Y-57806D01*
X86937Y-57913D01*
X86967Y-58015D01*
X87016Y-58109D01*
X87083Y-58193D01*
X87165Y-58261D01*
X87258Y-58313D01*
X87360Y-58345D01*
X87466Y-58357D01*
X87474Y-58357D01*
X88076Y-58357D01*
X88182Y-58346D01*
X88284Y-58315D01*
X88378Y-58265D01*
X88461Y-58198D01*
X88529Y-58116D01*
X88580Y-58022D01*
X88611Y-57920D01*
X88622Y-57814D01*
X88622Y-63509D01*
X86870Y-63509D01*
X86870Y-58407D01*
X86870Y-57805D01*
X86860Y-57757D01*
X86842Y-57712D01*
X86815Y-57671D01*
X86780Y-57636D01*
X86739Y-57609D01*
X86694Y-57590D01*
X86646Y-57580D01*
X86597Y-57579D01*
X85795Y-57579D01*
X85747Y-57589D01*
X85702Y-57608D01*
X85661Y-57635D01*
X85626Y-57669D01*
X85599Y-57710D01*
X85580Y-57755D01*
X85570Y-57803D01*
X85570Y-57852D01*
X85570Y-58454D01*
X85579Y-58502D01*
X85598Y-58547D01*
X85625Y-58588D01*
X85660Y-58623D01*
X85700Y-58650D01*
X85746Y-58669D01*
X85773Y-58675D01*
X85773Y-60180D01*
X85777Y-60221D01*
X85781Y-60262D01*
X85781Y-60264D01*
X85782Y-60267D01*
X85794Y-60306D01*
X85805Y-60346D01*
X85806Y-60348D01*
X85807Y-60350D01*
X85826Y-60387D01*
X85830Y-60393D01*
X85830Y-60394D01*
X85865Y-60483D01*
X85917Y-60563D01*
X85983Y-60632D01*
X86061Y-60686D01*
X86149Y-60724D01*
X86242Y-60745D01*
X86337Y-60747D01*
X86431Y-60730D01*
X86520Y-60696D01*
X86600Y-60645D01*
X86669Y-60579D01*
X86724Y-60501D01*
X86763Y-60414D01*
X86784Y-60321D01*
X86786Y-60212D01*
X86767Y-60118D01*
X86731Y-60030D01*
X86678Y-59951D01*
X86667Y-59939D01*
X86667Y-58675D01*
X86693Y-58670D01*
X86738Y-58651D01*
X86779Y-58624D01*
X86814Y-58590D01*
X86841Y-58549D01*
X86860Y-58504D01*
X86870Y-58456D01*
X86870Y-58407D01*
X86870Y-63509D01*
X68616Y-63509D01*
X68616Y-33734D01*
X94061Y-33734D01*
X94061Y-63509D01*
X94061Y-63509D01*
G37*
G54D24*
X94061Y-63509D02*
X92788Y-63509D01*
X92788Y-55780D01*
X92788Y-54320D01*
X92788Y-44260D01*
X92785Y-44229D01*
X92783Y-44199D01*
X92782Y-44197D01*
X92782Y-44196D01*
X92773Y-44167D01*
X92765Y-44137D01*
X92764Y-44136D01*
X92763Y-44134D01*
X92749Y-44107D01*
X92735Y-44080D01*
X92734Y-44079D01*
X92733Y-44078D01*
X92714Y-44054D01*
X92695Y-44030D01*
X92693Y-44028D01*
X92693Y-44028D01*
X92693Y-44028D01*
X92692Y-44027D01*
X92532Y-43867D01*
X92508Y-43848D01*
X92485Y-43828D01*
X92484Y-43827D01*
X92482Y-43826D01*
X92456Y-43812D01*
X92429Y-43797D01*
X92427Y-43797D01*
X92426Y-43796D01*
X92397Y-43787D01*
X92368Y-43778D01*
X92366Y-43778D01*
X92364Y-43777D01*
X92359Y-43777D01*
X92362Y-43768D01*
X92386Y-43663D01*
X92388Y-43540D01*
X92367Y-43434D01*
X92326Y-43335D01*
X92266Y-43245D01*
X92190Y-43168D01*
X92101Y-43108D01*
X92069Y-43094D01*
X92087Y-43087D01*
X92178Y-43029D01*
X92256Y-42955D01*
X92319Y-42867D01*
X92362Y-42768D01*
X92386Y-42663D01*
X92388Y-42540D01*
X92367Y-42434D01*
X92326Y-42335D01*
X92266Y-42245D01*
X92190Y-42168D01*
X92101Y-42108D01*
X92069Y-42094D01*
X92087Y-42087D01*
X92178Y-42029D01*
X92256Y-41955D01*
X92319Y-41867D01*
X92362Y-41768D01*
X92386Y-41663D01*
X92388Y-41540D01*
X92367Y-41434D01*
X92326Y-41335D01*
X92266Y-41245D01*
X92190Y-41168D01*
X92101Y-41108D01*
X92069Y-41094D01*
X92087Y-41087D01*
X92178Y-41029D01*
X92256Y-40955D01*
X92319Y-40867D01*
X92362Y-40768D01*
X92386Y-40663D01*
X92388Y-40540D01*
X92367Y-40434D01*
X92326Y-40335D01*
X92266Y-40245D01*
X92190Y-40168D01*
X92101Y-40108D01*
X92069Y-40094D01*
X92087Y-40087D01*
X92178Y-40029D01*
X92256Y-39955D01*
X92319Y-39867D01*
X92362Y-39768D01*
X92386Y-39663D01*
X92388Y-39540D01*
X92367Y-39434D01*
X92326Y-39335D01*
X92266Y-39245D01*
X92190Y-39168D01*
X92101Y-39108D01*
X92069Y-39094D01*
X92087Y-39087D01*
X92178Y-39029D01*
X92256Y-38955D01*
X92319Y-38867D01*
X92362Y-38768D01*
X92386Y-38663D01*
X92388Y-38540D01*
X92367Y-38434D01*
X92326Y-38335D01*
X92266Y-38245D01*
X92190Y-38168D01*
X92101Y-38108D01*
X92069Y-38094D01*
X92087Y-38087D01*
X92178Y-38029D01*
X92256Y-37955D01*
X92319Y-37867D01*
X92362Y-37768D01*
X92386Y-37663D01*
X92388Y-37540D01*
X92367Y-37434D01*
X92326Y-37335D01*
X92266Y-37245D01*
X92190Y-37168D01*
X92101Y-37108D01*
X92069Y-37094D01*
X92087Y-37087D01*
X92178Y-37029D01*
X92256Y-36955D01*
X92319Y-36867D01*
X92362Y-36768D01*
X92386Y-36663D01*
X92388Y-36540D01*
X92367Y-36434D01*
X92326Y-36335D01*
X92266Y-36245D01*
X92190Y-36168D01*
X92101Y-36108D01*
X92069Y-36094D01*
X92087Y-36087D01*
X92178Y-36029D01*
X92256Y-35955D01*
X92319Y-35867D01*
X92362Y-35768D01*
X92386Y-35663D01*
X92388Y-35540D01*
X92367Y-35434D01*
X92326Y-35335D01*
X92266Y-35245D01*
X92190Y-35168D01*
X92101Y-35108D01*
X92002Y-35066D01*
X91896Y-35044D01*
X91788Y-35044D01*
X91682Y-35064D01*
X91582Y-35104D01*
X91492Y-35163D01*
X91415Y-35239D01*
X91354Y-35328D01*
X91338Y-35364D01*
X91326Y-35335D01*
X91266Y-35245D01*
X91190Y-35168D01*
X91101Y-35108D01*
X91002Y-35066D01*
X90896Y-35044D01*
X90788Y-35044D01*
X90682Y-35064D01*
X90582Y-35104D01*
X90492Y-35163D01*
X90415Y-35239D01*
X90354Y-35328D01*
X90311Y-35427D01*
X90289Y-35532D01*
X90287Y-35640D01*
X90307Y-35746D01*
X90347Y-35847D01*
X90405Y-35937D01*
X90480Y-36015D01*
X90568Y-36076D01*
X90667Y-36120D01*
X90773Y-36143D01*
X90880Y-36145D01*
X90987Y-36126D01*
X91087Y-36087D01*
X91178Y-36029D01*
X91256Y-35955D01*
X91319Y-35867D01*
X91338Y-35824D01*
X91347Y-35847D01*
X91405Y-35937D01*
X91480Y-36015D01*
X91568Y-36076D01*
X91608Y-36094D01*
X91582Y-36104D01*
X91492Y-36163D01*
X91415Y-36239D01*
X91354Y-36328D01*
X91311Y-36427D01*
X91289Y-36532D01*
X91287Y-36640D01*
X91307Y-36746D01*
X91347Y-36847D01*
X91405Y-36937D01*
X91480Y-37015D01*
X91568Y-37076D01*
X91608Y-37094D01*
X91582Y-37104D01*
X91492Y-37163D01*
X91415Y-37239D01*
X91354Y-37328D01*
X91338Y-37364D01*
X91326Y-37335D01*
X91266Y-37245D01*
X91190Y-37168D01*
X91101Y-37108D01*
X91002Y-37066D01*
X90896Y-37044D01*
X90788Y-37044D01*
X90682Y-37064D01*
X90582Y-37104D01*
X90492Y-37163D01*
X90415Y-37239D01*
X90354Y-37328D01*
X90311Y-37427D01*
X90289Y-37532D01*
X90287Y-37640D01*
X90307Y-37746D01*
X90347Y-37847D01*
X90405Y-37937D01*
X90480Y-38015D01*
X90568Y-38076D01*
X90608Y-38094D01*
X90582Y-38104D01*
X90492Y-38163D01*
X90415Y-38239D01*
X90354Y-38328D01*
X90311Y-38427D01*
X90289Y-38532D01*
X90287Y-38640D01*
X90307Y-38746D01*
X90347Y-38847D01*
X90405Y-38937D01*
X90480Y-39015D01*
X90568Y-39076D01*
X90608Y-39094D01*
X90582Y-39104D01*
X90492Y-39163D01*
X90415Y-39239D01*
X90354Y-39328D01*
X90311Y-39427D01*
X90289Y-39532D01*
X90287Y-39640D01*
X90307Y-39746D01*
X90347Y-39847D01*
X90405Y-39937D01*
X90480Y-40015D01*
X90568Y-40076D01*
X90608Y-40094D01*
X90582Y-40104D01*
X90492Y-40163D01*
X90415Y-40239D01*
X90354Y-40328D01*
X90311Y-40427D01*
X90289Y-40532D01*
X90287Y-40640D01*
X90307Y-40746D01*
X90347Y-40847D01*
X90405Y-40937D01*
X90480Y-41015D01*
X90568Y-41076D01*
X90608Y-41094D01*
X90582Y-41104D01*
X90492Y-41163D01*
X90415Y-41239D01*
X90354Y-41328D01*
X90311Y-41427D01*
X90289Y-41532D01*
X90287Y-41640D01*
X90307Y-41746D01*
X90347Y-41847D01*
X90405Y-41937D01*
X90480Y-42015D01*
X90568Y-42076D01*
X90608Y-42094D01*
X90582Y-42104D01*
X90492Y-42163D01*
X90415Y-42239D01*
X90354Y-42328D01*
X90311Y-42427D01*
X90289Y-42532D01*
X90287Y-42640D01*
X90307Y-42746D01*
X90347Y-42847D01*
X90405Y-42937D01*
X90480Y-43015D01*
X90568Y-43076D01*
X90608Y-43094D01*
X90582Y-43104D01*
X90492Y-43163D01*
X90415Y-43239D01*
X90354Y-43328D01*
X90311Y-43427D01*
X90289Y-43532D01*
X90287Y-43640D01*
X90307Y-43746D01*
X90347Y-43847D01*
X90405Y-43937D01*
X90480Y-44015D01*
X90568Y-44076D01*
X90608Y-44094D01*
X90582Y-44104D01*
X90492Y-44163D01*
X90415Y-44239D01*
X90354Y-44328D01*
X90311Y-44427D01*
X90289Y-44532D01*
X90287Y-44640D01*
X90307Y-44746D01*
X90347Y-44847D01*
X90405Y-44937D01*
X90480Y-45015D01*
X90568Y-45076D01*
X90667Y-45120D01*
X90773Y-45143D01*
X90880Y-45145D01*
X90987Y-45126D01*
X91087Y-45087D01*
X91178Y-45029D01*
X91256Y-44955D01*
X91319Y-44867D01*
X91338Y-44824D01*
X91347Y-44847D01*
X91405Y-44937D01*
X91480Y-45015D01*
X91568Y-45076D01*
X91608Y-45094D01*
X91582Y-45104D01*
X91492Y-45163D01*
X91415Y-45239D01*
X91354Y-45328D01*
X91311Y-45427D01*
X91289Y-45532D01*
X91287Y-45640D01*
X91307Y-45746D01*
X91347Y-45847D01*
X91405Y-45937D01*
X91480Y-46015D01*
X91568Y-46076D01*
X91608Y-46094D01*
X91582Y-46104D01*
X91492Y-46163D01*
X91415Y-46239D01*
X91354Y-46328D01*
X91338Y-46364D01*
X91326Y-46335D01*
X91266Y-46245D01*
X91190Y-46168D01*
X91101Y-46108D01*
X91002Y-46066D01*
X90896Y-46044D01*
X90788Y-46044D01*
X90682Y-46064D01*
X90582Y-46104D01*
X90492Y-46163D01*
X90415Y-46239D01*
X90354Y-46328D01*
X90311Y-46427D01*
X90289Y-46532D01*
X90287Y-46640D01*
X90307Y-46746D01*
X90347Y-46847D01*
X90405Y-46937D01*
X90480Y-47015D01*
X90568Y-47076D01*
X90608Y-47094D01*
X90582Y-47104D01*
X90492Y-47163D01*
X90415Y-47239D01*
X90354Y-47328D01*
X90311Y-47427D01*
X90289Y-47532D01*
X90287Y-47640D01*
X90307Y-47746D01*
X90347Y-47847D01*
X90405Y-47937D01*
X90480Y-48015D01*
X90568Y-48076D01*
X90608Y-48094D01*
X90582Y-48104D01*
X90492Y-48163D01*
X90415Y-48239D01*
X90354Y-48328D01*
X90311Y-48427D01*
X90289Y-48532D01*
X90287Y-48640D01*
X90307Y-48746D01*
X90347Y-48847D01*
X90405Y-48937D01*
X90480Y-49015D01*
X90568Y-49076D01*
X90608Y-49094D01*
X90582Y-49104D01*
X90492Y-49163D01*
X90415Y-49239D01*
X90354Y-49328D01*
X90311Y-49427D01*
X90289Y-49532D01*
X90287Y-49640D01*
X90307Y-49746D01*
X90347Y-49847D01*
X90405Y-49937D01*
X90480Y-50015D01*
X90568Y-50076D01*
X90608Y-50094D01*
X90582Y-50104D01*
X90492Y-50163D01*
X90415Y-50239D01*
X90354Y-50328D01*
X90311Y-50427D01*
X90289Y-50532D01*
X90287Y-50640D01*
X90307Y-50746D01*
X90347Y-50847D01*
X90405Y-50937D01*
X90480Y-51015D01*
X90568Y-51076D01*
X90608Y-51094D01*
X90582Y-51104D01*
X90492Y-51163D01*
X90415Y-51239D01*
X90354Y-51328D01*
X90311Y-51427D01*
X90289Y-51532D01*
X90287Y-51640D01*
X90307Y-51746D01*
X90347Y-51847D01*
X90405Y-51937D01*
X90480Y-52015D01*
X90568Y-52076D01*
X90608Y-52094D01*
X90582Y-52104D01*
X90492Y-52163D01*
X90415Y-52239D01*
X90354Y-52328D01*
X90311Y-52427D01*
X90289Y-52532D01*
X90287Y-52640D01*
X90307Y-52746D01*
X90347Y-52847D01*
X90405Y-52937D01*
X90480Y-53015D01*
X90568Y-53076D01*
X90608Y-53094D01*
X90582Y-53104D01*
X90492Y-53163D01*
X90415Y-53239D01*
X90354Y-53328D01*
X90311Y-53427D01*
X90289Y-53532D01*
X90287Y-53640D01*
X90307Y-53746D01*
X90347Y-53847D01*
X90405Y-53937D01*
X90480Y-54015D01*
X90568Y-54076D01*
X90608Y-54094D01*
X90582Y-54104D01*
X90492Y-54163D01*
X90415Y-54239D01*
X90354Y-54328D01*
X90311Y-54427D01*
X90289Y-54532D01*
X90287Y-54640D01*
X90307Y-54746D01*
X90347Y-54847D01*
X90405Y-54937D01*
X90480Y-55015D01*
X90568Y-55076D01*
X90608Y-55094D01*
X90582Y-55104D01*
X90492Y-55163D01*
X90415Y-55239D01*
X90354Y-55328D01*
X90311Y-55427D01*
X90289Y-55532D01*
X90287Y-55640D01*
X90307Y-55746D01*
X90317Y-55771D01*
X90260Y-55771D01*
X90040Y-55771D01*
X90030Y-55771D01*
X90030Y-45147D01*
X90030Y-44545D01*
X90020Y-44497D01*
X90001Y-44452D01*
X89974Y-44411D01*
X89940Y-44376D01*
X89899Y-44349D01*
X89854Y-44330D01*
X89826Y-44324D01*
X89826Y-43480D01*
X89822Y-43438D01*
X89819Y-43397D01*
X89818Y-43395D01*
X89818Y-43393D01*
X89806Y-43353D01*
X89794Y-43314D01*
X89793Y-43311D01*
X89793Y-43309D01*
X89773Y-43273D01*
X89754Y-43236D01*
X89753Y-43234D01*
X89752Y-43232D01*
X89726Y-43200D01*
X89700Y-43168D01*
X89697Y-43165D01*
X89697Y-43165D01*
X89697Y-43165D01*
X89695Y-43164D01*
X89155Y-42624D01*
X89124Y-42597D01*
X89092Y-42571D01*
X89090Y-42570D01*
X89088Y-42568D01*
X89052Y-42549D01*
X89016Y-42529D01*
X89013Y-42528D01*
X89011Y-42527D01*
X88972Y-42515D01*
X88932Y-42502D01*
X88930Y-42502D01*
X88928Y-42501D01*
X88887Y-42497D01*
X88846Y-42493D01*
X88841Y-42493D01*
X88841Y-42493D01*
X88841Y-42493D01*
X88840Y-42493D01*
X88642Y-42493D01*
X88642Y-41161D01*
X88642Y-39161D01*
X88642Y-36436D01*
X88642Y-34436D01*
X88633Y-34330D01*
X88603Y-34228D01*
X88553Y-34133D01*
X88486Y-34050D01*
X88405Y-33982D01*
X88311Y-33930D01*
X88209Y-33898D01*
X88103Y-33886D01*
X88096Y-33886D01*
X87494Y-33886D01*
X87388Y-33896D01*
X87285Y-33927D01*
X87191Y-33977D01*
X87109Y-34045D01*
X87041Y-34127D01*
X86990Y-34221D01*
X86958Y-34323D01*
X86947Y-34429D01*
X86957Y-34535D01*
X86987Y-34637D01*
X87036Y-34732D01*
X87103Y-34815D01*
X87185Y-34883D01*
X87278Y-34935D01*
X87380Y-34967D01*
X87486Y-34979D01*
X87494Y-34979D01*
X88096Y-34979D01*
X88202Y-34969D01*
X88304Y-34938D01*
X88398Y-34888D01*
X88481Y-34820D01*
X88549Y-34738D01*
X88600Y-34644D01*
X88631Y-34542D01*
X88642Y-34436D01*
X88642Y-36436D01*
X88633Y-36330D01*
X88603Y-36228D01*
X88553Y-36133D01*
X88486Y-36050D01*
X88405Y-35982D01*
X88311Y-35930D01*
X88209Y-35898D01*
X88103Y-35886D01*
X88096Y-35886D01*
X87494Y-35886D01*
X87388Y-35896D01*
X87285Y-35927D01*
X87191Y-35977D01*
X87109Y-36045D01*
X87041Y-36127D01*
X86990Y-36221D01*
X86958Y-36323D01*
X86947Y-36429D01*
X86957Y-36535D01*
X86987Y-36637D01*
X87036Y-36732D01*
X87103Y-36815D01*
X87185Y-36883D01*
X87278Y-36935D01*
X87380Y-36967D01*
X87486Y-36979D01*
X87494Y-36979D01*
X88096Y-36979D01*
X88202Y-36969D01*
X88304Y-36938D01*
X88398Y-36888D01*
X88481Y-36820D01*
X88549Y-36738D01*
X88600Y-36644D01*
X88631Y-36542D01*
X88642Y-36436D01*
X88642Y-39161D01*
X88633Y-39055D01*
X88603Y-38952D01*
X88553Y-38858D01*
X88486Y-38775D01*
X88405Y-38706D01*
X88311Y-38655D01*
X88209Y-38622D01*
X88103Y-38611D01*
X88096Y-38610D01*
X87494Y-38610D01*
X87388Y-38621D01*
X87285Y-38652D01*
X87191Y-38702D01*
X87109Y-38769D01*
X87041Y-38851D01*
X86990Y-38945D01*
X86958Y-39047D01*
X86947Y-39153D01*
X86957Y-39259D01*
X86987Y-39362D01*
X87036Y-39456D01*
X87103Y-39539D01*
X87185Y-39608D01*
X87278Y-39659D01*
X87380Y-39692D01*
X87486Y-39703D01*
X87494Y-39703D01*
X88096Y-39703D01*
X88202Y-39693D01*
X88304Y-39662D01*
X88398Y-39612D01*
X88481Y-39545D01*
X88549Y-39463D01*
X88600Y-39369D01*
X88631Y-39267D01*
X88642Y-39161D01*
X88642Y-41161D01*
X88633Y-41055D01*
X88603Y-40952D01*
X88553Y-40858D01*
X88486Y-40775D01*
X88405Y-40706D01*
X88311Y-40655D01*
X88209Y-40622D01*
X88103Y-40611D01*
X88096Y-40610D01*
X87494Y-40610D01*
X87388Y-40621D01*
X87285Y-40652D01*
X87191Y-40702D01*
X87109Y-40769D01*
X87041Y-40851D01*
X86990Y-40945D01*
X86958Y-41047D01*
X86947Y-41153D01*
X86957Y-41259D01*
X86987Y-41362D01*
X87036Y-41456D01*
X87103Y-41539D01*
X87185Y-41608D01*
X87278Y-41659D01*
X87380Y-41692D01*
X87486Y-41703D01*
X87494Y-41703D01*
X88096Y-41703D01*
X88202Y-41693D01*
X88304Y-41662D01*
X88398Y-41612D01*
X88481Y-41545D01*
X88549Y-41463D01*
X88600Y-41369D01*
X88631Y-41267D01*
X88642Y-41161D01*
X88642Y-42493D01*
X83640Y-42493D01*
X82380Y-42493D01*
X82348Y-42496D01*
X82912Y-41932D01*
X82931Y-41908D01*
X82951Y-41885D01*
X82952Y-41884D01*
X82953Y-41882D01*
X82967Y-41856D01*
X82982Y-41829D01*
X82982Y-41827D01*
X82983Y-41826D01*
X82992Y-41797D01*
X83001Y-41768D01*
X83001Y-41766D01*
X83002Y-41764D01*
X83005Y-41734D01*
X83008Y-41704D01*
X83008Y-41701D01*
X83008Y-41701D01*
X83008Y-41701D01*
X83008Y-41700D01*
X83008Y-38898D01*
X83049Y-38859D01*
X83104Y-38781D01*
X83143Y-38694D01*
X83164Y-38601D01*
X83166Y-38492D01*
X83147Y-38398D01*
X83111Y-38310D01*
X83058Y-38231D01*
X82991Y-38163D01*
X82912Y-38110D01*
X82824Y-38073D01*
X82731Y-38054D01*
X82635Y-38053D01*
X82542Y-38071D01*
X82453Y-38107D01*
X82373Y-38159D01*
X82305Y-38225D01*
X82251Y-38304D01*
X82214Y-38392D01*
X82194Y-38485D01*
X82193Y-38580D01*
X82210Y-38674D01*
X82245Y-38763D01*
X82297Y-38843D01*
X82351Y-38899D01*
X82351Y-41563D01*
X82098Y-41816D01*
X82098Y-38286D01*
X83032Y-37352D01*
X83051Y-37328D01*
X83071Y-37305D01*
X83072Y-37304D01*
X83073Y-37302D01*
X83087Y-37276D01*
X83102Y-37249D01*
X83102Y-37247D01*
X83103Y-37246D01*
X83112Y-37217D01*
X83121Y-37188D01*
X83121Y-37186D01*
X83122Y-37184D01*
X83125Y-37154D01*
X83128Y-37124D01*
X83128Y-37121D01*
X83128Y-37121D01*
X83128Y-37121D01*
X83128Y-37120D01*
X83128Y-36878D01*
X83169Y-36839D01*
X83224Y-36761D01*
X83263Y-36674D01*
X83284Y-36581D01*
X83286Y-36472D01*
X83267Y-36378D01*
X83231Y-36290D01*
X83178Y-36211D01*
X83111Y-36143D01*
X83032Y-36090D01*
X82944Y-36053D01*
X82851Y-36034D01*
X82755Y-36033D01*
X82662Y-36051D01*
X82573Y-36087D01*
X82493Y-36139D01*
X82425Y-36205D01*
X82371Y-36284D01*
X82334Y-36372D01*
X82314Y-36465D01*
X82313Y-36560D01*
X82328Y-36646D01*
X82318Y-36631D01*
X82251Y-36563D01*
X82172Y-36510D01*
X82084Y-36473D01*
X81991Y-36454D01*
X81895Y-36453D01*
X81802Y-36471D01*
X81713Y-36507D01*
X81633Y-36559D01*
X81576Y-36615D01*
X81559Y-36616D01*
X81557Y-36617D01*
X81556Y-36617D01*
X81527Y-36626D01*
X81497Y-36634D01*
X81496Y-36635D01*
X81494Y-36636D01*
X81467Y-36650D01*
X81440Y-36664D01*
X81439Y-36665D01*
X81438Y-36666D01*
X81414Y-36685D01*
X81390Y-36704D01*
X81388Y-36706D01*
X81388Y-36706D01*
X81388Y-36706D01*
X81387Y-36707D01*
X80447Y-37647D01*
X80428Y-37671D01*
X80408Y-37694D01*
X80407Y-37695D01*
X80406Y-37697D01*
X80392Y-37723D01*
X80377Y-37750D01*
X80377Y-37752D01*
X80376Y-37753D01*
X80367Y-37782D01*
X80358Y-37811D01*
X80358Y-37813D01*
X80357Y-37815D01*
X80354Y-37845D01*
X80351Y-37875D01*
X80351Y-37878D01*
X80351Y-37878D01*
X80351Y-37878D01*
X80351Y-37880D01*
X80351Y-41903D01*
X80341Y-41913D01*
X80275Y-41913D01*
X80182Y-41931D01*
X80093Y-41967D01*
X80013Y-42019D01*
X79945Y-42085D01*
X79891Y-42164D01*
X79854Y-42252D01*
X79834Y-42345D01*
X79833Y-42440D01*
X79850Y-42534D01*
X79885Y-42623D01*
X79937Y-42703D01*
X80003Y-42772D01*
X80081Y-42826D01*
X80142Y-42853D01*
X80134Y-42872D01*
X80114Y-42965D01*
X80113Y-43060D01*
X80130Y-43154D01*
X80165Y-43243D01*
X80217Y-43323D01*
X80283Y-43392D01*
X80293Y-43398D01*
X80285Y-43405D01*
X80231Y-43484D01*
X80194Y-43572D01*
X80174Y-43665D01*
X80173Y-43760D01*
X80182Y-43810D01*
X78815Y-42444D01*
X78784Y-42417D01*
X78752Y-42391D01*
X78750Y-42390D01*
X78748Y-42388D01*
X78712Y-42369D01*
X78676Y-42349D01*
X78673Y-42348D01*
X78671Y-42347D01*
X78632Y-42335D01*
X78592Y-42322D01*
X78590Y-42322D01*
X78588Y-42321D01*
X78547Y-42317D01*
X78521Y-42314D01*
X78544Y-42281D01*
X78583Y-42194D01*
X78604Y-42101D01*
X78606Y-41992D01*
X78587Y-41898D01*
X78551Y-41810D01*
X78498Y-41731D01*
X78431Y-41663D01*
X78352Y-41610D01*
X78264Y-41573D01*
X78171Y-41554D01*
X78075Y-41553D01*
X77982Y-41571D01*
X77927Y-41593D01*
X76217Y-41593D01*
X76276Y-41545D01*
X76344Y-41463D01*
X76395Y-41369D01*
X76426Y-41267D01*
X76438Y-41161D01*
X76428Y-41055D01*
X76398Y-40952D01*
X76348Y-40858D01*
X76282Y-40775D01*
X76200Y-40706D01*
X76106Y-40655D01*
X76005Y-40622D01*
X75899Y-40611D01*
X75891Y-40610D01*
X75289Y-40610D01*
X75183Y-40621D01*
X75081Y-40652D01*
X74987Y-40702D01*
X74904Y-40769D01*
X74836Y-40851D01*
X74826Y-40869D01*
X74826Y-39446D01*
X74832Y-39456D01*
X74899Y-39539D01*
X74980Y-39608D01*
X75074Y-39659D01*
X75175Y-39692D01*
X75281Y-39703D01*
X75289Y-39703D01*
X75891Y-39703D01*
X75997Y-39693D01*
X76099Y-39662D01*
X76194Y-39612D01*
X76276Y-39545D01*
X76344Y-39463D01*
X76395Y-39369D01*
X76426Y-39267D01*
X76438Y-39161D01*
X76428Y-39055D01*
X76398Y-38952D01*
X76348Y-38858D01*
X76282Y-38775D01*
X76200Y-38706D01*
X76106Y-38655D01*
X76005Y-38622D01*
X75899Y-38611D01*
X75891Y-38610D01*
X75289Y-38610D01*
X75183Y-38621D01*
X75081Y-38652D01*
X74987Y-38702D01*
X74904Y-38769D01*
X74836Y-38851D01*
X74826Y-38869D01*
X74826Y-36780D01*
X74822Y-36738D01*
X74820Y-36709D01*
X74832Y-36732D01*
X74899Y-36815D01*
X74980Y-36883D01*
X75074Y-36935D01*
X75175Y-36967D01*
X75281Y-36979D01*
X75289Y-36979D01*
X75891Y-36979D01*
X75997Y-36969D01*
X76099Y-36938D01*
X76194Y-36888D01*
X76276Y-36820D01*
X76344Y-36738D01*
X76395Y-36644D01*
X76426Y-36542D01*
X76438Y-36436D01*
X76438Y-34436D01*
X76428Y-34330D01*
X76398Y-34228D01*
X76348Y-34133D01*
X76282Y-34050D01*
X76200Y-33982D01*
X76106Y-33930D01*
X76005Y-33898D01*
X75899Y-33886D01*
X75891Y-33886D01*
X75289Y-33886D01*
X75183Y-33896D01*
X75081Y-33927D01*
X74987Y-33977D01*
X74904Y-34045D01*
X74836Y-34127D01*
X74785Y-34221D01*
X74754Y-34323D01*
X74742Y-34429D01*
X74752Y-34535D01*
X74782Y-34637D01*
X74832Y-34732D01*
X74899Y-34815D01*
X74980Y-34883D01*
X75074Y-34935D01*
X75175Y-34967D01*
X75281Y-34979D01*
X75289Y-34979D01*
X75891Y-34979D01*
X75997Y-34969D01*
X76099Y-34938D01*
X76194Y-34888D01*
X76276Y-34820D01*
X76344Y-34738D01*
X76395Y-34644D01*
X76426Y-34542D01*
X76438Y-34436D01*
X76438Y-36436D01*
X76428Y-36330D01*
X76398Y-36228D01*
X76348Y-36133D01*
X76282Y-36050D01*
X76200Y-35982D01*
X76106Y-35930D01*
X76005Y-35898D01*
X75899Y-35886D01*
X75891Y-35886D01*
X75289Y-35886D01*
X75183Y-35896D01*
X75081Y-35927D01*
X74987Y-35977D01*
X74904Y-36045D01*
X74836Y-36127D01*
X74785Y-36221D01*
X74754Y-36323D01*
X74742Y-36429D01*
X74752Y-36533D01*
X74752Y-36532D01*
X74726Y-36500D01*
X74700Y-36468D01*
X74697Y-36465D01*
X74697Y-36465D01*
X74697Y-36465D01*
X74695Y-36464D01*
X73510Y-35278D01*
X73478Y-35252D01*
X73446Y-35225D01*
X73444Y-35224D01*
X73443Y-35223D01*
X73406Y-35203D01*
X73370Y-35183D01*
X73368Y-35183D01*
X73366Y-35181D01*
X73326Y-35169D01*
X73287Y-35157D01*
X73285Y-35157D01*
X73282Y-35156D01*
X73241Y-35152D01*
X73200Y-35147D01*
X73196Y-35147D01*
X73196Y-35147D01*
X73195Y-35147D01*
X73194Y-35147D01*
X72159Y-35147D01*
X72101Y-35108D01*
X72002Y-35066D01*
X71896Y-35044D01*
X71788Y-35044D01*
X71682Y-35064D01*
X71582Y-35104D01*
X71516Y-35147D01*
X71159Y-35147D01*
X71101Y-35108D01*
X71002Y-35066D01*
X70896Y-35044D01*
X70788Y-35044D01*
X70682Y-35064D01*
X70582Y-35104D01*
X70492Y-35163D01*
X70415Y-35239D01*
X70354Y-35328D01*
X70311Y-35427D01*
X70289Y-35532D01*
X70287Y-35640D01*
X70307Y-35746D01*
X70347Y-35847D01*
X70405Y-35937D01*
X70480Y-36015D01*
X70568Y-36076D01*
X70608Y-36094D01*
X70582Y-36104D01*
X70492Y-36163D01*
X70415Y-36239D01*
X70354Y-36328D01*
X70311Y-36427D01*
X70289Y-36532D01*
X70287Y-36640D01*
X70307Y-36746D01*
X70347Y-36847D01*
X70405Y-36937D01*
X70480Y-37015D01*
X70568Y-37076D01*
X70608Y-37094D01*
X70582Y-37104D01*
X70492Y-37163D01*
X70415Y-37239D01*
X70354Y-37328D01*
X70311Y-37427D01*
X70289Y-37532D01*
X70287Y-37640D01*
X70307Y-37746D01*
X70347Y-37847D01*
X70405Y-37937D01*
X70480Y-38015D01*
X70568Y-38076D01*
X70608Y-38094D01*
X70582Y-38104D01*
X70492Y-38163D01*
X70415Y-38239D01*
X70354Y-38328D01*
X70311Y-38427D01*
X70289Y-38532D01*
X70287Y-38640D01*
X70307Y-38746D01*
X70347Y-38847D01*
X70405Y-38937D01*
X70480Y-39015D01*
X70568Y-39076D01*
X70608Y-39094D01*
X70582Y-39104D01*
X70492Y-39163D01*
X70415Y-39239D01*
X70354Y-39328D01*
X70311Y-39427D01*
X70289Y-39532D01*
X70287Y-39640D01*
X70307Y-39746D01*
X70347Y-39847D01*
X70405Y-39937D01*
X70480Y-40015D01*
X70568Y-40076D01*
X70608Y-40094D01*
X70582Y-40104D01*
X70492Y-40163D01*
X70415Y-40239D01*
X70354Y-40328D01*
X70311Y-40427D01*
X70289Y-40532D01*
X70287Y-40640D01*
X70307Y-40746D01*
X70347Y-40847D01*
X70405Y-40937D01*
X70480Y-41015D01*
X70568Y-41076D01*
X70608Y-41094D01*
X70582Y-41104D01*
X70492Y-41163D01*
X70415Y-41239D01*
X70354Y-41328D01*
X70311Y-41427D01*
X70289Y-41532D01*
X70287Y-41640D01*
X70307Y-41746D01*
X70347Y-41847D01*
X70405Y-41937D01*
X70480Y-42015D01*
X70568Y-42076D01*
X70608Y-42094D01*
X70582Y-42104D01*
X70492Y-42163D01*
X70415Y-42239D01*
X70354Y-42328D01*
X70311Y-42427D01*
X70289Y-42532D01*
X70287Y-42640D01*
X70307Y-42746D01*
X70347Y-42847D01*
X70405Y-42937D01*
X70480Y-43015D01*
X70568Y-43076D01*
X70608Y-43094D01*
X70582Y-43104D01*
X70492Y-43163D01*
X70415Y-43239D01*
X70354Y-43328D01*
X70311Y-43427D01*
X70289Y-43532D01*
X70287Y-43640D01*
X70307Y-43746D01*
X70347Y-43847D01*
X70405Y-43937D01*
X70480Y-44015D01*
X70568Y-44076D01*
X70608Y-44094D01*
X70582Y-44104D01*
X70492Y-44163D01*
X70415Y-44239D01*
X70354Y-44328D01*
X70311Y-44427D01*
X70289Y-44532D01*
X70287Y-44640D01*
X70307Y-44746D01*
X70347Y-44847D01*
X70405Y-44937D01*
X70480Y-45015D01*
X70568Y-45076D01*
X70608Y-45094D01*
X70582Y-45104D01*
X70492Y-45163D01*
X70415Y-45239D01*
X70354Y-45328D01*
X70311Y-45427D01*
X70289Y-45532D01*
X70287Y-45640D01*
X70307Y-45746D01*
X70347Y-45847D01*
X70405Y-45937D01*
X70480Y-46015D01*
X70568Y-46076D01*
X70608Y-46094D01*
X70582Y-46104D01*
X70492Y-46163D01*
X70415Y-46239D01*
X70354Y-46328D01*
X70311Y-46427D01*
X70289Y-46532D01*
X70287Y-46640D01*
X70307Y-46746D01*
X70347Y-46847D01*
X70405Y-46937D01*
X70480Y-47015D01*
X70568Y-47076D01*
X70608Y-47094D01*
X70582Y-47104D01*
X70492Y-47163D01*
X70415Y-47239D01*
X70354Y-47328D01*
X70311Y-47427D01*
X70289Y-47532D01*
X70287Y-47640D01*
X70307Y-47746D01*
X70347Y-47847D01*
X70405Y-47937D01*
X70480Y-48015D01*
X70568Y-48076D01*
X70608Y-48094D01*
X70582Y-48104D01*
X70492Y-48163D01*
X70415Y-48239D01*
X70354Y-48328D01*
X70311Y-48427D01*
X70289Y-48532D01*
X70287Y-48640D01*
X70307Y-48746D01*
X70347Y-48847D01*
X70405Y-48937D01*
X70480Y-49015D01*
X70568Y-49076D01*
X70608Y-49094D01*
X70582Y-49104D01*
X70492Y-49163D01*
X70415Y-49239D01*
X70354Y-49328D01*
X70311Y-49427D01*
X70289Y-49532D01*
X70287Y-49640D01*
X70307Y-49746D01*
X70347Y-49847D01*
X70405Y-49937D01*
X70480Y-50015D01*
X70568Y-50076D01*
X70608Y-50094D01*
X70582Y-50104D01*
X70492Y-50163D01*
X70415Y-50239D01*
X70354Y-50328D01*
X70311Y-50427D01*
X70289Y-50532D01*
X70287Y-50640D01*
X70307Y-50746D01*
X70347Y-50847D01*
X70405Y-50937D01*
X70480Y-51015D01*
X70568Y-51076D01*
X70608Y-51094D01*
X70582Y-51104D01*
X70492Y-51163D01*
X70415Y-51239D01*
X70354Y-51328D01*
X70311Y-51427D01*
X70289Y-51532D01*
X70287Y-51640D01*
X70307Y-51746D01*
X70347Y-51847D01*
X70405Y-51937D01*
X70480Y-52015D01*
X70568Y-52076D01*
X70608Y-52094D01*
X70582Y-52104D01*
X70492Y-52163D01*
X70415Y-52239D01*
X70354Y-52328D01*
X70311Y-52427D01*
X70289Y-52532D01*
X70287Y-52640D01*
X70307Y-52746D01*
X70347Y-52847D01*
X70405Y-52937D01*
X70480Y-53015D01*
X70568Y-53076D01*
X70608Y-53094D01*
X70582Y-53104D01*
X70492Y-53163D01*
X70415Y-53239D01*
X70354Y-53328D01*
X70311Y-53427D01*
X70289Y-53532D01*
X70287Y-53640D01*
X70307Y-53746D01*
X70347Y-53847D01*
X70405Y-53937D01*
X70480Y-54015D01*
X70568Y-54076D01*
X70608Y-54094D01*
X70582Y-54104D01*
X70492Y-54163D01*
X70415Y-54239D01*
X70354Y-54328D01*
X70311Y-54427D01*
X70289Y-54532D01*
X70287Y-54640D01*
X70307Y-54746D01*
X70347Y-54847D01*
X70405Y-54937D01*
X70480Y-55015D01*
X70568Y-55076D01*
X70608Y-55094D01*
X70582Y-55104D01*
X70492Y-55163D01*
X70415Y-55239D01*
X70354Y-55328D01*
X70311Y-55427D01*
X70289Y-55532D01*
X70287Y-55640D01*
X70307Y-55746D01*
X70347Y-55847D01*
X70405Y-55937D01*
X70480Y-56015D01*
X70568Y-56076D01*
X70608Y-56094D01*
X70582Y-56104D01*
X70492Y-56163D01*
X70415Y-56239D01*
X70354Y-56328D01*
X70311Y-56427D01*
X70289Y-56532D01*
X70287Y-56640D01*
X70307Y-56746D01*
X70347Y-56847D01*
X70405Y-56937D01*
X70480Y-57015D01*
X70568Y-57076D01*
X70608Y-57094D01*
X70582Y-57104D01*
X70492Y-57163D01*
X70415Y-57239D01*
X70354Y-57328D01*
X70311Y-57427D01*
X70289Y-57532D01*
X70287Y-57640D01*
X70293Y-57674D01*
X69807Y-58160D01*
X69788Y-58184D01*
X69768Y-58207D01*
X69767Y-58208D01*
X69766Y-58210D01*
X69752Y-58236D01*
X69737Y-58263D01*
X69737Y-58265D01*
X69736Y-58266D01*
X69727Y-58295D01*
X69718Y-58324D01*
X69718Y-58326D01*
X69717Y-58328D01*
X69714Y-58358D01*
X69711Y-58388D01*
X69711Y-58391D01*
X69711Y-58391D01*
X69711Y-58391D01*
X69711Y-58393D01*
X69711Y-58680D01*
X69711Y-59020D01*
X69714Y-59050D01*
X69716Y-59080D01*
X69717Y-59082D01*
X69717Y-59083D01*
X69726Y-59112D01*
X69734Y-59142D01*
X69735Y-59143D01*
X69736Y-59145D01*
X69750Y-59172D01*
X69764Y-59199D01*
X69765Y-59200D01*
X69766Y-59201D01*
X69785Y-59225D01*
X69804Y-59249D01*
X69806Y-59251D01*
X69806Y-59251D01*
X69806Y-59251D01*
X69807Y-59252D01*
X73407Y-62852D01*
X73431Y-62871D01*
X73454Y-62891D01*
X73455Y-62892D01*
X73457Y-62893D01*
X73483Y-62907D01*
X73510Y-62922D01*
X73512Y-62922D01*
X73513Y-62923D01*
X73542Y-62932D01*
X73571Y-62941D01*
X73573Y-62941D01*
X73575Y-62942D01*
X73605Y-62945D01*
X73635Y-62948D01*
X73638Y-62948D01*
X73638Y-62948D01*
X73638Y-62948D01*
X73640Y-62948D01*
X82060Y-62948D01*
X82090Y-62945D01*
X82120Y-62943D01*
X82122Y-62942D01*
X82123Y-62942D01*
X82152Y-62933D01*
X82182Y-62925D01*
X82183Y-62924D01*
X82185Y-62923D01*
X82212Y-62909D01*
X82239Y-62895D01*
X82240Y-62894D01*
X82241Y-62893D01*
X82265Y-62874D01*
X82289Y-62855D01*
X82291Y-62853D01*
X82291Y-62853D01*
X82291Y-62853D01*
X82292Y-62852D01*
X83692Y-61452D01*
X83711Y-61428D01*
X83720Y-61418D01*
X83724Y-61436D01*
X83796Y-61619D01*
X83902Y-61784D01*
X84038Y-61925D01*
X84199Y-62037D01*
X84379Y-62115D01*
X84571Y-62157D01*
X84767Y-62161D01*
X84960Y-62127D01*
X85143Y-62056D01*
X85308Y-61951D01*
X85450Y-61816D01*
X85563Y-61656D01*
X85643Y-61477D01*
X85686Y-61285D01*
X85690Y-61061D01*
X85651Y-60869D01*
X85577Y-60688D01*
X85468Y-60524D01*
X85330Y-60385D01*
X85167Y-60276D01*
X84987Y-60200D01*
X84795Y-60160D01*
X84598Y-60159D01*
X84406Y-60196D01*
X84224Y-60269D01*
X84060Y-60376D01*
X83920Y-60514D01*
X83809Y-60675D01*
X83788Y-60724D01*
X83788Y-59240D01*
X83785Y-59209D01*
X83783Y-59179D01*
X83782Y-59177D01*
X83782Y-59176D01*
X83773Y-59147D01*
X83765Y-59117D01*
X83764Y-59116D01*
X83763Y-59114D01*
X83749Y-59087D01*
X83735Y-59060D01*
X83734Y-59059D01*
X83733Y-59058D01*
X83714Y-59034D01*
X83695Y-59010D01*
X83693Y-59008D01*
X83693Y-59008D01*
X83693Y-59008D01*
X83692Y-59007D01*
X82518Y-57833D01*
X82518Y-54688D01*
X82533Y-54673D01*
X82560Y-54633D01*
X82579Y-54587D01*
X82589Y-54539D01*
X82590Y-54490D01*
X82590Y-53701D01*
X82580Y-53653D01*
X82561Y-53608D01*
X82534Y-53567D01*
X82500Y-53532D01*
X82459Y-53505D01*
X82414Y-53486D01*
X82366Y-53476D01*
X82317Y-53476D01*
X82015Y-53476D01*
X81967Y-53485D01*
X81939Y-53497D01*
X81914Y-53486D01*
X81866Y-53476D01*
X81817Y-53476D01*
X81515Y-53476D01*
X81467Y-53485D01*
X81439Y-53497D01*
X81414Y-53486D01*
X81366Y-53476D01*
X81317Y-53476D01*
X81015Y-53476D01*
X80967Y-53485D01*
X80939Y-53497D01*
X80914Y-53486D01*
X80866Y-53476D01*
X80817Y-53476D01*
X80515Y-53476D01*
X80467Y-53485D01*
X80422Y-53504D01*
X80381Y-53531D01*
X80346Y-53566D01*
X80319Y-53606D01*
X80300Y-53652D01*
X80290Y-53700D01*
X80289Y-53749D01*
X80289Y-54538D01*
X80299Y-54586D01*
X80318Y-54631D01*
X80321Y-54637D01*
X80321Y-57477D01*
X79826Y-57973D01*
X79827Y-57962D01*
X79831Y-57921D01*
X79831Y-57916D01*
X79831Y-57916D01*
X79831Y-57916D01*
X79831Y-57915D01*
X79831Y-55280D01*
X79823Y-55193D01*
X79810Y-55149D01*
X79810Y-54980D01*
X79800Y-54932D01*
X79791Y-54909D01*
X79950Y-54750D01*
X79967Y-54728D01*
X79998Y-54708D01*
X80033Y-54673D01*
X80060Y-54633D01*
X80079Y-54587D01*
X80089Y-54539D01*
X80090Y-54490D01*
X80090Y-53701D01*
X80080Y-53653D01*
X80061Y-53608D01*
X80034Y-53567D01*
X80000Y-53532D01*
X79959Y-53505D01*
X79914Y-53486D01*
X79866Y-53476D01*
X79817Y-53476D01*
X79515Y-53476D01*
X79467Y-53485D01*
X79422Y-53504D01*
X79381Y-53531D01*
X79346Y-53566D01*
X79319Y-53606D01*
X79300Y-53652D01*
X79290Y-53700D01*
X79289Y-53749D01*
X79289Y-54369D01*
X79124Y-54534D01*
X79103Y-54560D01*
X79081Y-54587D01*
X79080Y-54588D01*
X79079Y-54590D01*
X79063Y-54620D01*
X79046Y-54649D01*
X79046Y-54651D01*
X79045Y-54653D01*
X79035Y-54686D01*
X79024Y-54718D01*
X79024Y-54720D01*
X79024Y-54722D01*
X79020Y-54756D01*
X79016Y-54789D01*
X79016Y-54793D01*
X79016Y-54793D01*
X79016Y-54793D01*
X79016Y-54795D01*
X79016Y-54844D01*
X79016Y-54844D01*
X78989Y-54885D01*
X78988Y-54886D01*
X78961Y-54820D01*
X78908Y-54741D01*
X78841Y-54673D01*
X78762Y-54620D01*
X78674Y-54583D01*
X78581Y-54564D01*
X78485Y-54563D01*
X78392Y-54581D01*
X78303Y-54617D01*
X78223Y-54669D01*
X78155Y-54735D01*
X78101Y-54814D01*
X78064Y-54902D01*
X78044Y-54995D01*
X78043Y-55090D01*
X78060Y-55184D01*
X78095Y-55273D01*
X78147Y-55353D01*
X78153Y-55359D01*
X78153Y-55740D01*
X78153Y-56400D01*
X78153Y-57188D01*
X78134Y-57232D01*
X78114Y-57325D01*
X78113Y-57420D01*
X78130Y-57514D01*
X78153Y-57572D01*
X78153Y-58473D01*
X77060Y-58473D01*
X77018Y-58477D01*
X76977Y-58480D01*
X76975Y-58481D01*
X76973Y-58481D01*
X76970Y-58482D01*
X76970Y-57967D01*
X76970Y-57365D01*
X76960Y-57317D01*
X76941Y-57272D01*
X76914Y-57231D01*
X76880Y-57196D01*
X76839Y-57169D01*
X76794Y-57150D01*
X76746Y-57140D01*
X76697Y-57139D01*
X75895Y-57139D01*
X75847Y-57149D01*
X75802Y-57168D01*
X75761Y-57195D01*
X75726Y-57229D01*
X75699Y-57270D01*
X75680Y-57315D01*
X75670Y-57363D01*
X75670Y-57363D01*
X75417Y-57363D01*
X75412Y-57359D01*
X75319Y-57308D01*
X75217Y-57276D01*
X75111Y-57264D01*
X75104Y-57264D01*
X74502Y-57264D01*
X74395Y-57274D01*
X74293Y-57305D01*
X74199Y-57355D01*
X74116Y-57422D01*
X74083Y-57463D01*
X73831Y-57463D01*
X73830Y-57460D01*
X73803Y-57419D01*
X73768Y-57384D01*
X73727Y-57357D01*
X73682Y-57338D01*
X73634Y-57328D01*
X73585Y-57327D01*
X72783Y-57328D01*
X72735Y-57337D01*
X72690Y-57356D01*
X72649Y-57383D01*
X72614Y-57417D01*
X72587Y-57458D01*
X72568Y-57503D01*
X72558Y-57551D01*
X72558Y-57600D01*
X72558Y-58202D01*
X72567Y-58250D01*
X72586Y-58295D01*
X72613Y-58336D01*
X72648Y-58371D01*
X72688Y-58399D01*
X72734Y-58418D01*
X72761Y-58423D01*
X72761Y-59328D01*
X72765Y-59369D01*
X72769Y-59410D01*
X72769Y-59412D01*
X72770Y-59415D01*
X72781Y-59454D01*
X72793Y-59494D01*
X72794Y-59496D01*
X72795Y-59498D01*
X72814Y-59535D01*
X72833Y-59571D01*
X72835Y-59573D01*
X72836Y-59575D01*
X72862Y-59607D01*
X72887Y-59639D01*
X72891Y-59643D01*
X72891Y-59643D01*
X72891Y-59643D01*
X72892Y-59644D01*
X72908Y-59660D01*
X72925Y-59703D01*
X72977Y-59783D01*
X73043Y-59852D01*
X73121Y-59906D01*
X73209Y-59944D01*
X73302Y-59965D01*
X73397Y-59967D01*
X73491Y-59950D01*
X73580Y-59916D01*
X73660Y-59865D01*
X73729Y-59799D01*
X73784Y-59721D01*
X73823Y-59634D01*
X73844Y-59541D01*
X73846Y-59432D01*
X73827Y-59338D01*
X73791Y-59250D01*
X73738Y-59171D01*
X73671Y-59103D01*
X73655Y-59092D01*
X73655Y-58423D01*
X73680Y-58418D01*
X73726Y-58399D01*
X73767Y-58372D01*
X73783Y-58356D01*
X74491Y-58356D01*
X74494Y-58357D01*
X74502Y-58357D01*
X75104Y-58357D01*
X75210Y-58346D01*
X75312Y-58315D01*
X75406Y-58265D01*
X75416Y-58257D01*
X76199Y-58257D01*
X76240Y-58253D01*
X76281Y-58249D01*
X76283Y-58249D01*
X76286Y-58249D01*
X76315Y-58240D01*
X76744Y-58240D01*
X76792Y-58230D01*
X76837Y-58211D01*
X76878Y-58184D01*
X76913Y-58150D01*
X76940Y-58109D01*
X76959Y-58064D01*
X76969Y-58016D01*
X76970Y-57967D01*
X76970Y-58482D01*
X76933Y-58493D01*
X76894Y-58505D01*
X76891Y-58506D01*
X76889Y-58506D01*
X76853Y-58526D01*
X76816Y-58545D01*
X76814Y-58546D01*
X76812Y-58547D01*
X76780Y-58573D01*
X76748Y-58599D01*
X76745Y-58602D01*
X76745Y-58602D01*
X76745Y-58602D01*
X76744Y-58604D01*
X76099Y-59248D01*
X76053Y-59267D01*
X75973Y-59319D01*
X75905Y-59385D01*
X75851Y-59464D01*
X75814Y-59552D01*
X75794Y-59645D01*
X75793Y-59740D01*
X75810Y-59834D01*
X75845Y-59923D01*
X75897Y-60003D01*
X75963Y-60072D01*
X76041Y-60126D01*
X76129Y-60164D01*
X76222Y-60185D01*
X76317Y-60187D01*
X76411Y-60170D01*
X76500Y-60136D01*
X76511Y-60128D01*
X76511Y-60900D01*
X76515Y-60933D01*
X76518Y-60967D01*
X76518Y-60969D01*
X76518Y-60971D01*
X76528Y-61004D01*
X76538Y-61036D01*
X76539Y-61038D01*
X76539Y-61040D01*
X76555Y-61070D01*
X76571Y-61100D01*
X76572Y-61102D01*
X76573Y-61103D01*
X76594Y-61130D01*
X76616Y-61156D01*
X76618Y-61159D01*
X76618Y-61159D01*
X76618Y-61159D01*
X76619Y-61160D01*
X77390Y-61931D01*
X75330Y-61931D01*
X75450Y-61816D01*
X75563Y-61656D01*
X75643Y-61477D01*
X75686Y-61285D01*
X75690Y-61061D01*
X75651Y-60869D01*
X75577Y-60688D01*
X75468Y-60524D01*
X75330Y-60385D01*
X75167Y-60276D01*
X74987Y-60200D01*
X74795Y-60160D01*
X74598Y-60159D01*
X74406Y-60196D01*
X74224Y-60269D01*
X74060Y-60376D01*
X73920Y-60514D01*
X73809Y-60675D01*
X73732Y-60856D01*
X73691Y-61047D01*
X73688Y-61244D01*
X73702Y-61317D01*
X71668Y-59283D01*
X71668Y-58229D01*
X71758Y-58139D01*
X71773Y-58143D01*
X71880Y-58145D01*
X71987Y-58126D01*
X72087Y-58087D01*
X72178Y-58029D01*
X72256Y-57955D01*
X72319Y-57867D01*
X72362Y-57768D01*
X72386Y-57663D01*
X72388Y-57540D01*
X72367Y-57434D01*
X72326Y-57335D01*
X72266Y-57245D01*
X72190Y-57168D01*
X72101Y-57108D01*
X72069Y-57094D01*
X72087Y-57087D01*
X72178Y-57029D01*
X72256Y-56955D01*
X72319Y-56867D01*
X72362Y-56768D01*
X72386Y-56663D01*
X72388Y-56540D01*
X72367Y-56434D01*
X72326Y-56335D01*
X72266Y-56245D01*
X72190Y-56168D01*
X72101Y-56108D01*
X72069Y-56094D01*
X72087Y-56087D01*
X72178Y-56029D01*
X72256Y-55955D01*
X72319Y-55867D01*
X72362Y-55768D01*
X72386Y-55663D01*
X72388Y-55540D01*
X72367Y-55434D01*
X72326Y-55335D01*
X72266Y-55245D01*
X72190Y-55168D01*
X72101Y-55108D01*
X72069Y-55094D01*
X72087Y-55087D01*
X72178Y-55029D01*
X72256Y-54955D01*
X72319Y-54867D01*
X72362Y-54768D01*
X72386Y-54663D01*
X72388Y-54540D01*
X72377Y-54481D01*
X72385Y-54503D01*
X72437Y-54583D01*
X72503Y-54652D01*
X72581Y-54706D01*
X72669Y-54744D01*
X72762Y-54765D01*
X72857Y-54767D01*
X72951Y-54750D01*
X73040Y-54716D01*
X73120Y-54665D01*
X73189Y-54599D01*
X73244Y-54521D01*
X73283Y-54434D01*
X73304Y-54341D01*
X73306Y-54232D01*
X73287Y-54138D01*
X73266Y-54088D01*
X73266Y-53266D01*
X74475Y-53266D01*
X74395Y-53274D01*
X74293Y-53305D01*
X74199Y-53355D01*
X74116Y-53422D01*
X74048Y-53505D01*
X73998Y-53598D01*
X73966Y-53700D01*
X73955Y-53806D01*
X73965Y-53913D01*
X73995Y-54015D01*
X74044Y-54109D01*
X74111Y-54193D01*
X74193Y-54261D01*
X74283Y-54311D01*
X74199Y-54355D01*
X74116Y-54422D01*
X74048Y-54505D01*
X73998Y-54598D01*
X73966Y-54700D01*
X73955Y-54806D01*
X73965Y-54913D01*
X73995Y-55015D01*
X74044Y-55109D01*
X74111Y-55193D01*
X74193Y-55261D01*
X74283Y-55311D01*
X74199Y-55355D01*
X74116Y-55422D01*
X74048Y-55505D01*
X73998Y-55598D01*
X73966Y-55700D01*
X73955Y-55806D01*
X73965Y-55913D01*
X73995Y-56015D01*
X74044Y-56109D01*
X74111Y-56193D01*
X74193Y-56261D01*
X74286Y-56313D01*
X74388Y-56345D01*
X74494Y-56357D01*
X74502Y-56357D01*
X75104Y-56357D01*
X75210Y-56346D01*
X75312Y-56315D01*
X75406Y-56265D01*
X75416Y-56257D01*
X75669Y-56257D01*
X75669Y-56714D01*
X75679Y-56762D01*
X75698Y-56807D01*
X75725Y-56848D01*
X75759Y-56883D01*
X75800Y-56910D01*
X75845Y-56929D01*
X75893Y-56939D01*
X75942Y-56940D01*
X76744Y-56940D01*
X76792Y-56930D01*
X76837Y-56911D01*
X76878Y-56884D01*
X76913Y-56850D01*
X76940Y-56809D01*
X76959Y-56764D01*
X76969Y-56716D01*
X76970Y-56667D01*
X76970Y-56065D01*
X76960Y-56017D01*
X76941Y-55972D01*
X76914Y-55931D01*
X76880Y-55896D01*
X76839Y-55869D01*
X76794Y-55850D01*
X76746Y-55840D01*
X76706Y-55839D01*
X76694Y-55816D01*
X76693Y-55814D01*
X76692Y-55812D01*
X76666Y-55780D01*
X76640Y-55748D01*
X76637Y-55745D01*
X76637Y-55745D01*
X76637Y-55745D01*
X76635Y-55744D01*
X76386Y-55494D01*
X76354Y-55468D01*
X76323Y-55442D01*
X76321Y-55440D01*
X76319Y-55439D01*
X76282Y-55419D01*
X76246Y-55399D01*
X76244Y-55399D01*
X76242Y-55398D01*
X76202Y-55386D01*
X76163Y-55373D01*
X76161Y-55373D01*
X76159Y-55372D01*
X76117Y-55368D01*
X76076Y-55363D01*
X76072Y-55363D01*
X76072Y-55363D01*
X76072Y-55363D01*
X76070Y-55363D01*
X75417Y-55363D01*
X75412Y-55359D01*
X75323Y-55310D01*
X75406Y-55265D01*
X75416Y-55257D01*
X75874Y-55257D01*
X75903Y-55269D01*
X75951Y-55279D01*
X76000Y-55280D01*
X76802Y-55280D01*
X76850Y-55270D01*
X76895Y-55251D01*
X76936Y-55224D01*
X76971Y-55190D01*
X76998Y-55149D01*
X77017Y-55104D01*
X77027Y-55056D01*
X77028Y-55007D01*
X77027Y-54405D01*
X77018Y-54357D01*
X76999Y-54312D01*
X76972Y-54271D01*
X76938Y-54236D01*
X76897Y-54209D01*
X76852Y-54190D01*
X76804Y-54180D01*
X76755Y-54179D01*
X75953Y-54179D01*
X75905Y-54189D01*
X75860Y-54208D01*
X75819Y-54235D01*
X75784Y-54269D01*
X75756Y-54310D01*
X75737Y-54355D01*
X75736Y-54363D01*
X75417Y-54363D01*
X75412Y-54359D01*
X75323Y-54310D01*
X75406Y-54265D01*
X75489Y-54198D01*
X75557Y-54116D01*
X75608Y-54022D01*
X75639Y-53920D01*
X75650Y-53814D01*
X75641Y-53708D01*
X75610Y-53605D01*
X75561Y-53511D01*
X75494Y-53428D01*
X75412Y-53359D01*
X75319Y-53308D01*
X75217Y-53276D01*
X75134Y-53266D01*
X75582Y-53266D01*
X75727Y-53411D01*
X75727Y-53754D01*
X75737Y-53802D01*
X75756Y-53847D01*
X75783Y-53888D01*
X75817Y-53923D01*
X75858Y-53950D01*
X75903Y-53969D01*
X75951Y-53979D01*
X76000Y-53980D01*
X76802Y-53980D01*
X76850Y-53970D01*
X76895Y-53951D01*
X76936Y-53924D01*
X76971Y-53890D01*
X76998Y-53849D01*
X77017Y-53804D01*
X77027Y-53756D01*
X77028Y-53707D01*
X77027Y-53105D01*
X77018Y-53057D01*
X76999Y-53012D01*
X76972Y-52971D01*
X76938Y-52936D01*
X76897Y-52909D01*
X76852Y-52890D01*
X76804Y-52880D01*
X76755Y-52879D01*
X76459Y-52879D01*
X76083Y-52504D01*
X76052Y-52477D01*
X76020Y-52451D01*
X76018Y-52450D01*
X76016Y-52448D01*
X75980Y-52429D01*
X75943Y-52409D01*
X75941Y-52408D01*
X75939Y-52407D01*
X75900Y-52395D01*
X75860Y-52382D01*
X75858Y-52382D01*
X75856Y-52381D01*
X75815Y-52377D01*
X75774Y-52373D01*
X75769Y-52373D01*
X75769Y-52373D01*
X75769Y-52373D01*
X75767Y-52373D01*
X73365Y-52373D01*
X73266Y-52274D01*
X73266Y-50731D01*
X73283Y-50694D01*
X73304Y-50601D01*
X73305Y-50517D01*
X73369Y-50544D01*
X73462Y-50565D01*
X73557Y-50567D01*
X73651Y-50550D01*
X73740Y-50516D01*
X73820Y-50465D01*
X73889Y-50399D01*
X73944Y-50321D01*
X73983Y-50234D01*
X74004Y-50141D01*
X74006Y-50032D01*
X73987Y-49938D01*
X73951Y-49850D01*
X73898Y-49771D01*
X73831Y-49703D01*
X73752Y-49650D01*
X73700Y-49628D01*
X73675Y-49603D01*
X73675Y-49423D01*
X73700Y-49418D01*
X73746Y-49400D01*
X73787Y-49373D01*
X73821Y-49338D01*
X73849Y-49297D01*
X73849Y-49297D01*
X74188Y-49297D01*
X74193Y-49301D01*
X74286Y-49352D01*
X74388Y-49384D01*
X74494Y-49396D01*
X74502Y-49396D01*
X75104Y-49396D01*
X75210Y-49386D01*
X75312Y-49355D01*
X75406Y-49305D01*
X75416Y-49297D01*
X75838Y-49297D01*
X75858Y-49310D01*
X75903Y-49329D01*
X75951Y-49339D01*
X76000Y-49340D01*
X76802Y-49340D01*
X76850Y-49330D01*
X76895Y-49311D01*
X76936Y-49284D01*
X76971Y-49250D01*
X76998Y-49209D01*
X77017Y-49164D01*
X77027Y-49116D01*
X77028Y-49067D01*
X77027Y-48465D01*
X77018Y-48417D01*
X76999Y-48372D01*
X76972Y-48331D01*
X76938Y-48296D01*
X76897Y-48269D01*
X76852Y-48250D01*
X76804Y-48240D01*
X76755Y-48239D01*
X75953Y-48239D01*
X75905Y-48249D01*
X75860Y-48268D01*
X75819Y-48295D01*
X75784Y-48329D01*
X75756Y-48370D01*
X75743Y-48403D01*
X75417Y-48403D01*
X75412Y-48399D01*
X75319Y-48348D01*
X75217Y-48315D01*
X75111Y-48303D01*
X75104Y-48303D01*
X74502Y-48303D01*
X74395Y-48314D01*
X74293Y-48345D01*
X74199Y-48395D01*
X74189Y-48403D01*
X73807Y-48403D01*
X73788Y-48384D01*
X73747Y-48357D01*
X73702Y-48338D01*
X73654Y-48328D01*
X73605Y-48328D01*
X72803Y-48328D01*
X72755Y-48337D01*
X72710Y-48356D01*
X72669Y-48383D01*
X72634Y-48418D01*
X72607Y-48458D01*
X72588Y-48504D01*
X72578Y-48552D01*
X72578Y-48601D01*
X72578Y-49202D01*
X72587Y-49250D01*
X72606Y-49296D01*
X72633Y-49337D01*
X72668Y-49371D01*
X72708Y-49399D01*
X72754Y-49418D01*
X72781Y-49423D01*
X72781Y-49788D01*
X72785Y-49829D01*
X72789Y-49870D01*
X72789Y-49872D01*
X72790Y-49875D01*
X72801Y-49914D01*
X72813Y-49954D01*
X72814Y-49956D01*
X72815Y-49958D01*
X72834Y-49995D01*
X72853Y-50031D01*
X72855Y-50033D01*
X72856Y-50035D01*
X72871Y-50054D01*
X72871Y-50054D01*
X72775Y-50053D01*
X72682Y-50071D01*
X72593Y-50107D01*
X72513Y-50159D01*
X72445Y-50225D01*
X72391Y-50304D01*
X72354Y-50392D01*
X72352Y-50398D01*
X72326Y-50335D01*
X72266Y-50245D01*
X72190Y-50168D01*
X72101Y-50108D01*
X72069Y-50094D01*
X72087Y-50087D01*
X72178Y-50029D01*
X72256Y-49955D01*
X72319Y-49867D01*
X72362Y-49768D01*
X72386Y-49663D01*
X72388Y-49540D01*
X72367Y-49434D01*
X72326Y-49335D01*
X72266Y-49245D01*
X72190Y-49168D01*
X72101Y-49108D01*
X72069Y-49094D01*
X72087Y-49087D01*
X72178Y-49029D01*
X72256Y-48955D01*
X72319Y-48867D01*
X72362Y-48768D01*
X72386Y-48663D01*
X72388Y-48540D01*
X72367Y-48434D01*
X72326Y-48335D01*
X72266Y-48245D01*
X72190Y-48168D01*
X72101Y-48108D01*
X72069Y-48094D01*
X72087Y-48087D01*
X72178Y-48029D01*
X72256Y-47955D01*
X72319Y-47867D01*
X72362Y-47768D01*
X72386Y-47663D01*
X72388Y-47540D01*
X72367Y-47434D01*
X72326Y-47335D01*
X72266Y-47245D01*
X72190Y-47168D01*
X72101Y-47108D01*
X72069Y-47094D01*
X72087Y-47087D01*
X72178Y-47029D01*
X72256Y-46955D01*
X72319Y-46867D01*
X72362Y-46768D01*
X72386Y-46663D01*
X72388Y-46540D01*
X72367Y-46434D01*
X72326Y-46335D01*
X72266Y-46245D01*
X72190Y-46168D01*
X72101Y-46108D01*
X72069Y-46094D01*
X72087Y-46087D01*
X72178Y-46029D01*
X72256Y-45955D01*
X72319Y-45867D01*
X72362Y-45768D01*
X72373Y-45724D01*
X72373Y-45768D01*
X72354Y-45812D01*
X72334Y-45905D01*
X72333Y-46000D01*
X72350Y-46094D01*
X72385Y-46183D01*
X72437Y-46263D01*
X72503Y-46332D01*
X72581Y-46386D01*
X72669Y-46424D01*
X72762Y-46445D01*
X72857Y-46447D01*
X72951Y-46430D01*
X73040Y-46396D01*
X73120Y-46345D01*
X73189Y-46279D01*
X73244Y-46201D01*
X73283Y-46114D01*
X73304Y-46021D01*
X73306Y-45912D01*
X73287Y-45818D01*
X73266Y-45768D01*
X73266Y-45173D01*
X73912Y-44528D01*
X74062Y-44528D01*
X74048Y-44544D01*
X73998Y-44638D01*
X73966Y-44740D01*
X73955Y-44846D01*
X73965Y-44952D01*
X73995Y-45055D01*
X74044Y-45149D01*
X74111Y-45232D01*
X74193Y-45301D01*
X74283Y-45350D01*
X74199Y-45395D01*
X74116Y-45462D01*
X74048Y-45544D01*
X73998Y-45638D01*
X73966Y-45740D01*
X73955Y-45846D01*
X73965Y-45952D01*
X73995Y-46055D01*
X74044Y-46149D01*
X74111Y-46232D01*
X74193Y-46301D01*
X74283Y-46350D01*
X74199Y-46395D01*
X74116Y-46462D01*
X74048Y-46544D01*
X73998Y-46638D01*
X73966Y-46740D01*
X73955Y-46846D01*
X73965Y-46952D01*
X73995Y-47055D01*
X74044Y-47149D01*
X74111Y-47232D01*
X74193Y-47301D01*
X74286Y-47352D01*
X74388Y-47384D01*
X74494Y-47396D01*
X74502Y-47396D01*
X75104Y-47396D01*
X75210Y-47386D01*
X75312Y-47355D01*
X75406Y-47305D01*
X75416Y-47297D01*
X75727Y-47297D01*
X75727Y-47814D01*
X75737Y-47862D01*
X75756Y-47907D01*
X75783Y-47948D01*
X75817Y-47983D01*
X75858Y-48010D01*
X75903Y-48029D01*
X75951Y-48039D01*
X76000Y-48040D01*
X76802Y-48040D01*
X76850Y-48030D01*
X76895Y-48011D01*
X76936Y-47984D01*
X76971Y-47950D01*
X76998Y-47909D01*
X77017Y-47864D01*
X77027Y-47816D01*
X77028Y-47767D01*
X77027Y-47165D01*
X77018Y-47117D01*
X76999Y-47072D01*
X76972Y-47031D01*
X76938Y-46996D01*
X76897Y-46969D01*
X76852Y-46950D01*
X76804Y-46940D01*
X76755Y-46939D01*
X76734Y-46939D01*
X76726Y-46913D01*
X76714Y-46874D01*
X76713Y-46871D01*
X76713Y-46869D01*
X76693Y-46833D01*
X76674Y-46796D01*
X76673Y-46794D01*
X76672Y-46792D01*
X76646Y-46760D01*
X76620Y-46728D01*
X76617Y-46725D01*
X76617Y-46725D01*
X76617Y-46725D01*
X76615Y-46724D01*
X76426Y-46534D01*
X76394Y-46508D01*
X76362Y-46481D01*
X76360Y-46480D01*
X76358Y-46479D01*
X76323Y-46460D01*
X76802Y-46460D01*
X76850Y-46450D01*
X76895Y-46431D01*
X76936Y-46404D01*
X76971Y-46370D01*
X76998Y-46329D01*
X77017Y-46284D01*
X77027Y-46236D01*
X77028Y-46187D01*
X77027Y-45585D01*
X77018Y-45537D01*
X76999Y-45492D01*
X76972Y-45451D01*
X76938Y-45416D01*
X76897Y-45389D01*
X76852Y-45370D01*
X76804Y-45360D01*
X76755Y-45359D01*
X75953Y-45359D01*
X75905Y-45369D01*
X75860Y-45388D01*
X75836Y-45403D01*
X75417Y-45403D01*
X75412Y-45399D01*
X75323Y-45350D01*
X75406Y-45305D01*
X75489Y-45238D01*
X75557Y-45155D01*
X75608Y-45062D01*
X75639Y-44960D01*
X75650Y-44854D01*
X75641Y-44747D01*
X75610Y-44645D01*
X75561Y-44551D01*
X75542Y-44528D01*
X75727Y-44528D01*
X75727Y-44934D01*
X75737Y-44982D01*
X75756Y-45027D01*
X75783Y-45068D01*
X75817Y-45103D01*
X75858Y-45130D01*
X75903Y-45149D01*
X75951Y-45159D01*
X76000Y-45160D01*
X76802Y-45160D01*
X76850Y-45150D01*
X76895Y-45131D01*
X76936Y-45104D01*
X76971Y-45070D01*
X76998Y-45029D01*
X77017Y-44984D01*
X77027Y-44936D01*
X77028Y-44887D01*
X77027Y-44285D01*
X77018Y-44237D01*
X76999Y-44192D01*
X76972Y-44151D01*
X76938Y-44116D01*
X76897Y-44089D01*
X76892Y-44086D01*
X77194Y-44086D01*
X77713Y-44605D01*
X77713Y-45520D01*
X77713Y-45700D01*
X77713Y-45860D01*
X77713Y-47540D01*
X77717Y-47581D01*
X77720Y-47622D01*
X77721Y-47624D01*
X77721Y-47626D01*
X77733Y-47666D01*
X77745Y-47705D01*
X77746Y-47708D01*
X77746Y-47710D01*
X77766Y-47746D01*
X77785Y-47783D01*
X77786Y-47785D01*
X77787Y-47787D01*
X77813Y-47819D01*
X77839Y-47851D01*
X77842Y-47854D01*
X77842Y-47854D01*
X77842Y-47854D01*
X77844Y-47855D01*
X78073Y-48085D01*
X78073Y-48628D01*
X78054Y-48672D01*
X78034Y-48765D01*
X78033Y-48860D01*
X78050Y-48954D01*
X78085Y-49043D01*
X78137Y-49123D01*
X78203Y-49192D01*
X78281Y-49246D01*
X78369Y-49284D01*
X78462Y-49305D01*
X78557Y-49307D01*
X78651Y-49290D01*
X78740Y-49256D01*
X78820Y-49205D01*
X78889Y-49139D01*
X78944Y-49061D01*
X78983Y-48974D01*
X79004Y-48881D01*
X79006Y-48772D01*
X78987Y-48678D01*
X78966Y-48628D01*
X78966Y-47900D01*
X78962Y-47858D01*
X78959Y-47817D01*
X78958Y-47815D01*
X78958Y-47813D01*
X78946Y-47773D01*
X78934Y-47734D01*
X78933Y-47731D01*
X78933Y-47729D01*
X78913Y-47693D01*
X78894Y-47656D01*
X78893Y-47654D01*
X78892Y-47652D01*
X78866Y-47620D01*
X78840Y-47588D01*
X78837Y-47585D01*
X78837Y-47585D01*
X78837Y-47585D01*
X78835Y-47584D01*
X78606Y-47354D01*
X78606Y-47102D01*
X78642Y-47118D01*
X78735Y-47138D01*
X78831Y-47140D01*
X78924Y-47124D01*
X79013Y-47089D01*
X79094Y-47038D01*
X79163Y-46972D01*
X79218Y-46894D01*
X79257Y-46807D01*
X79278Y-46714D01*
X79279Y-46626D01*
X80374Y-46626D01*
X80444Y-46695D01*
X80475Y-46722D01*
X80507Y-46748D01*
X80509Y-46749D01*
X80511Y-46751D01*
X80528Y-46760D01*
X81173Y-47405D01*
X81173Y-48880D01*
X81177Y-48921D01*
X81180Y-48962D01*
X81181Y-48964D01*
X81181Y-48966D01*
X81193Y-49006D01*
X81205Y-49045D01*
X81206Y-49048D01*
X81206Y-49050D01*
X81226Y-49086D01*
X81245Y-49123D01*
X81246Y-49125D01*
X81247Y-49127D01*
X81273Y-49159D01*
X81299Y-49191D01*
X81302Y-49194D01*
X81302Y-49194D01*
X81302Y-49194D01*
X81304Y-49195D01*
X82004Y-49895D01*
X82035Y-49922D01*
X82067Y-49948D01*
X82069Y-49949D01*
X82071Y-49951D01*
X82107Y-49970D01*
X82143Y-49990D01*
X82146Y-49991D01*
X82148Y-49992D01*
X82187Y-50004D01*
X82227Y-50017D01*
X82229Y-50017D01*
X82231Y-50018D01*
X82272Y-50022D01*
X82313Y-50026D01*
X82318Y-50026D01*
X82318Y-50026D01*
X82318Y-50026D01*
X82320Y-50026D01*
X82720Y-50026D01*
X82954Y-50026D01*
X83033Y-50105D01*
X83033Y-50631D01*
X83014Y-50619D01*
X82969Y-50600D01*
X82921Y-50590D01*
X82872Y-50589D01*
X82320Y-50589D01*
X82272Y-50599D01*
X82227Y-50618D01*
X82186Y-50645D01*
X82160Y-50671D01*
X82160Y-50640D01*
X82150Y-50592D01*
X82131Y-50547D01*
X82104Y-50506D01*
X82070Y-50471D01*
X82029Y-50444D01*
X81984Y-50425D01*
X81936Y-50415D01*
X81887Y-50414D01*
X81535Y-50414D01*
X81487Y-50424D01*
X81442Y-50443D01*
X81401Y-50470D01*
X81366Y-50504D01*
X81360Y-50514D01*
X81354Y-50506D01*
X81320Y-50471D01*
X81279Y-50444D01*
X81234Y-50425D01*
X81186Y-50415D01*
X81137Y-50414D01*
X80785Y-50414D01*
X80737Y-50424D01*
X80692Y-50443D01*
X80651Y-50470D01*
X80616Y-50504D01*
X80589Y-50545D01*
X80570Y-50590D01*
X80560Y-50638D01*
X80559Y-50687D01*
X80559Y-50829D01*
X80555Y-50807D01*
X80536Y-50762D01*
X80509Y-50721D01*
X80475Y-50686D01*
X80434Y-50659D01*
X80389Y-50640D01*
X80341Y-50630D01*
X80292Y-50629D01*
X79740Y-50629D01*
X79692Y-50639D01*
X79647Y-50658D01*
X79606Y-50685D01*
X79571Y-50719D01*
X79544Y-50760D01*
X79525Y-50805D01*
X79515Y-50853D01*
X79514Y-50902D01*
X79514Y-51254D01*
X79524Y-51302D01*
X79543Y-51347D01*
X79570Y-51388D01*
X79604Y-51423D01*
X79645Y-51450D01*
X79683Y-51466D01*
X79686Y-51476D01*
X79536Y-51476D01*
X79440Y-51379D01*
X79440Y-50840D01*
X79430Y-50792D01*
X79411Y-50747D01*
X79384Y-50706D01*
X79350Y-50671D01*
X79309Y-50644D01*
X79264Y-50625D01*
X79216Y-50615D01*
X79167Y-50614D01*
X78815Y-50614D01*
X78767Y-50624D01*
X78722Y-50643D01*
X78681Y-50670D01*
X78646Y-50704D01*
X78640Y-50714D01*
X78634Y-50706D01*
X78600Y-50671D01*
X78559Y-50644D01*
X78514Y-50625D01*
X78466Y-50615D01*
X78417Y-50614D01*
X78065Y-50614D01*
X78017Y-50624D01*
X77972Y-50643D01*
X77931Y-50670D01*
X77896Y-50704D01*
X77869Y-50745D01*
X77850Y-50790D01*
X77840Y-50838D01*
X77839Y-50887D01*
X77839Y-51439D01*
X77849Y-51487D01*
X77868Y-51532D01*
X77895Y-51573D01*
X77896Y-51575D01*
X77896Y-51725D01*
X77900Y-51758D01*
X77903Y-51792D01*
X77903Y-51794D01*
X77903Y-51796D01*
X77913Y-51829D01*
X77923Y-51861D01*
X77924Y-51863D01*
X77924Y-51865D01*
X77940Y-51895D01*
X77956Y-51925D01*
X77957Y-51927D01*
X77958Y-51928D01*
X77979Y-51955D01*
X78001Y-51981D01*
X78003Y-51984D01*
X78003Y-51984D01*
X78003Y-51984D01*
X78004Y-51985D01*
X79239Y-53220D01*
X79265Y-53241D01*
X79292Y-53263D01*
X79293Y-53264D01*
X79295Y-53265D01*
X79325Y-53281D01*
X79354Y-53298D01*
X79356Y-53298D01*
X79358Y-53299D01*
X79391Y-53309D01*
X79423Y-53320D01*
X79425Y-53320D01*
X79427Y-53320D01*
X79461Y-53324D01*
X79494Y-53328D01*
X79498Y-53328D01*
X79498Y-53328D01*
X79498Y-53328D01*
X79500Y-53328D01*
X80360Y-53328D01*
X80393Y-53324D01*
X80427Y-53321D01*
X80429Y-53321D01*
X80431Y-53321D01*
X80464Y-53311D01*
X80496Y-53301D01*
X80498Y-53300D01*
X80500Y-53300D01*
X80530Y-53284D01*
X80560Y-53268D01*
X80562Y-53267D01*
X80563Y-53266D01*
X80590Y-53245D01*
X80616Y-53223D01*
X80619Y-53221D01*
X80619Y-53221D01*
X80619Y-53221D01*
X80620Y-53220D01*
X80950Y-52890D01*
X80971Y-52864D01*
X80993Y-52837D01*
X80994Y-52836D01*
X80995Y-52834D01*
X81011Y-52804D01*
X81028Y-52775D01*
X81028Y-52773D01*
X81029Y-52771D01*
X81032Y-52763D01*
X81062Y-52763D01*
X81364Y-52763D01*
X81412Y-52754D01*
X81440Y-52742D01*
X81465Y-52753D01*
X81513Y-52763D01*
X81562Y-52763D01*
X81864Y-52763D01*
X81912Y-52754D01*
X81940Y-52742D01*
X81965Y-52753D01*
X82013Y-52763D01*
X82062Y-52763D01*
X82364Y-52763D01*
X82412Y-52754D01*
X82440Y-52742D01*
X82465Y-52753D01*
X82513Y-52763D01*
X82562Y-52763D01*
X82864Y-52763D01*
X82912Y-52754D01*
X82940Y-52742D01*
X82965Y-52753D01*
X83013Y-52763D01*
X83062Y-52763D01*
X83364Y-52763D01*
X83412Y-52754D01*
X83457Y-52735D01*
X83498Y-52708D01*
X83533Y-52673D01*
X83560Y-52633D01*
X83579Y-52587D01*
X83589Y-52539D01*
X83590Y-52490D01*
X83590Y-51901D01*
X84013Y-52325D01*
X84013Y-54440D01*
X84013Y-54470D01*
X83931Y-54454D01*
X83835Y-54453D01*
X83742Y-54471D01*
X83653Y-54507D01*
X83587Y-54550D01*
X83589Y-54539D01*
X83590Y-54490D01*
X83590Y-53701D01*
X83580Y-53653D01*
X83561Y-53608D01*
X83534Y-53567D01*
X83500Y-53532D01*
X83459Y-53505D01*
X83414Y-53486D01*
X83366Y-53476D01*
X83317Y-53476D01*
X83015Y-53476D01*
X82967Y-53485D01*
X82922Y-53504D01*
X82881Y-53531D01*
X82846Y-53566D01*
X82819Y-53606D01*
X82800Y-53652D01*
X82790Y-53700D01*
X82789Y-53749D01*
X82789Y-54538D01*
X82799Y-54586D01*
X82818Y-54631D01*
X82845Y-54672D01*
X82879Y-54707D01*
X82920Y-54734D01*
X82965Y-54753D01*
X83013Y-54763D01*
X83062Y-54763D01*
X83364Y-54763D01*
X83412Y-54754D01*
X83434Y-54745D01*
X83428Y-54759D01*
X83424Y-54764D01*
X83397Y-54795D01*
X83371Y-54827D01*
X83370Y-54829D01*
X83368Y-54831D01*
X83349Y-54867D01*
X83329Y-54903D01*
X83328Y-54906D01*
X83327Y-54908D01*
X83315Y-54947D01*
X83302Y-54987D01*
X83302Y-54989D01*
X83301Y-54991D01*
X83297Y-55032D01*
X83293Y-55073D01*
X83293Y-55078D01*
X83293Y-55078D01*
X83293Y-55078D01*
X83293Y-55080D01*
X83293Y-56340D01*
X83293Y-57468D01*
X83274Y-57512D01*
X83254Y-57605D01*
X83253Y-57700D01*
X83270Y-57794D01*
X83305Y-57883D01*
X83357Y-57963D01*
X83423Y-58032D01*
X83501Y-58086D01*
X83589Y-58124D01*
X83682Y-58145D01*
X83777Y-58147D01*
X83871Y-58130D01*
X83960Y-58096D01*
X84013Y-58062D01*
X84013Y-59220D01*
X84014Y-59229D01*
X84013Y-59300D01*
X84030Y-59394D01*
X84065Y-59483D01*
X84117Y-59563D01*
X84183Y-59632D01*
X84261Y-59686D01*
X84349Y-59724D01*
X84442Y-59745D01*
X84537Y-59747D01*
X84631Y-59730D01*
X84720Y-59696D01*
X84800Y-59645D01*
X84869Y-59579D01*
X84924Y-59501D01*
X84963Y-59414D01*
X84984Y-59321D01*
X84986Y-59212D01*
X84967Y-59118D01*
X84931Y-59030D01*
X84906Y-58993D01*
X84906Y-55620D01*
X84906Y-54440D01*
X84906Y-52140D01*
X84902Y-52098D01*
X84899Y-52057D01*
X84898Y-52055D01*
X84898Y-52053D01*
X84886Y-52013D01*
X84874Y-51974D01*
X84873Y-51971D01*
X84873Y-51969D01*
X84853Y-51933D01*
X84834Y-51896D01*
X84833Y-51894D01*
X84832Y-51892D01*
X84806Y-51860D01*
X84780Y-51828D01*
X84777Y-51825D01*
X84777Y-51825D01*
X84777Y-51825D01*
X84775Y-51824D01*
X83926Y-50974D01*
X83926Y-49920D01*
X83922Y-49878D01*
X83919Y-49837D01*
X83918Y-49835D01*
X83918Y-49833D01*
X83906Y-49793D01*
X83894Y-49754D01*
X83893Y-49751D01*
X83893Y-49749D01*
X83873Y-49713D01*
X83854Y-49676D01*
X83853Y-49674D01*
X83852Y-49672D01*
X83826Y-49640D01*
X83800Y-49608D01*
X83797Y-49605D01*
X83797Y-49605D01*
X83797Y-49605D01*
X83795Y-49604D01*
X83518Y-49326D01*
X83537Y-49327D01*
X83631Y-49310D01*
X83720Y-49276D01*
X83800Y-49225D01*
X83869Y-49159D01*
X83924Y-49081D01*
X83963Y-48994D01*
X83981Y-48917D01*
X83986Y-48926D01*
X84005Y-48963D01*
X84006Y-48965D01*
X84007Y-48967D01*
X84033Y-48999D01*
X84059Y-49031D01*
X84062Y-49034D01*
X84062Y-49034D01*
X84062Y-49034D01*
X84064Y-49035D01*
X84374Y-49345D01*
X84374Y-49345D01*
X84374Y-49345D01*
X84694Y-49665D01*
X84694Y-49665D01*
X85604Y-50575D01*
X85635Y-50602D01*
X85667Y-50628D01*
X85669Y-50629D01*
X85671Y-50631D01*
X85707Y-50650D01*
X85743Y-50670D01*
X85746Y-50671D01*
X85748Y-50672D01*
X85787Y-50684D01*
X85827Y-50697D01*
X85829Y-50697D01*
X85831Y-50698D01*
X85872Y-50702D01*
X85913Y-50706D01*
X85918Y-50706D01*
X85918Y-50706D01*
X85918Y-50706D01*
X85920Y-50706D01*
X87414Y-50706D01*
X88893Y-52185D01*
X88893Y-53184D01*
X88867Y-53189D01*
X88822Y-53208D01*
X88781Y-53235D01*
X88746Y-53269D01*
X88719Y-53310D01*
X88700Y-53355D01*
X88698Y-53363D01*
X88389Y-53363D01*
X88385Y-53359D01*
X88291Y-53308D01*
X88189Y-53276D01*
X88083Y-53264D01*
X88076Y-53264D01*
X87474Y-53264D01*
X87368Y-53274D01*
X87265Y-53305D01*
X87171Y-53355D01*
X87161Y-53363D01*
X86823Y-53363D01*
X86815Y-53351D01*
X86780Y-53316D01*
X86739Y-53289D01*
X86694Y-53270D01*
X86646Y-53260D01*
X86597Y-53259D01*
X85795Y-53259D01*
X85747Y-53269D01*
X85702Y-53288D01*
X85661Y-53315D01*
X85626Y-53349D01*
X85599Y-53390D01*
X85580Y-53435D01*
X85570Y-53483D01*
X85570Y-53532D01*
X85570Y-54134D01*
X85579Y-54182D01*
X85598Y-54227D01*
X85625Y-54268D01*
X85660Y-54303D01*
X85700Y-54330D01*
X85746Y-54349D01*
X85794Y-54359D01*
X85843Y-54360D01*
X86644Y-54360D01*
X86693Y-54350D01*
X86738Y-54331D01*
X86779Y-54304D01*
X86814Y-54270D01*
X86822Y-54257D01*
X87160Y-54257D01*
X87165Y-54261D01*
X87258Y-54313D01*
X87360Y-54345D01*
X87466Y-54357D01*
X87474Y-54357D01*
X88076Y-54357D01*
X88182Y-54346D01*
X88284Y-54315D01*
X88378Y-54265D01*
X88389Y-54257D01*
X88836Y-54257D01*
X88865Y-54269D01*
X88913Y-54279D01*
X88962Y-54280D01*
X89764Y-54280D01*
X89812Y-54270D01*
X89857Y-54251D01*
X89898Y-54224D01*
X89933Y-54190D01*
X89960Y-54149D01*
X89979Y-54104D01*
X89989Y-54056D01*
X89990Y-54007D01*
X89990Y-53405D01*
X89980Y-53357D01*
X89961Y-53312D01*
X89934Y-53271D01*
X89900Y-53236D01*
X89859Y-53209D01*
X89814Y-53190D01*
X89786Y-53184D01*
X89786Y-52000D01*
X89782Y-51958D01*
X89779Y-51917D01*
X89778Y-51915D01*
X89778Y-51913D01*
X89766Y-51873D01*
X89754Y-51834D01*
X89753Y-51831D01*
X89753Y-51829D01*
X89733Y-51793D01*
X89714Y-51756D01*
X89713Y-51754D01*
X89712Y-51752D01*
X89686Y-51720D01*
X89660Y-51688D01*
X89657Y-51685D01*
X89657Y-51685D01*
X89657Y-51685D01*
X89655Y-51684D01*
X88642Y-50670D01*
X88642Y-48854D01*
X88633Y-48747D01*
X88603Y-48645D01*
X88553Y-48551D01*
X88486Y-48468D01*
X88405Y-48399D01*
X88315Y-48350D01*
X88398Y-48305D01*
X88481Y-48238D01*
X88549Y-48155D01*
X88600Y-48062D01*
X88631Y-47960D01*
X88642Y-47854D01*
X88633Y-47747D01*
X88603Y-47645D01*
X88553Y-47551D01*
X88486Y-47468D01*
X88405Y-47399D01*
X88315Y-47350D01*
X88398Y-47305D01*
X88481Y-47238D01*
X88549Y-47155D01*
X88600Y-47062D01*
X88631Y-46960D01*
X88642Y-46854D01*
X88633Y-46747D01*
X88603Y-46645D01*
X88553Y-46551D01*
X88486Y-46468D01*
X88405Y-46399D01*
X88311Y-46348D01*
X88209Y-46315D01*
X88103Y-46303D01*
X88096Y-46303D01*
X87494Y-46303D01*
X87388Y-46314D01*
X87285Y-46345D01*
X87191Y-46395D01*
X87181Y-46403D01*
X86870Y-46403D01*
X86870Y-46367D01*
X86870Y-45765D01*
X86860Y-45717D01*
X86842Y-45672D01*
X86815Y-45631D01*
X86780Y-45596D01*
X86739Y-45569D01*
X86694Y-45550D01*
X86646Y-45540D01*
X86597Y-45539D01*
X85795Y-45539D01*
X85747Y-45549D01*
X85702Y-45568D01*
X85661Y-45595D01*
X85626Y-45629D01*
X85599Y-45670D01*
X85580Y-45715D01*
X85570Y-45763D01*
X85570Y-45812D01*
X85570Y-46414D01*
X85579Y-46462D01*
X85598Y-46507D01*
X85625Y-46548D01*
X85660Y-46583D01*
X85700Y-46610D01*
X85746Y-46629D01*
X85785Y-46637D01*
X85793Y-46666D01*
X85805Y-46705D01*
X85806Y-46708D01*
X85806Y-46710D01*
X85826Y-46746D01*
X85845Y-46783D01*
X85846Y-46785D01*
X85847Y-46787D01*
X85873Y-46819D01*
X85899Y-46851D01*
X85902Y-46854D01*
X85902Y-46854D01*
X85902Y-46854D01*
X85904Y-46855D01*
X86214Y-47166D01*
X86246Y-47192D01*
X86277Y-47219D01*
X86279Y-47220D01*
X86281Y-47221D01*
X86318Y-47241D01*
X86354Y-47261D01*
X86356Y-47261D01*
X86358Y-47262D01*
X86398Y-47274D01*
X86437Y-47287D01*
X86439Y-47287D01*
X86442Y-47288D01*
X86483Y-47292D01*
X86524Y-47297D01*
X86528Y-47297D01*
X86528Y-47297D01*
X86528Y-47297D01*
X86530Y-47297D01*
X87180Y-47297D01*
X87185Y-47301D01*
X87275Y-47350D01*
X87191Y-47395D01*
X87181Y-47403D01*
X86420Y-47403D01*
X86378Y-47407D01*
X86337Y-47411D01*
X86335Y-47411D01*
X86333Y-47412D01*
X86293Y-47423D01*
X86254Y-47435D01*
X86252Y-47436D01*
X86249Y-47437D01*
X86213Y-47456D01*
X86176Y-47475D01*
X86174Y-47477D01*
X86172Y-47478D01*
X86146Y-47499D01*
X85795Y-47499D01*
X85747Y-47509D01*
X85702Y-47528D01*
X85661Y-47555D01*
X85626Y-47589D01*
X85599Y-47630D01*
X85580Y-47675D01*
X85570Y-47723D01*
X85570Y-47772D01*
X85570Y-48374D01*
X85579Y-48422D01*
X85598Y-48467D01*
X85625Y-48508D01*
X85660Y-48543D01*
X85700Y-48570D01*
X85746Y-48589D01*
X85794Y-48599D01*
X85843Y-48600D01*
X86644Y-48600D01*
X86693Y-48590D01*
X86738Y-48571D01*
X86779Y-48544D01*
X86814Y-48510D01*
X86841Y-48469D01*
X86860Y-48424D01*
X86870Y-48376D01*
X86870Y-48327D01*
X86870Y-48297D01*
X87180Y-48297D01*
X87185Y-48301D01*
X87275Y-48350D01*
X87191Y-48395D01*
X87109Y-48462D01*
X87041Y-48544D01*
X86990Y-48638D01*
X86958Y-48740D01*
X86947Y-48846D01*
X86957Y-48952D01*
X86987Y-49055D01*
X87036Y-49149D01*
X87103Y-49232D01*
X87185Y-49301D01*
X87278Y-49352D01*
X87380Y-49384D01*
X87486Y-49396D01*
X87494Y-49396D01*
X88096Y-49396D01*
X88202Y-49386D01*
X88304Y-49355D01*
X88398Y-49305D01*
X88481Y-49238D01*
X88549Y-49155D01*
X88600Y-49062D01*
X88631Y-48960D01*
X88642Y-48854D01*
X88642Y-50670D01*
X87915Y-49944D01*
X87884Y-49917D01*
X87852Y-49891D01*
X87850Y-49890D01*
X87848Y-49888D01*
X87812Y-49869D01*
X87776Y-49849D01*
X87773Y-49848D01*
X87771Y-49847D01*
X87732Y-49835D01*
X87692Y-49822D01*
X87690Y-49822D01*
X87688Y-49821D01*
X87647Y-49817D01*
X87606Y-49813D01*
X87601Y-49813D01*
X87601Y-49813D01*
X87601Y-49813D01*
X87600Y-49813D01*
X86810Y-49813D01*
X86814Y-49810D01*
X86841Y-49769D01*
X86860Y-49724D01*
X86870Y-49676D01*
X86870Y-49627D01*
X86870Y-49025D01*
X86860Y-48977D01*
X86842Y-48932D01*
X86815Y-48891D01*
X86780Y-48856D01*
X86739Y-48829D01*
X86694Y-48810D01*
X86646Y-48800D01*
X86597Y-48799D01*
X85795Y-48799D01*
X85747Y-48809D01*
X85702Y-48828D01*
X85661Y-48855D01*
X85626Y-48889D01*
X85617Y-48903D01*
X85195Y-48903D01*
X85005Y-48714D01*
X85005Y-48714D01*
X85005Y-48714D01*
X84826Y-48534D01*
X84826Y-45960D01*
X84826Y-43680D01*
X84822Y-43638D01*
X84819Y-43597D01*
X84818Y-43595D01*
X84818Y-43593D01*
X84806Y-43553D01*
X84794Y-43514D01*
X84793Y-43511D01*
X84793Y-43509D01*
X84773Y-43473D01*
X84754Y-43436D01*
X84753Y-43434D01*
X84752Y-43432D01*
X84726Y-43400D01*
X84715Y-43386D01*
X88654Y-43386D01*
X88933Y-43665D01*
X88933Y-44324D01*
X88907Y-44329D01*
X88862Y-44348D01*
X88821Y-44375D01*
X88792Y-44403D01*
X88409Y-44403D01*
X88405Y-44399D01*
X88311Y-44348D01*
X88209Y-44315D01*
X88103Y-44303D01*
X88096Y-44303D01*
X87494Y-44303D01*
X87388Y-44314D01*
X87285Y-44345D01*
X87191Y-44395D01*
X87181Y-44403D01*
X86855Y-44403D01*
X86842Y-44372D01*
X86815Y-44331D01*
X86780Y-44296D01*
X86739Y-44269D01*
X86694Y-44250D01*
X86646Y-44240D01*
X86597Y-44239D01*
X85795Y-44239D01*
X85747Y-44249D01*
X85702Y-44268D01*
X85661Y-44295D01*
X85626Y-44329D01*
X85599Y-44370D01*
X85580Y-44415D01*
X85570Y-44463D01*
X85570Y-44512D01*
X85570Y-45114D01*
X85579Y-45162D01*
X85598Y-45207D01*
X85625Y-45248D01*
X85660Y-45283D01*
X85700Y-45310D01*
X85746Y-45329D01*
X85794Y-45339D01*
X85843Y-45340D01*
X86644Y-45340D01*
X86693Y-45330D01*
X86738Y-45311D01*
X86760Y-45297D01*
X87180Y-45297D01*
X87185Y-45301D01*
X87278Y-45352D01*
X87380Y-45384D01*
X87486Y-45396D01*
X87494Y-45396D01*
X88096Y-45396D01*
X88202Y-45386D01*
X88304Y-45355D01*
X88398Y-45305D01*
X88409Y-45297D01*
X88764Y-45297D01*
X88785Y-45328D01*
X88819Y-45363D01*
X88860Y-45390D01*
X88905Y-45409D01*
X88953Y-45419D01*
X89002Y-45420D01*
X89804Y-45420D01*
X89852Y-45410D01*
X89897Y-45391D01*
X89938Y-45364D01*
X89973Y-45330D01*
X90000Y-45289D01*
X90019Y-45244D01*
X90029Y-45196D01*
X90030Y-45147D01*
X90030Y-55771D01*
X89788Y-55771D01*
X89771Y-55730D01*
X89718Y-55651D01*
X89651Y-55583D01*
X89572Y-55530D01*
X89484Y-55493D01*
X89391Y-55474D01*
X89295Y-55473D01*
X89202Y-55491D01*
X89113Y-55527D01*
X89033Y-55579D01*
X88965Y-55645D01*
X88911Y-55724D01*
X88874Y-55812D01*
X88854Y-55905D01*
X88853Y-56000D01*
X88870Y-56094D01*
X88905Y-56183D01*
X88957Y-56263D01*
X89023Y-56332D01*
X89101Y-56386D01*
X89189Y-56424D01*
X89282Y-56445D01*
X89377Y-56447D01*
X89471Y-56430D01*
X89476Y-56428D01*
X89478Y-56428D01*
X89478Y-56428D01*
X89478Y-56428D01*
X89480Y-56428D01*
X90040Y-56428D01*
X90260Y-56428D01*
X90311Y-56428D01*
X90289Y-56532D01*
X90287Y-56640D01*
X90307Y-56746D01*
X90347Y-56847D01*
X90405Y-56937D01*
X90480Y-57015D01*
X90568Y-57076D01*
X90608Y-57094D01*
X90582Y-57104D01*
X90492Y-57163D01*
X90415Y-57239D01*
X90354Y-57328D01*
X90311Y-57427D01*
X90289Y-57532D01*
X90287Y-57640D01*
X90307Y-57746D01*
X90347Y-57847D01*
X90405Y-57937D01*
X90480Y-58015D01*
X90568Y-58076D01*
X90667Y-58120D01*
X90773Y-58143D01*
X90880Y-58145D01*
X90987Y-58126D01*
X91087Y-58087D01*
X91178Y-58029D01*
X91256Y-57955D01*
X91319Y-57867D01*
X91338Y-57824D01*
X91347Y-57847D01*
X91405Y-57937D01*
X91480Y-58015D01*
X91568Y-58076D01*
X91667Y-58120D01*
X91773Y-58143D01*
X91880Y-58145D01*
X91987Y-58126D01*
X92087Y-58087D01*
X92178Y-58029D01*
X92256Y-57955D01*
X92319Y-57867D01*
X92362Y-57768D01*
X92386Y-57663D01*
X92388Y-57540D01*
X92367Y-57434D01*
X92326Y-57335D01*
X92266Y-57245D01*
X92190Y-57168D01*
X92101Y-57108D01*
X92069Y-57094D01*
X92087Y-57087D01*
X92178Y-57029D01*
X92256Y-56955D01*
X92319Y-56867D01*
X92362Y-56768D01*
X92386Y-56663D01*
X92388Y-56540D01*
X92367Y-56434D01*
X92337Y-56361D01*
X92345Y-56354D01*
X92369Y-56335D01*
X92371Y-56333D01*
X92371Y-56333D01*
X92371Y-56333D01*
X92372Y-56332D01*
X92692Y-56012D01*
X92711Y-55988D01*
X92731Y-55965D01*
X92732Y-55964D01*
X92733Y-55962D01*
X92747Y-55936D01*
X92762Y-55909D01*
X92762Y-55907D01*
X92763Y-55906D01*
X92772Y-55877D01*
X92781Y-55848D01*
X92781Y-55846D01*
X92782Y-55844D01*
X92785Y-55814D01*
X92788Y-55784D01*
X92788Y-55781D01*
X92788Y-55781D01*
X92788Y-55781D01*
X92788Y-55780D01*
X92788Y-63509D01*
X91346Y-63509D01*
X91346Y-61601D01*
X91346Y-60998D01*
X91336Y-60892D01*
X91305Y-60790D01*
X91255Y-60696D01*
X91187Y-60613D01*
X91105Y-60545D01*
X91011Y-60495D01*
X90909Y-60463D01*
X90803Y-60452D01*
X90697Y-60462D01*
X90595Y-60492D01*
X90500Y-60541D01*
X90417Y-60608D01*
X90349Y-60690D01*
X90299Y-60780D01*
X90255Y-60696D01*
X90187Y-60613D01*
X90105Y-60545D01*
X90011Y-60495D01*
X89909Y-60463D01*
X89803Y-60452D01*
X89697Y-60462D01*
X89595Y-60492D01*
X89500Y-60541D01*
X89417Y-60608D01*
X89349Y-60690D01*
X89297Y-60783D01*
X89265Y-60885D01*
X89253Y-60991D01*
X89253Y-60998D01*
X89253Y-61601D01*
X89263Y-61707D01*
X89294Y-61809D01*
X89344Y-61903D01*
X89412Y-61986D01*
X89494Y-62054D01*
X89588Y-62104D01*
X89690Y-62136D01*
X89796Y-62147D01*
X89902Y-62137D01*
X90004Y-62107D01*
X90099Y-62058D01*
X90182Y-61991D01*
X90250Y-61909D01*
X90300Y-61819D01*
X90344Y-61903D01*
X90412Y-61986D01*
X90494Y-62054D01*
X90588Y-62104D01*
X90690Y-62136D01*
X90796Y-62147D01*
X90902Y-62137D01*
X91004Y-62107D01*
X91099Y-62058D01*
X91182Y-61991D01*
X91250Y-61909D01*
X91302Y-61816D01*
X91334Y-61714D01*
X91346Y-61608D01*
X91346Y-61601D01*
X91346Y-63509D01*
X88622Y-63509D01*
X88622Y-57814D01*
X88613Y-57708D01*
X88583Y-57605D01*
X88533Y-57511D01*
X88466Y-57428D01*
X88385Y-57359D01*
X88295Y-57310D01*
X88378Y-57265D01*
X88461Y-57198D01*
X88529Y-57116D01*
X88580Y-57022D01*
X88611Y-56920D01*
X88622Y-56814D01*
X88613Y-56708D01*
X88583Y-56605D01*
X88533Y-56511D01*
X88466Y-56428D01*
X88385Y-56359D01*
X88295Y-56310D01*
X88378Y-56265D01*
X88461Y-56198D01*
X88529Y-56116D01*
X88580Y-56022D01*
X88611Y-55920D01*
X88622Y-55814D01*
X88613Y-55708D01*
X88583Y-55605D01*
X88533Y-55511D01*
X88466Y-55428D01*
X88385Y-55359D01*
X88291Y-55308D01*
X88189Y-55276D01*
X88083Y-55264D01*
X88076Y-55264D01*
X87474Y-55264D01*
X87368Y-55274D01*
X87265Y-55305D01*
X87171Y-55355D01*
X87161Y-55363D01*
X86915Y-55363D01*
X86870Y-55318D01*
X86870Y-54785D01*
X86860Y-54737D01*
X86842Y-54692D01*
X86815Y-54651D01*
X86780Y-54616D01*
X86739Y-54589D01*
X86694Y-54570D01*
X86646Y-54560D01*
X86597Y-54559D01*
X85795Y-54559D01*
X85747Y-54569D01*
X85702Y-54588D01*
X85661Y-54615D01*
X85626Y-54649D01*
X85599Y-54690D01*
X85580Y-54735D01*
X85570Y-54783D01*
X85570Y-54832D01*
X85570Y-55434D01*
X85579Y-55482D01*
X85598Y-55527D01*
X85625Y-55568D01*
X85660Y-55603D01*
X85700Y-55630D01*
X85746Y-55649D01*
X85794Y-55659D01*
X85843Y-55660D01*
X85950Y-55660D01*
X85959Y-55671D01*
X85962Y-55674D01*
X85962Y-55674D01*
X85962Y-55674D01*
X85964Y-55675D01*
X86414Y-56126D01*
X86446Y-56152D01*
X86478Y-56179D01*
X86480Y-56180D01*
X86482Y-56182D01*
X86518Y-56201D01*
X86554Y-56221D01*
X86556Y-56222D01*
X86558Y-56223D01*
X86598Y-56235D01*
X86637Y-56247D01*
X86640Y-56248D01*
X86642Y-56248D01*
X86683Y-56252D01*
X86724Y-56257D01*
X86729Y-56257D01*
X86729Y-56257D01*
X86729Y-56257D01*
X86730Y-56257D01*
X87160Y-56257D01*
X87165Y-56261D01*
X87255Y-56311D01*
X87171Y-56355D01*
X87161Y-56363D01*
X86807Y-56363D01*
X86780Y-56336D01*
X86739Y-56309D01*
X86694Y-56290D01*
X86646Y-56280D01*
X86597Y-56279D01*
X85795Y-56279D01*
X85747Y-56289D01*
X85702Y-56308D01*
X85661Y-56335D01*
X85626Y-56369D01*
X85599Y-56410D01*
X85580Y-56455D01*
X85570Y-56503D01*
X85570Y-56552D01*
X85570Y-57154D01*
X85579Y-57202D01*
X85598Y-57247D01*
X85625Y-57288D01*
X85660Y-57323D01*
X85700Y-57350D01*
X85746Y-57369D01*
X85794Y-57379D01*
X85843Y-57380D01*
X86644Y-57380D01*
X86693Y-57370D01*
X86738Y-57351D01*
X86779Y-57324D01*
X86814Y-57290D01*
X86836Y-57257D01*
X87160Y-57257D01*
X87165Y-57261D01*
X87255Y-57311D01*
X87171Y-57355D01*
X87089Y-57422D01*
X87021Y-57505D01*
X86970Y-57598D01*
X86938Y-57700D01*
X86927Y-57806D01*
X86937Y-57913D01*
X86967Y-58015D01*
X87016Y-58109D01*
X87083Y-58193D01*
X87165Y-58261D01*
X87258Y-58313D01*
X87360Y-58345D01*
X87466Y-58357D01*
X87474Y-58357D01*
X88076Y-58357D01*
X88182Y-58346D01*
X88284Y-58315D01*
X88378Y-58265D01*
X88461Y-58198D01*
X88529Y-58116D01*
X88580Y-58022D01*
X88611Y-57920D01*
X88622Y-57814D01*
X88622Y-63509D01*
X86870Y-63509D01*
X86870Y-58407D01*
X86870Y-57805D01*
X86860Y-57757D01*
X86842Y-57712D01*
X86815Y-57671D01*
X86780Y-57636D01*
X86739Y-57609D01*
X86694Y-57590D01*
X86646Y-57580D01*
X86597Y-57579D01*
X85795Y-57579D01*
X85747Y-57589D01*
X85702Y-57608D01*
X85661Y-57635D01*
X85626Y-57669D01*
X85599Y-57710D01*
X85580Y-57755D01*
X85570Y-57803D01*
X85570Y-57852D01*
X85570Y-58454D01*
X85579Y-58502D01*
X85598Y-58547D01*
X85625Y-58588D01*
X85660Y-58623D01*
X85700Y-58650D01*
X85746Y-58669D01*
X85773Y-58675D01*
X85773Y-60180D01*
X85777Y-60221D01*
X85781Y-60262D01*
X85781Y-60264D01*
X85782Y-60267D01*
X85794Y-60306D01*
X85805Y-60346D01*
X85806Y-60348D01*
X85807Y-60350D01*
X85826Y-60387D01*
X85830Y-60393D01*
X85830Y-60394D01*
X85865Y-60483D01*
X85917Y-60563D01*
X85983Y-60632D01*
X86061Y-60686D01*
X86149Y-60724D01*
X86242Y-60745D01*
X86337Y-60747D01*
X86431Y-60730D01*
X86520Y-60696D01*
X86600Y-60645D01*
X86669Y-60579D01*
X86724Y-60501D01*
X86763Y-60414D01*
X86784Y-60321D01*
X86786Y-60212D01*
X86767Y-60118D01*
X86731Y-60030D01*
X86678Y-59951D01*
X86667Y-59939D01*
X86667Y-58675D01*
X86693Y-58670D01*
X86738Y-58651D01*
X86779Y-58624D01*
X86814Y-58590D01*
X86841Y-58549D01*
X86860Y-58504D01*
X86870Y-58456D01*
X86870Y-58407D01*
X86870Y-63509D01*
X68616Y-63509D01*
X68616Y-33734D01*
X94061Y-33734D01*
X94061Y-63509D01*
M02*
