G04 (created by PCBNEW (2013-07-07 BZR 4022)-stable) date 01/03/2015 13:42:32*
%MOIN*%
G04 Gerber Fmt 3.4, Leading zero omitted, Abs format*
%FSLAX34Y34*%
G01*
G70*
G90*
G04 APERTURE LIST*
%ADD10C,0.00590551*%
%ADD11O,0.1187X0.0593*%
%ADD12R,0.06X0.06*%
%ADD13C,0.06*%
%ADD14R,0.055X0.035*%
%ADD15O,0.0593X0.1187*%
%ADD16C,0.15*%
%ADD17R,0.0787402X0.0275591*%
%ADD18R,0.05X0.025*%
%ADD19R,0.045X0.025*%
%ADD20R,0.0472X0.0472*%
G04 APERTURE END LIST*
G54D10*
G54D11*
X87775Y-57810D03*
X87775Y-56810D03*
X87775Y-55810D03*
X87775Y-54810D03*
X87775Y-53810D03*
G54D12*
X90838Y-34594D03*
G54D13*
X91838Y-34594D03*
X90838Y-39594D03*
X91838Y-35594D03*
X90838Y-40594D03*
X91838Y-36594D03*
X90838Y-41594D03*
X91838Y-37594D03*
X90838Y-42594D03*
X91838Y-38594D03*
X90838Y-43594D03*
X91838Y-39594D03*
X90838Y-44594D03*
X91838Y-40594D03*
X90838Y-45594D03*
X91838Y-41594D03*
X90838Y-46594D03*
X91838Y-42594D03*
X90838Y-47594D03*
X91838Y-43594D03*
X90838Y-48594D03*
X91838Y-44594D03*
X90838Y-49594D03*
X91838Y-45594D03*
X91838Y-46594D03*
X90838Y-50594D03*
X91838Y-47594D03*
X91838Y-49594D03*
X91838Y-50594D03*
X91838Y-51594D03*
X91838Y-52594D03*
X90838Y-51594D03*
X90838Y-52594D03*
X90838Y-35594D03*
X90838Y-36594D03*
X90838Y-37594D03*
X90838Y-38594D03*
X90838Y-53594D03*
X91838Y-53594D03*
X91838Y-48594D03*
X90838Y-54594D03*
X91838Y-54594D03*
X90838Y-55594D03*
X91838Y-55594D03*
X90838Y-56594D03*
X91838Y-56594D03*
X90838Y-57594D03*
X91838Y-57594D03*
X90838Y-58594D03*
X91838Y-58594D03*
G54D12*
X70838Y-34594D03*
G54D13*
X71838Y-34594D03*
X70838Y-39594D03*
X71838Y-35594D03*
X70838Y-40594D03*
X71838Y-36594D03*
X70838Y-41594D03*
X71838Y-37594D03*
X70838Y-42594D03*
X71838Y-38594D03*
X70838Y-43594D03*
X71838Y-39594D03*
X70838Y-44594D03*
X71838Y-40594D03*
X70838Y-45594D03*
X71838Y-41594D03*
X70838Y-46594D03*
X71838Y-42594D03*
X70838Y-47594D03*
X71838Y-43594D03*
X70838Y-48594D03*
X71838Y-44594D03*
X70838Y-49594D03*
X71838Y-45594D03*
X71838Y-46594D03*
X70838Y-50594D03*
X71838Y-47594D03*
X71838Y-49594D03*
X71838Y-50594D03*
X71838Y-51594D03*
X71838Y-52594D03*
X70838Y-51594D03*
X70838Y-52594D03*
X70838Y-35594D03*
X70838Y-36594D03*
X70838Y-37594D03*
X70838Y-38594D03*
X70838Y-53594D03*
X71838Y-53594D03*
X71838Y-48594D03*
X70838Y-54594D03*
X71838Y-54594D03*
X70838Y-55594D03*
X71838Y-55594D03*
X70838Y-56594D03*
X71838Y-56594D03*
X70838Y-57594D03*
X71838Y-57594D03*
X70838Y-58594D03*
X71838Y-58594D03*
G54D14*
X82760Y-48837D03*
X82760Y-49587D03*
X82740Y-57665D03*
X82740Y-58415D03*
X77620Y-57665D03*
X77620Y-58415D03*
X77640Y-48837D03*
X77640Y-49587D03*
X79980Y-40925D03*
X79980Y-41675D03*
X73340Y-35495D03*
X73340Y-34745D03*
G54D15*
X88800Y-61300D03*
X89800Y-61300D03*
X90800Y-61300D03*
G54D11*
X87795Y-36433D03*
X87795Y-35433D03*
X87795Y-34433D03*
X87795Y-41157D03*
X87795Y-40157D03*
X87795Y-39157D03*
X75590Y-36433D03*
X75590Y-35433D03*
X75590Y-34433D03*
X75590Y-41157D03*
X75590Y-40157D03*
X75590Y-39157D03*
G54D16*
X74690Y-61160D03*
X84690Y-61160D03*
G54D12*
X81890Y-60160D03*
G54D13*
X80790Y-60160D03*
X79740Y-60160D03*
X78640Y-60160D03*
X77540Y-60160D03*
X81340Y-61160D03*
X80240Y-61160D03*
X79190Y-61160D03*
X78090Y-61160D03*
G54D17*
X84106Y-39950D03*
X84106Y-39450D03*
X84106Y-38950D03*
X84106Y-38450D03*
X84106Y-37950D03*
X84106Y-37450D03*
X84106Y-36950D03*
X84106Y-36450D03*
X84106Y-35950D03*
X84106Y-35450D03*
X79973Y-35450D03*
X79973Y-35950D03*
X79973Y-36450D03*
X79973Y-36950D03*
X79973Y-37450D03*
X79973Y-37950D03*
X79973Y-38450D03*
X79973Y-38950D03*
X79973Y-39450D03*
X79973Y-39950D03*
G54D18*
X79840Y-48153D03*
X79840Y-47653D03*
X79840Y-47153D03*
X79840Y-46653D03*
X79840Y-46153D03*
X79840Y-45653D03*
X79840Y-45153D03*
X77640Y-45153D03*
X77640Y-45653D03*
X77640Y-46153D03*
X77640Y-46653D03*
X77640Y-47153D03*
X77640Y-47653D03*
X77640Y-48153D03*
X79820Y-56720D03*
X79820Y-56220D03*
X79820Y-55720D03*
X79820Y-55220D03*
X79820Y-54720D03*
X79820Y-54220D03*
X79820Y-53720D03*
X77620Y-53720D03*
X77620Y-54220D03*
X77620Y-54720D03*
X77620Y-55220D03*
X77620Y-55720D03*
X77620Y-56220D03*
X77620Y-56720D03*
X84938Y-56720D03*
X84938Y-56220D03*
X84938Y-55720D03*
X84938Y-55220D03*
X84938Y-54720D03*
X84938Y-54220D03*
X84938Y-53720D03*
X82738Y-53720D03*
X82738Y-54220D03*
X82738Y-54720D03*
X82738Y-55220D03*
X82738Y-55720D03*
X82738Y-56220D03*
X82738Y-56720D03*
X84958Y-48153D03*
X84958Y-47653D03*
X84958Y-47153D03*
X84958Y-46653D03*
X84958Y-46153D03*
X84958Y-45653D03*
X84958Y-45153D03*
X82758Y-45153D03*
X82758Y-45653D03*
X82758Y-46153D03*
X82758Y-46653D03*
X82758Y-47153D03*
X82758Y-47653D03*
X82758Y-48153D03*
G54D11*
X87795Y-48850D03*
X87795Y-47850D03*
X87795Y-46850D03*
X87795Y-45850D03*
X87795Y-44850D03*
X74803Y-53810D03*
X74803Y-54810D03*
X74803Y-55810D03*
X74803Y-56810D03*
X74803Y-57810D03*
X74803Y-44850D03*
X74803Y-45850D03*
X74803Y-46850D03*
X74803Y-47850D03*
X74803Y-48850D03*
G54D19*
X73320Y-36860D03*
X73320Y-36260D03*
G54D20*
X73320Y-37847D03*
X73320Y-38673D03*
M02*
