M48
;DRILL file {Pcbnew (2013-07-07 BZR 4022)-stable} date 01/03/2015 13:42:34
;FORMAT={-:-/ absolute / metric / decimal}
FMAT,2
METRIC,TZ
T1C0.635
T2C0.998
T3C1.016
T4C3.048
%
G90
G05
M71
T1
X184.963Y-108.407
X184.963Y-116.738
X184.963Y-128.372
X184.963Y-137.871
X186.334Y-151.079
X186.741Y-127.203
X188.163Y-108.407
X193.751Y-151.638
X194.818Y-126.187
X194.869Y-148.438
X198.425Y-106.782
X198.933Y-103.53
X199.441Y-124.003
X199.466Y-139.827
X199.644Y-145.745
X200.136Y-118.5
X200.558Y-115.824
X200.609Y-107.137
X201.473Y-128.067
X204.013Y-107.696
X204.724Y-109.271
X204.876Y-111.049
X208.128Y-93.828
X208.686Y-134.823
X210.007Y-97.892
X210.058Y-112.37
X210.312Y-92.761
X212.09Y-124.054
X212.293Y-148.996
X212.7Y-146.456
X212.75Y-117.805
X213.055Y-139.548
X213.36Y-126.238
X214.63Y-150.52
X216.052Y-113.182
X216.764Y-88.494
X216.764Y-102.21
X219.202Y-153.06
X226.924Y-142.138
X227.838Y-120.498
T2
X190.Y-113.92
X190.Y-116.46
X190.Y-119.
X190.Y-121.54
X190.Y-124.08
X190.Y-136.679
X190.Y-139.219
X190.Y-141.759
X190.Y-144.299
X190.Y-146.839
X192.Y-87.46
X192.Y-90.
X192.Y-92.54
X192.Y-99.46
X192.Y-102.
X192.Y-104.54
X222.949Y-136.679
X222.949Y-139.219
X222.949Y-141.759
X222.949Y-144.299
X222.949Y-146.839
X223.Y-87.46
X223.Y-90.
X223.Y-92.54
X223.Y-99.46
X223.Y-102.
X223.Y-104.54
X223.Y-113.92
X223.Y-116.46
X223.Y-119.
X223.Y-121.54
X223.Y-124.08
X225.552Y-155.702
X228.092Y-155.702
X230.632Y-155.702
T3
X179.93Y-87.87
X179.93Y-90.41
X179.93Y-92.95
X179.93Y-95.49
X179.93Y-98.03
X179.93Y-100.57
X179.93Y-103.11
X179.93Y-105.65
X179.93Y-108.19
X179.93Y-110.73
X179.93Y-113.27
X179.93Y-115.81
X179.93Y-118.35
X179.93Y-120.89
X179.93Y-123.43
X179.93Y-125.97
X179.93Y-128.51
X179.93Y-131.05
X179.93Y-133.59
X179.93Y-136.13
X179.93Y-138.67
X179.93Y-141.21
X179.93Y-143.75
X179.93Y-146.29
X179.93Y-148.83
X182.47Y-87.87
X182.47Y-90.41
X182.47Y-92.95
X182.47Y-95.49
X182.47Y-98.03
X182.47Y-100.57
X182.47Y-103.11
X182.47Y-105.65
X182.47Y-108.19
X182.47Y-110.73
X182.47Y-113.27
X182.47Y-115.81
X182.47Y-118.35
X182.47Y-120.89
X182.47Y-123.43
X182.47Y-125.97
X182.47Y-128.51
X182.47Y-131.05
X182.47Y-133.59
X182.47Y-136.13
X182.47Y-138.67
X182.47Y-141.21
X182.47Y-143.75
X182.47Y-146.29
X182.47Y-148.83
X196.952Y-152.806
X198.349Y-155.346
X199.746Y-152.806
X201.143Y-155.346
X202.54Y-152.806
X203.81Y-155.346
X205.207Y-152.806
X206.604Y-155.346
X208.001Y-152.806
X230.73Y-87.87
X230.73Y-90.41
X230.73Y-92.95
X230.73Y-95.49
X230.73Y-98.03
X230.73Y-100.57
X230.73Y-103.11
X230.73Y-105.65
X230.73Y-108.19
X230.73Y-110.73
X230.73Y-113.27
X230.73Y-115.81
X230.73Y-118.35
X230.73Y-120.89
X230.73Y-123.43
X230.73Y-125.97
X230.73Y-128.51
X230.73Y-131.05
X230.73Y-133.59
X230.73Y-136.13
X230.73Y-138.67
X230.73Y-141.21
X230.73Y-143.75
X230.73Y-146.29
X230.73Y-148.83
X233.27Y-87.87
X233.27Y-90.41
X233.27Y-92.95
X233.27Y-95.49
X233.27Y-98.03
X233.27Y-100.57
X233.27Y-103.11
X233.27Y-105.65
X233.27Y-108.19
X233.27Y-110.73
X233.27Y-113.27
X233.27Y-115.81
X233.27Y-118.35
X233.27Y-120.89
X233.27Y-123.43
X233.27Y-125.97
X233.27Y-128.51
X233.27Y-131.05
X233.27Y-133.59
X233.27Y-136.13
X233.27Y-138.67
X233.27Y-141.21
X233.27Y-143.75
X233.27Y-146.29
X233.27Y-148.83
T4
X189.713Y-155.346
X215.113Y-155.346
T0
M30
